<svg xmlns="http://www.w3.org/2000/svg" viewBox="0 0 69.9 76.43"><defs><style>.cls-1,.cls-2,.cls-3{fill:none;stroke-miterlimit:10;stroke-width:2.63px;}.cls-1,.cls-3{stroke:#270a49;}.cls-1,.cls-2{stroke-linecap:square;}.cls-2{stroke:#f95b3d;}</style></defs><g id="Layer_2" data-name="Layer 2"><g id="animation"><g id="_13" data-name="13"><polygon class="cls-1" points="50.87 75.11 19.24 75.11 20.62 66.26 49.49 66.26 50.87 75.11"/><polyline class="cls-2" points="46.5 59.89 52.41 46.68 40.05 14.31 35.05 14.31"/><polyline class="cls-1" points="29.8 14.31 17.44 46.68 22.8 58.68 22.76 66.26 22.76 66.26"/><line class="cls-2" x1="35.05" y1="14.31" x2="35.05" y2="42.32"/><path class="cls-2" d="M39.21,47.3a4.3,4.3,0,1,1-4.3-4.3A4.31,4.31,0,0,1,39.21,47.3Z"/><rect class="cls-1" x="31.83" y="1.32" width="6.17" height="6.17"/><rect class="cls-1" x="62.33" y="1.32" width="6.17" height="6.17"/><rect class="cls-1" x="62.42" y="29.83" width="6.17" height="6.17" transform="translate(98.41 -32.59) rotate(90)"/><rect class="cls-1" x="1.32" y="29.83" width="6.17" height="6.17" transform="translate(37.31 28.51) rotate(90)"/><rect class="cls-1" x="1.32" y="1.32" width="6.17" height="6.17"/><path class="cls-3" d="M4.65,29.83c.89-7,7.13-23.76,27.18-25.3"/><path class="cls-3" d="M42.49,5.17c7.23,0,20.88,8.48,22.28,19.73"/><line class="cls-3" x1="57.95" y1="4.53" x2="42.49" y2="4.4"/><line class="cls-3" x1="31.83" y1="4.53" x2="14.27" y2="4.53"/></g></g></g></svg>