
<svg xmlns="http://www.w3.org/2000/svg" viewBox="0 0 74.34 76.9">
  <defs>
    <style>
      .cls-1,.cls-2{fill:none;stroke:#270a49}.cls-1{stroke-linecap:square}.cls-1,.cls-2{stroke-miterlimit:10;stroke-width:2.63px}
    </style>
  </defs>
  <g id="Layer_2" data-name="Layer 2">
    <g id="Layer_1-2" data-name="Layer 1">
      <g id="_6" data-name="6">
        <path d="M33.39 73.63a8.71 8.71 0 01-5.52 2 8.85 8.85 0 01-8-5 8.67 8.67 0 01-1.7.17A8.85 8.85 0 019.86 59 8.84 8.84 0 015 45.62a6.45 6.45 0 016.19-2.68M36.62 10.21A8.79 8.79 0 0019.91 6.3a9.51 9.51 0 00-1.7-.16 8.84 8.84 0 00-8.35 11.77A8.85 8.85 0 005 31.28a8.86 8.86 0 00-3.16 10.17" class="cls-1"/>
        <path d="M16.09 20.72c-1.76.31-4.1-.09-6.44-2.93M16.87 47.32c2.21.6 5.05.28 6.4-4.38M19.91 70.55a11.37 11.37 0 01.34-5.55M4.99 31.24h4.43M9.86 58.94l4.99-2.62M19.91 6.26l1.66 2.57" class="cls-2"/>
        <path d="M72.77 36.33a8.73 8.73 0 01.23 2.12 8.85 8.85 0 01-3.68 7.17A8.84 8.84 0 0164.48 59a8.82 8.82 0 01-8.35 11.78 8.67 8.67 0 01-1.7-.17 8.85 8.85 0 01-16.81-3.86v-4.29M41.28 3a8.85 8.85 0 0113.15 3.3 9.51 9.51 0 011.7-.16 8.82 8.82 0 018.35 11.77 8.85 8.85 0 014.87 13.37s-2.54 3.47-7.33 1M36.72 13.94l-.1-3.77" class="cls-1"/>
        <path d="M54.43 6.3s-4.32.92-3.51 5.92M64.48 17.91l-6.05 3.7M69.35 45.62l-4.12-.57M64.48 59s-4.17.59-6.05-2.22M54.43 70.59l-1.8-4.12" class="cls-2"/>
        <path d="M43.18 55.4h3.68M51.81 58.85c-4.24.9-6.67-5.42-2.7-7.69M14.57 27.13c-2.12 1.92-2 9.09 4.75 8.12M56 38.12c-.67 2.43.11 5.44 4.39 6.09M25.74 60.84c.11-2.1-3.68-5.75-6.68-1.75M53.26 20.1s5.74-1.39 4.65 5.15M25.73 15.09s-3.15 5-6.65-.08" class="cls-1"/>
        <path fill="#fff" stroke="#f95b3d" stroke-linecap="square" stroke-miterlimit="10" stroke-width="2.63" d="M44.63 23.01l.95-2.7H32.51L29.2 37.66h5.36l-2.08 18.93h1.98l11.62-22.16h-5.46l1.91-5.45"/>
      </g>
    </g>
  </g>
</svg>