<svg width="153" height="154" viewBox="0 0 153 154" fill="none" xmlns="http://www.w3.org/2000/svg">
<g id="celebrate">
<ellipse id="Ellipse 15" cx="79" cy="1.98654" rx="2" ry="1.98654" fill="#0D5BD9"/>
<path id="Polygon 7" d="M35.8498 120.042C34.2919 120.654 32.7549 119.093 33.3058 117.458L61.1375 34.8694C61.6116 33.4627 63.33 33.0451 64.3562 34.0873L115.23 85.755C116.256 86.7972 115.896 88.5942 114.555 89.1209L35.8498 120.042Z" fill="#3A037A"/>
<ellipse id="Ellipse 14" rx="16.6361" ry="38.4469" transform="matrix(0.697153 -0.716923 0.688886 0.724869 88.9786 60.5394)" fill="#270A49"/>
<g id="Line 13" filter="url(#filter0_d)">
<path d="M75.5002 44.7169C75.5002 44.7169 93.4999 42.1304 82.5 27.0472C71.5 11.964 74.3511 11.226 76.5002 7.26868" stroke="#0D5BD9" stroke-width="2" stroke-linecap="round"/>
</g>
<g id="Line 14" filter="url(#filter1_d)">
<path d="M110 90.002C115.42 80.1179 142 87.3806 144.5 88.4208" stroke="#F95B3D" stroke-width="2" stroke-linecap="round"/>
</g>
<g id="Line 15" filter="url(#filter2_d)">
<path d="M87.0748 69.3058C87.0748 69.3058 130.718 52.0713 114.087 49.3691C97.4548 46.667 125.613 33.1962 125.112 29.1283" stroke="#00B8C3" stroke-width="2" stroke-linecap="round"/>
</g>
<ellipse id="Ellipse 16" cx="150.5" cy="90.5014" rx="2.5" ry="2.08045" fill="#F95B3D"/>
<ellipse id="Ellipse 17" cx="128" cy="24.9667" rx="2" ry="2.08045" fill="#00B8C3"/>
<path id="Star 1" d="M59 10.4043L60.3471 13.9982H64.7063L61.1796 16.2193L62.5267 19.8132L59 17.5921L55.4733 19.8132L56.8204 16.2193L53.2937 13.9982H57.6529L59 10.4043Z" fill="#00B8C3"/>
<path id="Star 2" d="M128.5 60.335L129.51 63.2101H132.78L130.135 64.987L131.145 67.8621L128.5 66.0852L125.855 67.8621L126.865 64.987L124.22 63.2101H127.49L128.5 60.335Z" fill="#3A037A"/>
<rect id="Rectangle 34" width="5.10944" height="5.24184" transform="matrix(0.90151 -0.432759 0.405515 0.914088 86.3717 12.9751)" fill="#F95B3D"/>
<rect id="Rectangle 35" width="5.8482" height="6.00972" transform="matrix(0.913736 -0.406308 0.380097 0.924947 128.375 37.395)" fill="#00B8C3"/>
<rect id="Rectangle 36" width="7.83253" height="8.02436" transform="matrix(0.89121 -0.453591 0.425626 0.904899 124.937 95.4316)" fill="#0D5BD9"/>
<ellipse id="Ellipse 18" cx="102" cy="31.2088" rx="4" ry="4.16091" fill="#0D5BD9"/>
</g>
<defs>
<filter id="filter0_d" x="69.4978" y="6.26855" width="21.5626" height="47.4486" filterUnits="userSpaceOnUse" color-interpolation-filters="sRGB">
<feFlood flood-opacity="0" result="BackgroundImageFix"/>
<feColorMatrix in="SourceAlpha" type="matrix" values="0 0 0 0 0 0 0 0 0 0 0 0 0 0 0 0 0 0 127 0"/>
<feOffset dy="4"/>
<feGaussianBlur stdDeviation="2"/>
<feColorMatrix type="matrix" values="0 0 0 0 0 0 0 0 0 0 0 0 0 0 0 0 0 0 0.25 0"/>
<feBlend mode="normal" in2="BackgroundImageFix" result="effect1_dropShadow"/>
<feBlend mode="normal" in="SourceGraphic" in2="effect1_dropShadow" result="shape"/>
</filter>
<filter id="filter1_d" x="105" y="83.875" width="44.5003" height="15.1272" filterUnits="userSpaceOnUse" color-interpolation-filters="sRGB">
<feFlood flood-opacity="0" result="BackgroundImageFix"/>
<feColorMatrix in="SourceAlpha" type="matrix" values="0 0 0 0 0 0 0 0 0 0 0 0 0 0 0 0 0 0 127 0"/>
<feOffset dy="4"/>
<feGaussianBlur stdDeviation="2"/>
<feColorMatrix type="matrix" values="0 0 0 0 0 0 0 0 0 0 0 0 0 0 0 0 0 0 0.25 0"/>
<feBlend mode="normal" in2="BackgroundImageFix" result="effect1_dropShadow"/>
<feBlend mode="normal" in="SourceGraphic" in2="effect1_dropShadow" result="shape"/>
</filter>
<filter id="filter2_d" x="82.0934" y="28.1099" width="48.0065" height="50.215" filterUnits="userSpaceOnUse" color-interpolation-filters="sRGB">
<feFlood flood-opacity="0" result="BackgroundImageFix"/>
<feColorMatrix in="SourceAlpha" type="matrix" values="0 0 0 0 0 0 0 0 0 0 0 0 0 0 0 0 0 0 127 0"/>
<feOffset dy="4"/>
<feGaussianBlur stdDeviation="2"/>
<feColorMatrix type="matrix" values="0 0 0 0 0 0 0 0 0 0 0 0 0 0 0 0 0 0 0.25 0"/>
<feBlend mode="normal" in2="BackgroundImageFix" result="effect1_dropShadow"/>
<feBlend mode="normal" in="SourceGraphic" in2="effect1_dropShadow" result="shape"/>
</filter>
</defs>
</svg>
