<svg width="264" height="369" viewBox="0 0 264 369" fill="none" xmlns="http://www.w3.org/2000/svg">
<g id="contact bg">
<g id="Group 55">
<rect id="Rectangle 32" width="262" height="367" rx="16" fill="#0A429F"/>
</g>
<path id="Ellipse 9" d="M124.576 367.032C123.305 350.765 126.383 340.513 132.671 325.116C138.958 309.72 148.811 295.586 161.626 283.583C174.44 271.579 189.945 261.961 207.186 255.319C224.427 248.677 243.041 245.152 261.883 244.96L261.883 329.5C256.327 329.557 251.574 330.375 246.489 332.333C241.405 334.292 236.833 337.128 233.054 340.668C229.275 344.208 226.369 348.376 224.515 352.916C222.661 357.456 221.898 362.273 222.273 367.07L173.998 367.051L124.576 367.032Z" fill="#270A49" fill-opacity="0.54"/>
<ellipse id="Ellipse 10" cx="182" cy="270.5" rx="43" ry="39.5" fill="#00B8C4" fill-opacity="0.43"/>
</g>
</svg>
