<svg width="20" height="20" viewBox="0 0 20 20" fill="none" xmlns="http://www.w3.org/2000/svg">
<g id="Group 75">
<g id="Group 70">
<circle id="Ellipse 13" cx="10" cy="10" r="10" fill="#1A2471"/>
<path id="Vector" d="M14 10.5H12.707C12.5744 10.5 12.4472 10.5527 12.3535 10.6465L11.1465 11.8535C11.0528 11.9473 10.9256 12 10.793 12H9.207C9.0744 12 8.94725 11.9473 8.8535 11.8535L7.6465 10.6465C7.55275 10.5527 7.4256 10.5 7.293 10.5H6M14 10.5V7C14 6.73478 13.8946 6.48043 13.7071 6.29289C13.5196 6.10536 13.2652 6 13 6H7C6.73478 6 6.48043 6.10536 6.29289 6.29289C6.10536 6.48043 6 6.73478 6 7V10.5H14ZM14 10.5V13C14 13.2652 13.8946 13.5196 13.7071 13.7071C13.5196 13.8946 13.2652 14 13 14H7C6.73478 14 6.48043 13.8946 6.29289 13.7071C6.10536 13.5196 6 13.2652 6 13V10.5H14Z" stroke="#02A4BD" stroke-width="2" stroke-linecap="round" stroke-linejoin="round"/>
</g>
</g>
</svg>
