<svg width="20" height="20" viewBox="0 0 20 20" fill="none" xmlns="http://www.w3.org/2000/svg">
<circle cx="10" cy="10" r="10" fill="#1A2471"/>
<path d="M5 7C5 6.73478 5.10536 6.48043 5.29289 6.29289C5.48043 6.10536 5.73478 6 6 6H7.64C7.7449 6.00008 7.84711 6.03315 7.93218 6.09452C8.01724 6.1559 8.08085 6.24248 8.114 6.342L8.863 8.5885C8.90095 8.70267 8.89646 8.82669 8.85036 8.93782C8.80425 9.04895 8.71963 9.13973 8.612 9.1935L7.4835 9.7585C8.03666 10.9828 9.01723 11.9633 10.2415 12.5165L10.8065 11.388C10.8603 11.2804 10.9511 11.1957 11.0622 11.1496C11.1733 11.1035 11.2973 11.099 11.4115 11.137L13.658 11.886C13.7576 11.9192 13.8442 11.9829 13.9056 12.068C13.967 12.1532 14 12.2555 14 12.3605V14C14 14.2652 13.8946 14.5196 13.7071 14.7071C13.5196 14.8946 13.2652 15 13 15H12.5C8.358 15 5 11.642 5 7.5V7Z" stroke="#079AAF" stroke-width="2" stroke-linecap="round" stroke-linejoin="round"/>
</svg>
