<svg xmlns="http://www.w3.org/2000/svg" viewBox="0 0 574.9 135">
  <defs>
    <style>.cls-1,.cls-6{fill:#260b49;}.cls-2{fill:#270a49;}.cls-3,.cls-4,.cls-5{fill:none;}.cls-3,.cls-4{stroke:#270a49;stroke-width:4px;}.cls-3{stroke-linejoin:round;}.cls-4,.cls-5{stroke-linecap:round;stroke-miterlimit:10;}.cls-5{stroke:#fff;stroke-width:6px;}.cls-6{font-size:60px;font-family:Montserrat-Bold, Montserrat;font-weight:700;}.cls-7{letter-spacing:0.01em;}.cls-8{letter-spacing:-0.01em;}.cls-9{font-size:48px;font-family:Montserrat-LightItalic, Montserrat;font-weight:300;font-style:italic;}.cls-10{letter-spacing:-0.01em;}.cls-11{letter-spacing:-0.01em;}.cls-12{letter-spacing:0em;}.cls-13{font-size:21px;fill:#fff;font-family:Montserrat-ExtraBold, Montserrat;font-weight:800;}</style>
  </defs>
  <g id="Layer_2" data-name="Layer 2">
    <g id="Layer_1-2" data-name="Layer 1">
      <rect class="cls-1" x="17.59" y="8.46" width="156.62" height="103.08" rx="2"/>
      <path class="cls-2" d="M172.21,10.46v99.08H19.59V10.46H172.21m0-4H19.59a4,4,0,0,0-4,4v99.08a4,4,0,0,0,4,4H172.21a4,4,0,0,0,4-4V10.46a4,4,0,0,0-4-4Z"/>
      <path class="cls-2" d="M178.31,2a2.39,2.39,0,0,1,2.38,2.38v111.7a2.39,2.39,0,0,1-2.38,2.38H13.07a2.39,2.39,0,0,1-2.38-2.38V4.38A2.39,2.39,0,0,1,13.07,2H178.31m0-2H13.07A4.38,4.38,0,0,0,8.69,4.38v111.7a4.38,4.38,0,0,0,4.38,4.38H178.31a4.38,4.38,0,0,0,4.38-4.38V4.38A4.38,4.38,0,0,0,178.31,0Z"/>
      <path class="cls-3" d="M2,119.35H187.9a0,0,0,0,1,0,0v3.15a8,8,0,0,1-8,8H10a8,8,0,0,1-8-8v-3.15a0,0,0,0,1,0,0Z"/>
      <line class="cls-4" x1="83.05" y1="120.46" x2="109.82" y2="120.46"/>
      <path class="cls-5" d="M69,81.91,92.5,95.06a9,9,0,0,0,8.79,0l23.5-13.15a9,9,0,0,0,4.61-7.85V48.24a9,9,0,0,0-4.61-7.85l-23.5-13.15a9,9,0,0,0-8.79,0L69,40.39a9,9,0,0,0-4.6,7.85V74.06A9,9,0,0,0,69,81.91Z"/>
      <text class="cls-6" transform="translate(229.4 62.52) scale(0.87 1)">Mou<tspan class="cls-7" x="137.82" y="0">n</tspan><tspan x="179.64" y="0">d Ci</tspan><tspan class="cls-8" x="300.17" y="0">t</tspan><tspan x="325.68" y="0">y </tspan><tspan class="cls-9"><tspan x="0" y="57.6">D</tspan><tspan class="cls-10" x="39.65" y="57.6">e</tspan><tspan class="cls-11" x="67.87" y="57.6">v</tspan><tspan x="92.5" y="57.6">elope</tspan><tspan class="cls-12" x="224.59" y="57.6">r</tspan><tspan x="243.31" y="57.6">s</tspan></tspan></text>
      <text class="cls-13" transform="translate(79.75 69.79)">&lt;/&gt;</text>
    </g>
  </g>
</svg>