<svg width="187" height="98" viewBox="0 0 187 98" fill="none" xmlns="http://www.w3.org/2000/svg">
<path d="M151.888 0C115.333 0 105.842 30.5444 72.1791 40.7589C54.2902 46.1868 46.1004 65.5511 65.7809 70.5773C76.0773 73.2078 88.5916 70.4854 99.2648 72.4746C112.22 74.8945 124.512 82.5245 137.335 86.2295C150.158 89.9344 164.443 88.7801 174.684 76.4287C193.539 53.6838 183.695 0 151.888 0Z" fill="#D4EEFF"/>
<g style="mix-blend-mode:multiply">
<path style="mix-blend-mode:multiply" d="M138.117 54.6809C121.353 54.6809 102.306 52.0794 88.5339 55.1648C63.9234 60.6605 41.0428 62.5988 16.8298 62.7319C-1.6893 62.8336 -8.15543 76.327 14.2001 75.8672C26.7617 75.6107 40.6206 74.5968 54.4487 75.6252C72.2368 76.9538 87.9532 80.7869 108.076 82.5753C138.29 85.2614 153.259 82.9044 172.75 75.3155C197.649 65.5923 188.613 54.6809 138.117 54.6809Z" fill="url(#paint0_linear)"/>
</g>
<path d="M171.255 11.1895L115.037 12.8035C114.753 12.8053 114.478 12.9219 114.258 13.1339C114.039 13.346 113.888 13.6403 113.832 13.9675L104.751 67.1767L160.094 68.8464C160.997 68.8726 161.879 68.5226 162.584 67.8583C163.288 67.194 163.771 66.2583 163.945 65.2165L173.201 13.7183C173.345 12.8277 173.168 11.1895 171.255 11.1895Z" fill="#143549"/>
<path d="M171.022 11.1895H114.473C114.189 11.1918 113.914 11.3091 113.695 11.5216C113.476 11.734 113.326 12.0286 113.27 12.3559L103.179 67.9075C103.136 68.1459 103.137 68.3928 103.183 68.6305C103.229 68.8683 103.32 69.0912 103.447 69.2835C103.575 69.4758 103.737 69.6328 103.922 69.7434C104.107 69.8539 104.311 69.9154 104.518 69.9233H157.176C160.059 69.9233 162.493 67.5736 163.119 64.1784L172.365 13.1931C172.407 12.9552 172.404 12.7095 172.356 12.473C172.309 12.2366 172.218 12.0152 172.09 11.8244C171.962 11.6335 171.8 11.4778 171.616 11.3681C171.432 11.2585 171.229 11.1975 171.022 11.1895Z" fill="#346790"/>
<path d="M105.879 64.2901H161.21L170.493 13.8496H115.16L105.879 64.2901Z" fill="#387BFE"/>
<path d="M54.1728 67.0273C54.1728 67.0782 54.1728 67.129 54.1728 67.1774C54.1628 67.9221 54.4038 68.6412 54.8432 69.1779C55.2826 69.7147 55.8847 70.0255 56.5183 70.0427H111.717C112.351 70.0261 112.953 69.7155 113.393 69.1786C113.832 68.6417 114.073 67.9223 114.063 67.1774C114.063 67.129 114.063 67.0782 114.063 67.0273H54.1728Z" fill="white"/>
<path d="M107.768 67.0273C107.768 67.0782 107.768 67.129 107.768 67.1774C107.758 67.9225 107.999 68.6419 108.439 69.1788C108.878 69.7156 109.481 70.0261 110.115 70.0427H159.703C160.336 70.0255 160.938 69.7147 161.378 69.1779C161.817 68.6412 162.058 67.9221 162.048 67.1774C162.048 67.129 162.048 67.0782 162.048 67.0273H107.768Z" fill="#143549"/>
<path d="M150.64 67.8618H148.07C147.764 67.8618 147.516 68.1533 147.516 68.5128V68.5588C147.516 68.9184 147.764 69.2098 148.07 69.2098H150.64C150.945 69.2098 151.193 68.9184 151.193 68.5588V68.5128C151.193 68.1533 150.945 67.8618 150.64 67.8618Z" fill="#346790"/>
<path d="M145.531 67.8618H143.972C143.666 67.8618 143.418 68.1533 143.418 68.5128V68.5588C143.418 68.9184 143.666 69.2098 143.972 69.2098H145.531C145.837 69.2098 146.085 68.9184 146.085 68.5588V68.5128C146.085 68.1533 145.837 67.8618 145.531 67.8618Z" fill="#346790"/>
<g style="mix-blend-mode:screen" opacity="0.3">
<path d="M127.09 67.0274H134.413L164.863 11.1875H157.54L127.09 67.0274Z" fill="#D1D9E8"/>
</g>
<g opacity="0.55">
<g opacity="0.55">
<path opacity="0.55" d="M104.765 96.2524H151.916L164.921 24.0977H117.769L104.765 96.2524Z" fill="#346790"/>
<path opacity="0.55" d="M104.539 97.5113H151.69L154.717 80.7144H107.566L104.539 97.5113Z" fill="#3A7CFF"/>
<path opacity="0.55" d="M110.665 63.5137H157.816L160.475 48.7666H113.324L110.665 63.5137Z" fill="#143549"/>
<path opacity="0.55" d="M136.266 57.2772H154.777L155.745 51.9028H137.234L136.266 57.2772Z" fill="#346790"/>
<path opacity="0.55" d="M117.014 28.2892H164.204L166.727 13.8496H119.577L117.014 28.2892Z" fill="#7BC3F4"/>
<path opacity="0.55" d="M121.892 23.6045H160.977L161.863 18.5371H122.792L121.892 23.6045Z" fill="#387BFE"/>
<path opacity="0.55" d="M158.051 20.2577L158.518 20.9764L157.833 21.5572L158.076 21.9903L159.165 20.9982L158.475 19.8608L158.051 20.2577Z" fill="white"/>
<path opacity="0.55" d="M125.831 19.8608L124.742 20.853L125.432 21.9903L125.856 21.5935L125.389 20.8748L126.074 20.294L125.831 19.8608Z" fill="white"/>
<path opacity="0.55" d="M140.088 26.513H142.289L142.551 25.0562H140.349L140.088 26.513Z" fill="#8ED1FF"/>
<path opacity="0.55" d="M148.166 16.5813H137.51C137.366 16.5889 137.228 16.651 137.117 16.7583C137.005 16.8656 136.926 17.0123 136.892 17.1766L135.656 24.0371C135.627 24.1605 135.624 24.2902 135.645 24.4156C135.667 24.541 135.714 24.6586 135.782 24.7587C135.85 24.8588 135.937 24.9385 136.036 24.9915C136.135 25.0444 136.244 25.069 136.352 25.0632H146.262C146.51 25.0515 146.749 24.9451 146.941 24.76C147.134 24.5748 147.269 24.3211 147.328 24.0371L148.564 17.1766C148.581 17.1056 148.583 17.031 148.571 16.9588C148.559 16.8865 148.532 16.8187 148.493 16.7607C148.455 16.7028 148.405 16.6563 148.348 16.6252C148.291 16.594 148.229 16.579 148.166 16.5813ZM146.855 23.8605H136.198L137.407 17.1718H148.064L146.855 23.8605Z" fill="white"/>
<path opacity="0.55" d="M144.073 26.1328H138.354C138.282 26.1349 138.213 26.165 138.157 26.2184C138.101 26.2717 138.062 26.3454 138.045 26.4278C138.036 26.4703 138.035 26.5148 138.043 26.5577C138.051 26.6006 138.067 26.6407 138.091 26.675C138.114 26.7092 138.144 26.7366 138.178 26.755C138.212 26.7734 138.249 26.7822 138.286 26.7808H143.996C144.069 26.7788 144.138 26.7487 144.194 26.6953C144.25 26.6419 144.289 26.5682 144.305 26.4858C144.314 26.4442 144.315 26.4007 144.307 26.3588C144.299 26.3168 144.284 26.2774 144.261 26.2435C144.239 26.2095 144.211 26.182 144.178 26.1628C144.145 26.1437 144.109 26.1334 144.073 26.1328Z" fill="white"/>
<path opacity="0.55" d="M136.198 23.8562H146.855L148.059 17.1724H137.403L136.198 23.8562Z" fill="#FEC230"/>
<path opacity="0.55" d="M116.155 33.0592H163.304L164.161 28.3091H117.012L116.155 33.0592Z" fill="#143549"/>
<path opacity="0.55" d="M142.335 76.383H151.082L152.544 68.2837H143.795L142.335 76.383Z" fill="white"/>
<path opacity="0.55" d="M122.938 76.383H131.686L133.146 68.2837H124.396L122.938 76.383Z" fill="white"/>
<path opacity="0.55" d="M113.122 76.383H121.869L123.329 68.2837H114.582L113.122 76.383Z" fill="white"/>
<path opacity="0.55" d="M132.635 76.342H141.383L142.843 68.2427H134.095L132.635 76.342Z" fill="white"/>
<path opacity="0.55" d="M132.635 76.342H141.383L142.843 68.2427H134.095L132.635 76.342Z" fill="#143549"/>
<path opacity="0.55" d="M137.957 71.0831C137.664 71.0966 137.383 71.2221 137.156 71.4405C136.929 71.6589 136.769 71.9582 136.7 72.2931C136.666 72.4389 136.661 72.5923 136.686 72.7407C136.712 72.8892 136.767 73.0283 136.848 73.1465C136.928 73.2648 137.032 73.3588 137.149 73.4208C137.267 73.4828 137.395 73.511 137.524 73.503C137.817 73.4896 138.099 73.3642 138.326 73.1459C138.553 72.9275 138.713 72.6281 138.782 72.2931C138.814 72.1473 138.817 71.9947 138.79 71.8475C138.763 71.7002 138.708 71.5624 138.628 71.4449C138.547 71.3274 138.445 71.2335 138.328 71.1707C138.212 71.1079 138.085 71.0779 137.957 71.0831ZM138.187 72.4262H137.831L137.757 72.84H137.524L137.598 72.4262H137.244L137.291 72.1575H137.648L137.722 71.7437H137.955L137.88 72.1575H138.23L138.187 72.4262Z" fill="white"/>
<path opacity="0.55" d="M130.704 82.7251C129.178 82.7251 127.683 84.1626 127.364 85.934C127.044 87.7055 128.023 89.1429 129.546 89.1429C131.07 89.1429 132.565 87.7055 132.885 85.934C133.204 84.1626 132.228 82.7251 130.704 82.7251Z" fill="#7BC3F4"/>
<path opacity="0.55" d="M145.277 82.7251C143.753 82.7251 142.258 84.1626 141.939 85.934C141.62 87.7055 142.596 89.1429 144.122 89.1429C145.648 89.1429 147.141 87.7055 147.46 85.934C147.779 84.1626 146.803 82.7251 145.277 82.7251Z" fill="#7BC3F4"/>
<path opacity="0.55" d="M129.641 87.0441H129.934L129.944 86.9893H129.652L129.641 87.0441Z" fill="#3A7CFF"/>
<path opacity="0.55" d="M140.72 59.0413H136.727C136.513 59.0509 136.308 59.1421 136.142 59.301C135.977 59.46 135.86 59.6781 135.809 59.9222C135.783 60.0287 135.78 60.1407 135.799 60.2489C135.818 60.3572 135.858 60.4587 135.917 60.5449C135.976 60.6312 136.051 60.6999 136.137 60.7452C136.222 60.7905 136.316 60.8113 136.41 60.8057H140.403C140.617 60.7954 140.822 60.7036 140.987 60.5442C141.152 60.3848 141.269 60.1665 141.319 59.9222C141.344 59.8162 141.347 59.7047 141.328 59.5969C141.309 59.4892 141.269 59.3882 141.211 59.3023C141.152 59.2164 141.077 59.1479 140.992 59.1026C140.907 59.0572 140.814 59.0362 140.72 59.0413Z" fill="#3A7CFF"/>
<path opacity="0.55" d="M118.546 61.7105H132.934L134.938 50.5981H120.547L118.546 61.7105Z" fill="white"/>
<path opacity="0.55" d="M127.329 53.979C126.743 54.0045 126.181 54.255 125.728 54.6921C125.276 55.1293 124.957 55.7288 124.823 56.3989C124.582 57.7298 125.315 58.8188 126.47 58.8188C127.055 58.7933 127.618 58.5428 128.07 58.1057C128.523 57.6685 128.841 57.069 128.976 56.3989C129.209 55.0583 128.474 53.979 127.329 53.979Z" fill="#4AF6D1"/>
<path opacity="0.55" d="M127.728 56.2367L126.698 55.5349C126.67 55.5159 126.639 55.5056 126.607 55.5049C126.574 55.5043 126.542 55.5134 126.514 55.5313C126.485 55.5493 126.461 55.5755 126.444 55.6074C126.426 55.6394 126.416 55.6761 126.414 55.714L126.171 57.0667C126.138 57.2482 126.237 57.3281 126.392 57.2434L127.677 56.5416C127.831 56.4593 127.856 56.3214 127.728 56.2367Z" fill="#143549"/>
<path opacity="0.55" d="M120.378 46.3632H125.432L125.588 45.4927H120.535L120.378 46.3632Z" fill="#8ED1FF"/>
<path opacity="0.55" d="M121.293 47.6432H124.054L124.211 46.77H121.451L121.293 47.6432Z" fill="#8ED1FF"/>
<path opacity="0.55" d="M130.142 46.3632H135.193L135.352 45.4927H130.298L130.142 46.3632Z" fill="#8ED1FF"/>
<path opacity="0.55" d="M131.056 47.6432H133.817L133.974 46.77H131.214L131.056 47.6432Z" fill="#8ED1FF"/>
<path opacity="0.55" d="M139.905 46.3632H144.956L145.112 45.4927H140.061L139.905 46.3632Z" fill="#8ED1FF"/>
<path opacity="0.55" d="M140.819 47.6432H143.58L143.737 46.77H140.975L140.819 47.6432Z" fill="#8ED1FF"/>
<path opacity="0.55" d="M149.668 46.3632H154.719L154.878 45.4927H149.824L149.668 46.3632Z" fill="#8ED1FF"/>
<path opacity="0.55" d="M150.582 47.6432H153.344L153.5 46.77H150.739L150.582 47.6432Z" fill="#8ED1FF"/>
<path opacity="0.55" d="M111.147 93.7189H117.613L117.815 92.603H111.349L111.147 93.7189Z" fill="#8ED1FF"/>
<path opacity="0.55" d="M112.319 95.3571H115.852L116.052 94.2417H112.52L112.319 95.3571Z" fill="#8ED1FF"/>
<path opacity="0.55" d="M125.496 93.7189H131.962L132.162 92.603H125.695L125.496 93.7189Z" fill="#8ED1FF"/>
<path opacity="0.55" d="M126.665 95.3571H130.199L130.401 94.2417H126.867L126.665 95.3571Z" fill="#8ED1FF"/>
<path opacity="0.55" d="M139.843 93.7189H146.309L146.511 92.603H140.045L139.843 93.7189Z" fill="#8ED1FF"/>
<path opacity="0.55" d="M141.015 95.3571H144.548L144.748 94.2417H141.216L141.015 95.3571Z" fill="#8ED1FF"/>
<path opacity="0.55" d="M134.48 34.954C132.341 34.954 130.317 36.89 129.868 39.3801C129.753 39.958 129.748 40.5588 129.855 41.1389C129.962 41.719 130.177 42.2639 130.485 42.7341C130.805 43.1873 131.208 43.549 131.664 43.7918C132.12 44.0346 132.617 44.152 133.117 44.1353C135.257 44.1353 137.281 42.1993 137.728 39.7092C137.845 39.1322 137.851 38.5318 137.746 37.9516C137.641 37.3715 137.427 36.8261 137.12 36.3552C136.8 35.9007 136.396 35.5382 135.939 35.2954C135.481 35.0525 134.982 34.9358 134.48 34.954Z" fill="#143549"/>
<path opacity="0.55" d="M144.19 34.9537C142.052 34.9537 140.026 36.8897 139.577 39.3797C139.462 39.9576 139.458 40.5584 139.565 41.1385C139.671 41.7186 139.887 42.2635 140.195 42.7337C140.514 43.1869 140.917 43.5486 141.373 43.7913C141.829 44.0341 142.326 44.1516 142.827 44.1348C144.966 44.1348 146.991 42.1989 147.439 39.7088C147.555 39.1309 147.559 38.5302 147.452 37.9501C147.345 37.37 147.13 36.8251 146.822 36.3549C146.502 35.9017 146.099 35.54 145.643 35.2972C145.187 35.0544 144.69 34.937 144.19 34.9537Z" fill="#143549"/>
<path opacity="0.55" d="M154.247 34.9537C152.11 34.9537 150.084 36.8897 149.637 39.3798C149.521 39.9576 149.516 40.5586 149.623 41.1388C149.73 41.7191 149.946 42.264 150.255 42.7338C150.574 43.1866 150.976 43.5481 151.432 43.7909C151.887 44.0336 152.384 44.1513 152.884 44.1349C155.024 44.1349 157.05 42.199 157.497 39.7064C157.612 39.1289 157.616 38.5286 157.509 37.9489C157.402 37.3692 157.187 36.8248 156.879 36.3549C156.56 35.9017 156.157 35.54 155.701 35.2972C155.245 35.0544 154.748 34.937 154.247 34.9537Z" fill="#143549"/>
<path opacity="0.55" d="M124.481 34.9537C122.341 34.9537 120.315 36.8896 119.868 39.3797C119.753 39.9576 119.748 40.5584 119.855 41.1385C119.962 41.7185 120.177 42.2634 120.486 42.7337C120.805 43.1869 121.208 43.5486 121.664 43.7913C122.12 44.0341 122.617 44.1516 123.117 44.1348C125.255 44.1348 127.281 42.1989 127.728 39.7088C127.844 39.131 127.849 38.53 127.742 37.9497C127.635 37.3694 127.419 36.8245 127.11 36.3548C126.791 35.902 126.389 35.5405 125.933 35.2977C125.477 35.0549 124.981 34.9373 124.481 34.9537Z" fill="#143549"/>
<path opacity="0.55" d="M116.206 82.7251C114.682 82.7251 113.187 84.1626 112.868 85.934C112.549 87.7055 113.527 89.1429 115.051 89.1429C116.575 89.1429 118.07 87.7055 118.389 85.934C118.708 84.1626 117.732 82.7251 116.206 82.7251Z" fill="#7BC3F4"/>
</g>
</g>
<g style="mix-blend-mode:multiply" opacity="0.6">
<g style="mix-blend-mode:multiply" opacity="0.6">
<path d="M115.354 49.5243H125.86L126.429 46.7897H118.713L119.631 42.3708H126.565L127.135 39.6362H120.199L120.947 36.0377H128.4L128.972 33.291H118.729L115.354 49.5243Z" fill="#143549"/>
</g>
<g style="mix-blend-mode:multiply" opacity="0.6">
<path d="M145.156 26.382C144.384 26.2091 143.6 26.1217 142.814 26.1206C142.04 26.1223 141.267 26.2033 140.504 26.3626C134.546 27.5726 129.466 33.482 128.422 40.4151C127.246 48.2048 131.223 55.104 137.689 56.4688C138.416 56.6223 139.152 56.7032 139.89 56.7108H139.903C140.638 56.7095 141.372 56.6383 142.098 56.4979C148.113 55.3363 153.243 49.4172 154.297 42.4188C155.448 34.6871 151.523 27.7976 145.156 26.382Z" fill="#143549"/>
</g>
<g style="mix-blend-mode:multiply" opacity="0.6">
<path d="M113.313 40.5556C112.748 40.1507 111.825 39.7611 110.546 39.3868L110.216 39.2876L109.598 42.6997C110.181 42.8908 110.572 43.0264 110.776 43.1183C111.215 43.3192 111.501 43.5515 111.637 43.8225C111.771 44.1202 111.8 44.4675 111.719 44.7905C111.563 45.4428 111.203 46.0014 110.71 46.3537C110.144 46.7829 109.485 47.013 108.812 47.0168L108.307 49.7852C109.248 49.7721 110.181 49.5741 111.067 49.1996C111.93 48.8248 112.7 48.2026 113.307 47.3895C113.884 46.648 114.298 45.7514 114.512 44.7784C114.718 43.7548 114.718 42.8909 114.497 42.1939C114.273 41.5055 113.855 40.9276 113.313 40.5556Z" fill="#143549"/>
</g>
<g style="mix-blend-mode:multiply" opacity="0.6">
<path d="M111.347 33.0122L110.852 35.7297C111.536 35.7539 112.026 35.9354 112.319 36.2694C112.611 36.6033 112.765 37.2373 112.71 38.0698L115.531 37.9246C115.796 36.4339 115.584 35.2417 114.895 34.348C114.213 33.472 113.033 33.0364 111.347 33.0122Z" fill="#143549"/>
</g>
</g>
<path d="M112.776 46.4941H123.282L123.851 43.7596H116.134L117.053 39.3408H123.986L124.555 36.6063H117.621L118.369 33.0078H125.823L126.394 30.2612H116.151L112.776 46.4941Z" fill="#FEC230"/>
<path d="M142.578 23.3576C141.806 23.1868 141.022 23.1001 140.236 23.0986C139.461 23.1003 138.688 23.1813 137.926 23.3406C131.968 24.5506 126.886 30.46 125.844 37.3931C124.668 45.1828 128.644 52.082 135.098 53.4469C135.826 53.6002 136.563 53.6811 137.302 53.6889H137.314C138.049 53.6874 138.784 53.6162 139.509 53.4759C145.524 52.3144 150.654 46.3952 151.708 39.3968C152.87 31.6579 148.939 24.7684 142.578 23.3576Z" fill="white"/>
<path d="M108.68 29.9803C107.712 29.9614 106.75 30.1526 105.842 30.5441C105.054 30.8922 104.348 31.4563 103.783 32.1897C103.265 32.8453 102.893 33.6419 102.702 34.508C102.435 35.7986 102.633 36.8876 103.295 37.7749C103.766 38.4089 104.703 38.9437 106.108 39.3793C107.199 39.7213 107.895 39.9576 108.194 40.0883C108.63 40.2892 108.915 40.5215 109.05 40.7925C109.119 40.941 109.162 41.1042 109.177 41.2725C109.191 41.4408 109.177 41.6109 109.135 41.7726C108.976 42.424 108.617 42.9824 108.126 43.3383C107.577 43.7852 106.853 44.0086 105.955 44.0086C105.107 44.0086 104.489 43.7577 104.102 43.256C103.707 42.7526 103.54 41.9686 103.598 40.8966L100.82 41.2063C100.623 43.0229 100.898 44.4055 101.643 45.3541C102.389 46.3027 103.631 46.777 105.371 46.777C106.435 46.8031 107.495 46.6023 108.499 46.1841C109.363 45.8092 110.133 45.187 110.741 44.374C111.318 43.6314 111.731 42.7341 111.944 41.7605C112.158 40.7344 112.154 39.8729 111.931 39.176C111.712 38.4811 111.293 37.8976 110.747 37.5256C110.182 37.1239 109.259 36.7343 107.98 36.3568C106.7 35.9793 105.921 35.6179 105.642 35.2727C105.537 35.1447 105.462 34.9861 105.426 34.813C105.39 34.6399 105.393 34.4586 105.436 34.2877C105.481 34.0768 105.562 33.8787 105.674 33.7057C105.785 33.5326 105.926 33.3881 106.087 33.2811C106.702 32.866 107.405 32.6622 108.114 32.693C108.897 32.693 109.447 32.8753 109.761 33.2399C110.075 33.6045 110.207 34.2047 110.156 35.0404L112.973 34.8951C113.241 33.4045 113.029 32.2131 112.337 31.3209C111.645 30.4288 110.426 29.9819 108.68 29.9803Z" fill="#FEC230"/>
<path d="M142.168 25.8863C141.531 25.7425 140.884 25.6704 140.236 25.6709C139.586 25.6707 138.938 25.7371 138.298 25.8693C133.222 26.9002 128.892 31.9191 128.002 37.831C127.044 44.176 130.267 49.7902 135.481 50.8986C136.082 51.023 136.69 51.0877 137.3 51.0922H137.312C137.929 51.0909 138.544 51.0311 139.153 50.9131C144.278 49.9233 148.648 44.8851 149.546 38.9296C150.493 32.6378 147.322 27.0333 142.168 25.8863Z" fill="#FEC230"/>
<path d="M141.69 28.8408C141.211 28.7333 140.724 28.679 140.236 28.6787C139.733 28.6793 139.231 28.7311 138.735 28.8336C134.761 29.6394 131.243 33.5911 130.525 38.3559C129.806 43.1207 132.172 47.1354 135.932 47.9315C136.388 48.0269 136.851 48.0763 137.314 48.0791C137.792 48.0786 138.268 48.0317 138.739 47.9388C142.746 47.1668 146.305 43.1958 147.026 38.4019C147.746 33.6081 145.417 29.6709 141.69 28.8408Z" fill="white"/>
<path d="M140.461 31.8681C140.127 31.7945 139.789 31.7572 139.45 31.7568C139.114 31.7566 138.778 31.7906 138.447 31.8585C137.143 32.1349 135.941 32.869 134.999 33.964C134.057 35.0591 133.42 36.4638 133.171 37.993C132.671 41.3446 134.374 44.3138 137.147 44.8946C137.458 44.9581 137.772 44.9913 138.086 44.9938H138.101C138.42 44.9932 138.739 44.9624 139.054 44.9018C141.682 44.3937 143.92 41.8092 144.382 38.7552C144.882 35.4424 143.196 32.478 140.461 31.8681Z" fill="#FEC230"/>
<path d="M139.983 34.8256C139.807 34.7849 139.629 34.7647 139.45 34.7651C139.259 34.7654 139.069 34.7848 138.881 34.8232C137.333 35.1378 135.961 36.7277 135.691 38.5184C135.432 40.2414 136.215 41.6473 137.592 41.9377C137.761 41.9733 137.933 41.992 138.105 41.9934C138.284 41.9921 138.463 41.9742 138.64 41.9401C139.428 41.7654 140.154 41.3209 140.727 40.6626C141.3 40.0042 141.695 39.1614 141.861 38.2401C142.116 36.5317 141.346 35.1281 139.983 34.8256Z" fill="white"/>
<path d="M138.972 37.8001C138.943 37.7965 138.914 37.7965 138.885 37.8001C138.855 37.7965 138.824 37.7965 138.793 37.8001C138.665 37.8294 138.548 37.9022 138.455 38.0094C138.363 38.1165 138.299 38.2532 138.272 38.4026C138.259 38.4633 138.257 38.5265 138.266 38.5882C138.275 38.6499 138.294 38.7088 138.323 38.7611C138.353 38.8134 138.391 38.858 138.435 38.8921C138.48 38.9262 138.53 38.9491 138.583 38.9592C138.611 38.9629 138.639 38.9629 138.667 38.9592C138.696 38.9627 138.725 38.9627 138.754 38.9592C138.882 38.931 139 38.8587 139.094 38.7515C139.187 38.6442 139.252 38.5068 139.279 38.3567C139.292 38.2963 139.294 38.2335 139.285 38.1721C139.277 38.1106 139.257 38.052 139.229 37.9998C139.2 37.9475 139.162 37.9028 139.118 37.8685C139.074 37.8341 139.024 37.8108 138.972 37.8001Z" fill="#FEC230"/>
<path fill-rule="evenodd" clip-rule="evenodd" d="M77.6485 27.2775C77.3221 27.3274 77.0251 27.5252 76.821 27.8287C76.6169 28.1322 76.5218 28.5174 76.5559 28.9022C76.59 29.2869 76.7507 29.6408 77.0036 29.8883C77.2566 30.1359 77.5818 30.2575 77.91 30.2273C79.4133 30.0482 81.7609 29.6151 83.223 28.7972L82.9573 26.9678C82.2407 27.113 79.9878 26.9871 77.6485 27.2775Z" fill="#3BC3A6"/>
<path fill-rule="evenodd" clip-rule="evenodd" d="M87.6999 21.6418C87.7214 21.5999 87.7353 21.553 87.7405 21.5043C87.7458 21.4557 87.7422 21.4062 87.7302 21.3593C87.7182 21.3123 87.6979 21.2688 87.6707 21.2316C87.6434 21.1944 87.6099 21.1643 87.5722 21.1433C87.6669 20.9546 87.5248 20.8191 87.3807 20.7997C87.5372 20.4972 87.6463 20.2334 87.4177 20.1584C87.3065 20.1221 86.9194 20.9376 86.7464 21.2159C86.454 21.683 86.244 21.3103 86.0442 21.7362C85.828 22.2009 85.9062 22.5687 85.9206 22.9922C85.9206 23.2753 85.795 23.4423 85.6921 23.6553C85.2452 24.57 83.7481 25.9494 82.5084 27.2852C82.0842 27.7402 82.5455 28.8969 82.98 28.8727C84.0735 28.8074 85.9309 25.2549 86.6702 24.1054C87.2324 23.2269 87.4774 22.6534 87.6999 22.3267C87.9223 22 87.914 21.7919 87.6999 21.6418Z" fill="#E8D7B9"/>
<path fill-rule="evenodd" clip-rule="evenodd" d="M87.6998 21.6418C87.7214 21.5999 87.7353 21.553 87.7405 21.5043C87.7457 21.4557 87.7422 21.4062 87.7302 21.3593C87.7182 21.3123 87.6979 21.2688 87.6707 21.2316C87.6434 21.1944 87.6099 21.1643 87.5722 21.1433C87.6669 20.9546 87.5248 20.8191 87.3807 20.7997C87.5372 20.4972 87.6463 20.2334 87.4177 20.1584C87.3065 20.1221 86.9194 20.9376 86.7464 21.2159C86.6249 21.4095 86.4293 22.121 86.9235 22.5009C87.2324 22.7429 87.6113 22.438 87.6916 22.317C87.8914 22.0194 87.914 21.7919 87.6998 21.6418Z" fill="#F0BF97"/>
<path fill-rule="evenodd" clip-rule="evenodd" d="M85.5521 23.5129C85.1011 24.4276 83.4537 25.9111 82.2037 27.23C81.7774 27.685 82.4734 28.9797 82.9079 28.9555C83.9932 28.8901 86.0484 25.5118 86.7979 24.3332C86.4664 24.2147 85.8733 23.6484 85.6345 23.3652C85.6056 23.4161 85.5768 23.462 85.5521 23.5129Z" fill="#3BC3A6"/>
<path fill-rule="evenodd" clip-rule="evenodd" d="M86.1019 24.9452C85.2143 25.8018 83.7007 27.3481 82.875 28.0668C81.9071 28.9089 81.0484 28.6959 79.9467 28.8629C78.7832 29.0396 77.9018 29.8115 76.8228 29.7171C77.1131 30.218 77.5147 30.2737 77.9101 30.2277C79.3104 30.0632 81.4397 29.6736 82.9059 28.9621C83.7975 28.9089 85.342 26.6197 86.2831 25.1508C86.3003 25.1216 86.3081 25.0861 86.3051 25.0507C86.3021 25.0153 86.2885 24.9823 86.2667 24.9576C86.245 24.9329 86.2164 24.9181 86.1862 24.9158C86.156 24.9136 86.1261 24.9239 86.1019 24.9452Z" fill="#4AF6D1"/>
<path fill-rule="evenodd" clip-rule="evenodd" d="M86.3366 20.3179C86.2684 20.6233 86.1681 20.9176 86.038 21.1939L85.9165 22.232L86.3284 21.9102C86.4199 21.6626 86.443 21.3875 86.3943 21.1237C86.5425 20.7897 86.5157 20.4921 86.3366 20.3179Z" fill="#E8D7B9"/>
<path d="M75.1528 15.5269L75.0139 15.9229L99.9321 27.9921L100.071 27.5961L75.1528 15.5269Z" fill="#143549"/>
<path d="M74.4133 13.9561C74.5061 14.5667 74.7007 15.1499 74.9858 15.6719L76.9957 16.64C76.661 16.124 76.4358 15.5217 76.3388 14.883L74.4133 13.9561Z" fill="#387BFE"/>
<path d="M73.5568 16.4172L75.476 17.3465C75.9299 16.9783 76.45 16.7382 76.9958 16.6447L74.9859 15.6768C74.472 15.8082 73.986 16.0601 73.5568 16.4172Z" fill="#387BFE"/>
<path d="M76.1885 14.8149C76.2795 15.4262 76.4741 16.0097 76.7609 16.5307C76.2424 16.6617 75.752 16.9153 75.3195 17.276L75.5769 17.3994C76.0314 17.0326 76.5512 16.7926 77.0966 16.6977C76.762 16.1816 76.5368 15.5794 76.4397 14.9408L76.1885 14.8149Z" fill="#143549"/>
<path d="M75.5646 14.5122C75.6571 15.123 75.8516 15.7061 76.1371 16.228C75.6187 16.3596 75.1284 16.6131 74.6956 16.9733L74.955 17.0991C75.4089 16.731 75.929 16.4908 76.4748 16.3973C76.1475 15.8803 75.9281 15.2802 75.8343 14.6453L75.5646 14.5122Z" fill="#143549"/>
<path d="M74.9427 14.21C75.0343 14.8211 75.2289 15.4045 75.5152 15.9259C74.9965 16.0577 74.5061 16.3122 74.0737 16.6737L74.3311 16.7972C74.7858 16.4307 75.3056 16.1907 75.8509 16.0953C75.5163 15.5792 75.2911 14.9769 75.194 14.3382L74.9427 14.21Z" fill="#143549"/>
<path d="M74.3187 13.9199C74.4119 14.5305 74.6064 15.1135 74.8912 15.6358C74.3764 15.769 73.8897 16.0224 73.46 16.3812L73.7194 16.507C74.1732 16.138 74.6933 15.897 75.2392 15.8028C74.9038 15.2872 74.6786 14.6847 74.5823 14.0458L74.3187 13.9199Z" fill="#143549"/>
<path d="M99.6436 27.6095L98.752 28.6428L101.713 28.6137L99.6292 26.1406L99.6436 27.6095Z" fill="#143549"/>
<path d="M77.4075 25.0518C77.7452 24.3936 76.9133 23.9266 76.2955 23.6362C75.931 23.4644 75.5583 23.312 75.1814 23.1813C75.1114 23.1571 75.027 23.1353 74.9755 23.1958C74.924 23.2563 74.9487 23.3942 74.9899 23.4862C75.2741 24.1105 75.1567 26.2908 74.9405 27.1595C74.9261 27.2175 77.5208 27.6701 77.5208 27.6701C77.5208 27.6701 76.9915 25.8576 77.4075 25.0518Z" fill="#E8D7B9"/>
<path d="M76.6065 23.8995C76.2914 23.7567 75.5048 23.2872 75.1815 23.1735C75.1115 23.1493 75.0271 23.1275 74.9756 23.188C74.9241 23.2485 74.9488 23.3864 74.99 23.4784C75.2742 24.1028 75.1568 26.2831 74.9406 27.1519C74.9406 27.1906 76.1761 27.4229 76.9422 27.5585C76.588 26.9341 76.3635 24.8408 76.6065 23.8995Z" fill="#F0BF97"/>
<path d="M78.4578 22.0432C78.0089 21.731 77.5662 20.884 77.4035 20.4097C76.9793 19.1804 75.4245 19.6838 74.9015 20.9954C74.6597 21.6899 74.6414 22.4641 74.85 23.1733C75.0786 24.0783 75.5728 24.9398 76.3121 25.3076C76.551 25.4262 77.7247 25.6755 78.0007 25.477C78.3858 25.2036 78.3734 23.2459 78.5587 22.7087C78.7173 22.2489 78.567 22.1206 78.4578 22.0432Z" fill="#E8D7B9"/>
<path d="M75.6283 23.8677C75.3306 23.4678 75.13 22.981 75.0478 22.4585C74.9655 21.936 75.0046 21.397 75.1609 20.8984C75.2633 20.5623 75.4311 20.259 75.651 20.0127C75.3237 20.2477 75.0613 20.5889 74.8952 20.9952C74.6534 21.6897 74.6351 22.464 74.8438 23.1732C75.0723 24.0782 75.5666 24.9398 76.3058 25.3076C76.5282 25.4189 77.5723 25.644 77.9306 25.5109C77.778 25.5029 77.6264 25.4786 77.4776 25.4383C76.7815 25.2423 76.0876 24.5163 75.6283 23.8677Z" fill="#F0BF97"/>
<path d="M76.0999 19.1924C73.5773 18.6625 73.0295 20.7218 73.081 22.2826C73.1325 23.8845 74.5225 25.2542 75.0929 25.4623C75.167 25.4913 76.2172 25.547 76.7959 24.0491C76.9112 23.749 76.9812 23.4514 76.8515 23.3667C76.3923 23.0642 76.2172 22.1834 76.4088 21.9608C76.7032 21.6171 76.8412 22.2027 77.0368 22.0237C77.2325 21.8446 77.4487 20.7823 77.183 20.2015C77.0738 19.9526 76.9207 19.7338 76.734 19.5598C76.5472 19.3859 76.331 19.2606 76.0999 19.1924Z" fill="#FEC230"/>
<path d="M74.7059 22.8928C74.7285 22.6508 74.8747 22.1063 74.9118 21.8595C75.1177 20.773 74.2817 19.8946 73.5115 20.4439C73.0523 20.7681 72.6878 22.6217 73.6803 24.0954C74.0448 24.6423 74.8088 25.4747 75.2186 25.4747C75.6284 25.4747 74.6173 23.9067 74.7059 22.8928Z" fill="#EE8800"/>
<path d="M72.978 20.0396C72.6088 20.0396 72.2547 20.2119 71.9937 20.5187C71.7326 20.8255 71.5859 21.2415 71.5859 21.6754C71.5859 22.1092 71.7326 22.5253 71.9937 22.8321C72.2547 23.1389 72.6088 23.3112 72.978 23.3112C73.7482 23.3112 74.0077 22.5853 74.0077 21.6754C74.0077 20.7655 73.7482 20.0396 72.978 20.0396Z" fill="#FEC230"/>
<path d="M85.1957 65.948C84.5255 65.6605 83.8942 65.2603 83.3218 64.7598C83.1517 64.5339 83.0644 64.2382 83.0788 63.937C82.8643 64.0454 82.6327 64.0991 82.3992 64.0943C82.1652 64.0927 81.9332 64.0436 81.7135 63.9491C81.6949 64.4065 81.7011 64.8687 81.6538 65.3212C81.6022 65.5367 81.6116 65.766 81.6805 65.9746C81.8061 66.2287 82.1089 66.2553 82.358 66.2602C82.9243 66.2602 83.4927 66.311 84.0569 66.3836C84.5429 66.4441 85.0454 66.5288 85.5108 66.3425C85.6055 66.3086 85.7167 66.219 85.6817 66.1005C85.5161 66.067 85.3535 66.016 85.1957 65.948Z" fill="#E8D7B9"/>
<path d="M85.1957 65.948C85.1808 65.9443 85.1663 65.9386 85.1525 65.9311C84.9419 65.9814 84.7267 66.0001 84.512 65.9867C83.5668 65.9311 82.6422 65.1737 82.3992 64.0944C82.1652 64.0928 81.9332 64.0437 81.7135 63.9492C81.6949 64.4066 81.7011 64.8688 81.6538 65.3213C81.6022 65.5367 81.6116 65.766 81.6805 65.9746C81.8061 66.2287 82.1089 66.2553 82.358 66.2602C82.9243 66.2602 83.4927 66.311 84.0569 66.3836C84.5429 66.4441 85.0454 66.5288 85.5108 66.3424C85.6055 66.3086 85.7167 66.219 85.6817 66.1005C85.5161 66.067 85.3535 66.016 85.1957 65.948Z" fill="#F0BF97"/>
<path d="M85.8095 66.0182C85.7107 65.9698 84.819 65.5899 84.3124 65.3818C84.123 65.3043 83.9768 65.6068 83.9768 65.7883C82.8236 65.7883 81.8228 64.8639 81.6642 65.0018C81.3718 65.2584 81.1453 66.057 81.7239 66.3643C81.8001 66.4055 81.9813 66.4297 82.5929 66.4345C83.1407 66.4345 83.6823 66.8072 84.0241 66.8096H85.8116C86.0031 66.8169 86.1308 66.1901 85.8095 66.0182Z" fill="#143549"/>
<path d="M85.5685 66.3469C84.8292 66.4848 83.989 66.2864 83.2539 66.1509C82.6096 66.0364 81.9917 65.7697 81.4376 65.3667C81.396 65.4531 81.3704 65.5489 81.3624 65.6477C81.3545 65.7466 81.3643 65.8463 81.3913 65.9404C81.4183 66.0345 81.4619 66.1208 81.5192 66.1937C81.5765 66.2667 81.6462 66.3247 81.7238 66.3638C81.8 66.405 81.9812 66.4292 82.5928 66.434C83.1406 66.434 83.6822 66.8067 84.024 66.8091H85.8115C85.9824 66.8091 86.0998 66.3106 85.9021 66.0831C85.8675 66.1543 85.8194 66.2151 85.7616 66.2609C85.7037 66.3066 85.6376 66.3361 85.5685 66.3469Z" fill="#FEC230"/>
<path d="M82.7206 66.4052L81.3944 65.9482L81.6745 66.7968H82.8009C82.745 66.6769 82.7173 66.5417 82.7206 66.4052Z" fill="#FEC230"/>
<path d="M82.1836 63.8159L82.1233 63.8563L82.1836 63.8159Z" fill="#D0AECF"/>
<path d="M76.2049 64.7599C75.8837 64.4163 75.9805 63.7484 75.9578 63.308C75.9311 62.8023 74.6502 63.2282 74.6399 63.308C74.5575 63.9735 74.609 64.6558 74.539 65.3261C74.4898 65.5414 74.5007 65.7695 74.5699 65.977C74.6976 66.2311 74.9961 66.2577 75.2494 66.2601C75.8164 66.2601 76.382 66.298 76.9463 66.3739C77.4323 66.4344 77.9389 66.5142 78.4001 66.3303C78.4949 66.294 78.6061 66.2021 78.571 66.0883C77.943 65.9891 76.5736 65.1543 76.2049 64.7599Z" fill="#E8D7B9"/>
<path d="M75.2041 63.2429C75.2226 63.1945 75.2432 63.1485 75.2638 63.1001C75.0483 63.1246 74.8386 63.1968 74.646 63.3131C74.5636 63.9785 74.6151 64.661 74.5451 65.3313C74.4959 65.5466 74.5068 65.7747 74.576 65.9823C74.7037 66.2363 75.0023 66.263 75.2555 66.2654C75.7807 66.2654 76.3058 66.3089 76.8309 66.367C75.7848 65.8032 74.6975 64.6852 75.2041 63.2429Z" fill="#F0BF97"/>
<path d="M78.6988 66.018C78.5979 65.9696 77.7062 65.5946 77.1996 65.3889C77.0102 65.3114 76.864 65.6163 76.864 65.7954C75.7128 65.7954 74.7079 64.8831 74.5493 65.021C74.259 65.2775 74.0325 66.0785 74.6132 66.3835C74.6894 66.4246 74.8706 66.4488 75.4822 66.4488C76.032 66.4488 76.5736 66.8166 76.9237 66.8166H78.7111C78.8944 66.8166 79.0221 66.1899 78.6988 66.018Z" fill="#143549"/>
<path d="M78.392 66.3133C78.0789 66.4114 77.7495 66.4114 77.4365 66.3133C77.2305 66.2455 75.9394 66.0713 75.5296 66.0374C75.2979 66.0308 75.0714 65.9557 74.8709 65.8191C74.6705 65.6826 74.5025 65.4888 74.3826 65.2559C74.2013 65.6019 74.156 66.1487 74.6132 66.3883C74.6894 66.4294 74.8706 66.4536 75.4822 66.4536C76.032 66.4536 76.5736 66.8214 76.9237 66.8214H78.7112C78.88 66.8214 78.9974 66.3374 78.8038 66.0955C78.6778 66.1944 78.5386 66.268 78.392 66.3133Z" fill="#FEC230"/>
<path d="M74.6441 50.2618C74.8088 53.3544 74.3022 54.2063 74.1725 55.9849C74.0428 57.7635 74.4278 64.6264 74.4278 64.6264C74.4278 64.6264 75.3689 64.9265 76.1412 64.6264C76.1412 64.6264 76.9113 56.2559 77.2573 54.5233C77.7762 51.917 78.7317 41.8478 78.7317 41.8478L74.0469 41.3638C74.0469 41.3638 74.4814 47.1691 74.6441 50.2618Z" fill="#143549"/>
<g style="mix-blend-mode:screen">
<path d="M74.6441 50.2618C74.8088 53.3545 74.3023 54.2063 74.1725 55.985C74.0428 57.7636 74.4279 64.6265 74.4279 64.6265C74.7164 64.7098 75.0121 64.7536 75.3092 64.7572C75.1383 62.2162 74.7471 59.8399 75.6676 57.7128C75.96 57.0376 76.0794 55.0751 76.0794 54.2668C76.0794 52.6406 75.6902 49.8698 76.2853 47.5685C76.516 46.69 76.5839 41.6566 76.5839 41.6566L74.051 41.3662C74.051 41.3662 74.4814 47.1692 74.6441 50.2618Z" fill="#143549"/>
</g>
<path d="M75.408 41.957C75.3404 42.3287 75.378 42.7162 75.5151 43.0605C75.8466 44.0067 78.9026 52.6192 78.8635 53.3815C78.7193 56.237 80.3461 58.8069 81.5549 64.7237C82.0286 64.8955 82.9511 65.031 83.4186 64.5083C83.2127 61.3624 80.8651 44.2124 80.583 42.1409C80.55 42.1167 76.8371 42.5451 75.408 41.957Z" fill="#143549"/>
<g style="mix-blend-mode:screen">
<path d="M81.5261 58.6546C81.1451 57.6745 80.2061 55.5837 79.9961 54.5117C79.749 53.2533 79.8581 49.5847 79.6254 48.3965C79.4668 47.5858 79.4071 46.7364 79.0488 46.0249C78.8058 45.541 78.431 45.2312 78.1859 44.7617C77.9973 44.4541 77.8682 44.1017 77.8077 43.7292C77.7472 43.3567 77.7568 42.9732 77.8359 42.6056C77.015 42.4544 76.2038 42.2377 75.408 41.957C75.3404 42.3287 75.378 42.7162 75.5151 43.0605C75.8466 44.0067 78.9026 52.6193 78.8635 53.3816C78.7193 56.2371 80.3461 58.8071 81.5549 64.7238C81.8247 64.8206 82.2098 64.9803 82.5516 64.8739C82.2551 63.9373 82.2036 62.5749 82.0574 61.7086C81.8721 60.6075 81.9297 59.6928 81.5261 58.6546Z" fill="#143549"/>
</g>
<path d="M80.5335 31.718C80.5335 30.8565 78.9355 28.2381 77.9883 27.546C77.041 26.8539 76.7012 26.4474 75.4986 26.699C74.1909 26.9725 74.4504 29.2255 74.4504 33.6612C74.4504 34.0097 73.845 41.6107 73.7523 42.2544C74.8046 43.1183 79.7551 43.0772 80.9454 42.6004C80.9454 38.7285 80.237 35.9892 80.237 34.167C80.237 33.5208 80.5335 33.0635 80.5335 31.718Z" fill="#3BC3A6"/>
<path d="M75.4986 26.6994C74.1353 27.1423 74.4504 29.2258 74.4504 33.6615C74.4504 34.01 73.845 41.611 73.7523 42.2547C74.2054 42.6249 75.338 42.8282 76.5797 42.9032C76.5797 41.1512 75.5274 40.5099 75.5274 38.9708C75.5274 38.0222 76.5015 37.018 76.4397 36.2654C76.3244 34.8473 76.0278 31.2755 76.5797 29.1581C76.7527 28.4853 75.9207 26.5615 75.4986 26.6994Z" fill="#4AF6D1"/>
<path d="M74.2795 65.9697L74.5617 66.816H75.6881C75.6316 66.6947 75.6046 66.5575 75.6098 66.4194L74.2795 65.9697Z" fill="#FEC230"/>
<path fill-rule="evenodd" clip-rule="evenodd" d="M76.4521 28.4395C76.2977 28.7769 76.2607 29.1716 76.3491 29.5404C76.4374 29.9092 76.6442 30.2233 76.9257 30.4165C78.2292 31.3167 80.342 32.5944 81.9339 32.9478L82.6381 31.2853C81.9874 30.9078 80.2329 29.2404 78.1963 27.8538C78.0497 27.7544 77.8876 27.6907 77.7197 27.6664C77.5517 27.6421 77.3813 27.6577 77.2186 27.7124C77.0559 27.767 76.9042 27.8595 76.7725 27.9844C76.6408 28.1093 76.5318 28.2641 76.4521 28.4395Z" fill="#3BC3A6"/>
<path fill-rule="evenodd" clip-rule="evenodd" d="M89.1702 29.0512C88.6986 29.2255 88.9642 28.6399 88.5812 28.8456C88.1585 29.0513 87.8138 29.4305 87.6113 29.9127C87.5083 30.1668 83.7893 31.0187 82.1233 31.2292C81.5508 31.3018 81.3428 32.5578 81.7115 32.8385C82.6278 33.5451 86.4952 31.7374 87.6689 31.3212C88.5647 31.0041 89.0528 30.7041 89.3864 30.5952C89.72 30.4863 89.8291 30.3241 89.7323 30.0579C89.7696 30.0382 89.803 30.0099 89.8307 29.9746C89.8583 29.9393 89.8796 29.8978 89.8933 29.8526C89.907 29.8074 89.9127 29.7594 89.9102 29.7115C89.9076 29.6636 89.8969 29.6168 89.8786 29.574C89.9138 29.5579 89.9449 29.5314 89.969 29.497C89.993 29.4627 90.0091 29.4217 90.0157 29.3779C90.0223 29.3342 90.0192 29.2891 90.0068 29.2472C89.9943 29.2052 89.9728 29.1678 89.9445 29.1384C90.2225 29.0029 90.4593 28.8698 90.3131 28.6544C90.2348 28.5334 89.4502 28.9448 89.1702 29.0512Z" fill="#E8D7B9"/>
<path fill-rule="evenodd" clip-rule="evenodd" d="M86.4705 30.3051C85.6468 30.7335 83.5628 30.7891 81.8947 30.9876C81.3243 31.0602 81.2358 32.5872 81.5982 32.8679C82.5063 33.5697 85.863 32.2678 87.0615 31.8346C86.8556 31.5103 86.6496 30.6415 86.6084 30.2446C86.5631 30.264 86.5158 30.2809 86.4705 30.3051Z" fill="#3BC3A6"/>
<path fill-rule="evenodd" clip-rule="evenodd" d="M86.7939 31.2175C85.4526 32.1638 83.8494 32.4556 82.3273 32.0306C82.2058 31.9968 81.691 31.8056 81.5675 31.7475L81.4233 31.6797C79.815 30.9271 77.8319 30.0293 76.7282 28.4999C76.6993 28.4588 76.5778 28.3112 76.549 28.27C76.5111 28.3239 76.4792 28.3832 76.4543 28.4467C76.2998 28.7841 76.2629 29.1788 76.3513 29.5476C76.4396 29.9165 76.6464 30.2306 76.9279 30.4238C78.1408 31.2611 80.0559 32.4251 81.5983 32.8679C82.5065 33.5697 85.8631 32.2678 87.0616 31.8346C86.9526 31.6399 86.8693 31.427 86.8145 31.203L86.7939 31.2175Z" fill="#4AF6D1"/>
<path fill-rule="evenodd" clip-rule="evenodd" d="M88.6019 28.5355L87.9305 29.3702L88.4701 29.3073C88.668 29.1714 88.8243 28.9657 88.9169 28.7194C89.2238 28.5669 89.3473 28.3081 89.2814 28.0347C89.0736 28.2342 88.8453 28.4025 88.6019 28.5355Z" fill="#E8D7B9"/>
<path fill-rule="evenodd" clip-rule="evenodd" d="M87.4897 20.1775C87.4362 20.1291 87.3415 20.1775 87.2838 20.3106C87.1586 20.5683 87.0458 20.8341 86.9461 21.1067C86.8143 21.4503 86.977 21.4794 87.1047 21.264C87.26 21.0121 87.3978 20.7459 87.5165 20.4679C87.5824 20.2937 87.5412 20.2235 87.4897 20.1775Z" fill="#E8D7B9"/>
<path fill-rule="evenodd" clip-rule="evenodd" d="M87.5454 20.8428C87.4589 20.7798 87.36 20.8186 87.2962 20.9565C87.1376 21.305 87.0202 21.5494 86.8596 21.9003C86.699 22.2512 86.8596 22.2633 87.0058 22.06C87.2072 21.7687 87.3903 21.4605 87.5536 21.138C87.638 20.9734 87.5989 20.8815 87.5454 20.8428Z" fill="#E8D7B9"/>
<path fill-rule="evenodd" clip-rule="evenodd" d="M87.4899 21.3734C87.3354 21.6783 87.2201 21.8574 87.0656 22.1622C86.9112 22.4671 87.0657 22.5204 87.2119 22.3486C87.4072 22.1003 87.5862 21.835 87.7473 21.5549C87.8296 21.4097 87.7885 21.3347 87.7349 21.2839C87.7138 21.2708 87.6908 21.2627 87.667 21.2602C87.6433 21.2576 87.6193 21.2606 87.5966 21.2689C87.5738 21.2772 87.5527 21.2907 87.5344 21.3086C87.5161 21.3266 87.5009 21.3486 87.4899 21.3734Z" fill="#E8D7B9"/>
<path fill-rule="evenodd" clip-rule="evenodd" d="M87.8913 21.639C87.8296 21.61 87.7657 21.5737 87.704 21.6946C87.5516 21.997 87.498 22.1276 87.4465 22.2412C87.3024 22.5339 87.4466 22.5726 87.5907 22.3985C87.7168 22.2458 87.8261 22.0752 87.9161 21.8905C88.0005 21.7454 87.9449 21.6632 87.8913 21.639Z" fill="#E8D7B9"/>
<path d="M181.902 63.8455C180.734 62.955 178.749 62.8001 177.688 64.131C177.156 64.2506 176.638 64.449 176.148 64.7215C176.523 64.4142 176.908 64.056 176.998 63.4946C177.103 62.834 176.644 62.7831 176.298 63.0518C175.952 63.3204 176.006 63.5987 175.915 64.0778C175.839 64.4819 175.709 64.8038 175.674 64.9732L175.19 65.2321C174.947 65.3628 174.704 65.4886 174.459 65.6121C174.546 65.5104 174.628 65.4112 174.665 65.3701C174.995 64.9078 175.444 64.3658 175.549 63.7027C175.654 63.0396 175.234 62.5484 174.766 62.8703C174.373 63.1389 174.529 63.8382 174.515 64.3609C174.498 64.9901 174.356 65.3023 174.282 65.7113C173.87 65.9194 173.458 66.1202 173.047 66.3138C173.445 65.9251 173.765 65.4386 173.986 64.8885C174.241 64.1141 173.545 63.9423 173.129 64.1625C172.674 64.4045 172.668 65.0119 172.587 65.5588C172.526 65.9315 172.436 66.2969 172.318 66.6502L171.653 66.9164L171.14 67.1221C171.44 66.7614 171.658 66.3167 171.772 65.8299C171.825 65.5661 171.945 65.0724 171.772 64.8619C171.552 64.5812 171.21 64.8474 171.059 65.0894C170.683 65.6943 170.812 66.7301 170.575 67.352C170.139 67.5133 169.702 67.6658 169.264 67.8094C169.62 67.4817 169.92 67.0767 170.147 66.6163C170.285 66.3066 170.37 65.8903 170.205 65.5975C170.04 65.3047 169.643 65.3555 169.433 65.6411C169.24 65.9593 169.106 66.3211 169.039 66.7035C168.936 67.1076 168.702 67.5892 168.656 67.9957C168.45 68.0562 168.244 68.1143 168.038 68.1675L167.923 68.1966C168.014 68.078 168.096 67.9546 168.154 67.8699C168.359 67.602 168.481 67.2612 168.502 66.9019C168.502 66.5316 168.275 66.1493 168.01 66.1977C167.789 66.2413 167.643 66.551 167.598 66.8559C167.552 67.1608 167.573 67.4754 167.532 67.7803C167.499 67.9659 167.449 68.1468 167.384 68.32C166.912 68.4192 166.44 68.4942 165.967 68.562C166.218 68.2409 166.426 67.8771 166.585 67.4827C166.681 67.2086 166.704 66.9062 166.651 66.6163C166.583 66.3332 166.37 66.1057 166.16 66.1686C165.95 66.2316 165.819 66.5679 165.796 66.8729C165.781 67.0665 165.629 68.2861 165.648 68.608C165.186 68.6733 164.725 68.7338 164.262 68.804C164.093 68.8306 164.083 69.1621 164.262 69.1791C164.872 69.2245 165.484 69.201 166.09 69.1089C166.213 69.2724 166.326 69.4445 166.43 69.6243C166.484 69.7631 166.53 69.9053 166.57 70.0503H167.546C167.547 70.0438 167.547 70.0373 167.546 70.0309C167.3 69.5962 166.953 69.2523 166.548 69.0387C166.933 68.971 167.316 68.8863 167.692 68.7967L167.8 68.8572C167.978 68.9417 168.139 69.0724 168.269 69.2396C168.365 69.4008 168.444 69.5746 168.506 69.7574C168.549 69.8591 168.597 69.9559 168.646 70.0503H169.898C169.865 69.9644 169.823 69.8833 169.774 69.8083C169.478 69.3568 169.066 69.03 168.599 68.8766C168.402 68.8099 168.201 68.7613 167.997 68.7314C168.479 68.612 168.96 68.4749 169.439 68.32C169.609 68.4497 169.758 68.6135 169.879 68.804L170.388 69.5808C170.493 69.7523 170.608 69.9141 170.734 70.0648H172.252C172.279 70.013 172.296 69.9554 172.303 69.8954C172.304 69.7832 172.283 69.6724 172.243 69.5707C172.203 69.469 172.144 69.3791 172.071 69.3073C171.705 68.8688 171.257 68.5373 170.763 68.3393C170.531 68.246 170.294 68.1756 170.052 68.1288C170.481 67.9764 170.909 67.8118 171.333 67.6448C171.827 67.8085 172.282 68.1023 172.664 68.5039C172.89 68.7459 173.09 69.0411 173.321 69.2831C173.531 69.5328 173.809 69.6885 174.107 69.7235C174.227 69.7342 174.345 69.6934 174.441 69.6088C174.537 69.5242 174.604 69.4016 174.628 69.2638C174.638 69.1647 174.631 69.0644 174.608 68.9685C174.463 68.3151 173.951 67.9691 173.473 67.8045C172.899 67.5849 172.297 67.4802 171.694 67.4948C172.239 67.2528 172.783 67.0108 173.321 66.7398C173.626 66.9078 173.905 67.1362 174.144 67.4149C174.57 67.8602 174.968 68.3829 175.431 68.7217C175.57 68.8418 175.729 68.9256 175.898 68.9673C176.067 69.0091 176.241 69.0078 176.409 68.9637C176.465 68.9487 176.515 68.9131 176.552 68.862C176.581 68.804 176.6 68.7386 176.604 68.671C176.609 68.6033 176.6 68.5353 176.578 68.4724C176.493 68.1647 176.338 67.8902 176.129 67.6787C175.651 67.1694 175.055 66.8377 174.416 66.7252C174.109 66.664 173.798 66.6364 173.487 66.643C174.008 66.3816 174.517 66.1081 175.038 65.8274L175.143 65.7669C175.402 66.1009 175.689 66.4058 175.956 66.7349C176.224 67.064 176.529 67.3859 176.883 67.3762C176.998 67.3767 177.108 67.3246 177.19 67.231C177.257 67.1294 177.3 67.0087 177.315 66.8811C177.329 66.7535 177.315 66.6237 177.272 66.505C177.19 66.2811 177.054 66.0902 176.881 65.9557C176.544 65.6952 176.167 65.5128 175.771 65.4185C176.063 65.2491 176.36 65.0772 176.659 64.9345C176.657 64.9425 176.657 64.9507 176.659 64.9587C177.097 65.3628 177.441 65.9533 177.894 66.3332C178.063 66.4782 178.256 66.5784 178.461 66.6269C178.666 66.6754 178.877 66.6709 179.08 66.6139C179.142 66.6044 179.2 66.5742 179.248 66.5271C179.296 66.4799 179.331 66.4177 179.35 66.3477C179.361 66.2208 179.33 66.0939 179.262 65.9944C178.959 65.4816 178.513 65.1099 178.001 64.9441C177.693 64.8309 177.374 64.7658 177.052 64.7506C177.55 64.5069 178.08 64.3693 178.619 64.344H178.638C178.955 64.3787 179.267 64.46 179.566 64.586C179.937 64.753 180.293 64.978 180.668 65.116C181.038 65.2807 181.447 65.2807 181.817 65.116C182.079 64.9829 182.332 64.6029 182.229 64.2496C182.169 64.07 182.051 63.9251 181.902 63.8455Z" fill="#356891"/>
<path d="M161.21 63.008C159.626 64.4769 157.192 66.4903 156.885 68.9369C156.86 69.3118 156.902 69.6889 157.011 70.0428H163.86C167.26 69.1426 171.393 67.1921 174.49 62.2458C175.726 60.2614 177.13 55.9321 182.616 53.9768C176.296 52.5031 165.431 59.0877 161.21 63.008Z" fill="#004EA0"/>
<path d="M170.326 56.7911C169.952 57.1056 169.733 57.759 169.311 57.88C168.994 57.9792 168.652 57.7784 168.267 58.0034C167.913 58.2286 167.596 58.5261 167.33 58.8819C166.793 59.5691 166.589 60.3459 166.2 61.1227C165.841 61.8487 165.088 61.931 164.445 62.3085C163.511 62.8837 162.704 63.7074 162.089 64.7139C161.727 65.2778 161.451 66.2941 160.994 66.6329C160.673 66.8749 160.199 66.8749 159.859 67.1653C159.473 67.5291 159.165 67.9929 158.957 68.5205C158.681 69.1424 158.751 69.6482 159.019 70.0426H161.741C162.499 69.7135 163.22 69.2658 163.613 68.6899C163.945 68.2059 163.79 68.0946 164.231 67.93C164.974 67.6493 165.652 67.7316 166.255 67.0201C166.737 66.4413 167.106 65.7471 167.338 64.985C167.487 64.4598 167.378 64.1598 167.75 63.8185C168.321 63.2813 168.986 63.1264 169.474 62.4222C169.806 61.9116 170.073 61.3477 170.269 60.7477C170.411 60.3556 170.347 60.041 170.425 59.6805C170.567 59.0343 171.206 58.8238 171.564 58.2866C171.953 57.6961 172.182 56.9048 172.388 56.1982C171.745 55.886 170.841 56.3579 170.326 56.7911Z" fill="#2C7DEA"/>
<path d="M156.855 60.3364C156.649 59.3152 156.463 58.0278 155.885 57.2026C155.796 57.7059 155.679 58.2165 155.625 58.7271C155.582 59.0828 155.638 59.4676 155.576 59.804C155.314 58.548 154.903 57.3415 154.355 56.2201C153.875 55.2521 153.444 53.8922 152.73 53.1299C152.626 54.3111 152.649 55.503 152.798 56.6775C152.969 58.2238 153.15 59.7774 153.329 61.3237C153.599 63.6613 154.126 65.8586 154.723 68.0994C154.845 68.5641 154.96 69.3384 155.166 70.0354H157.301C157.326 69.7934 157.351 69.5514 157.382 69.3239C157.628 67.7262 157.659 66.0931 157.474 64.4841C157.285 63.112 157.12 61.7084 156.855 60.3364Z" fill="#3CB6D5"/>
<path d="M171.179 40.3987C169.435 39.4815 169.737 43.3655 167.973 45.8072C167.684 46.1072 167.403 46.4186 167.128 46.7412C167.334 46.0153 167.443 44.9529 167.194 44.6698C166.544 43.9269 166.478 45.4538 166.49 45.8096C166.513 46.2928 166.593 46.77 166.727 47.2276C166.352 47.6947 165.992 48.1738 165.646 48.6554C165.699 48.4836 165.74 48.3214 165.777 48.2125C166.053 47.3486 166.474 45.5506 165.528 45.3837C164.336 45.1731 165.059 48.3965 165.131 49.391C165.094 49.4443 164.598 50.192 164.392 50.5211C164.624 49.4031 164.727 47.4503 163.912 47.2615C162.192 46.8647 164.042 49.7371 164.097 50.9422C163.741 51.552 163.236 52.5127 162.919 53.154C163.068 52.5403 163.097 51.8953 163.006 51.2665C162.849 50.4558 162.266 49.6814 161.937 50.7365C161.745 51.3487 162.067 51.9585 162.244 52.5417C162.379 52.9972 162.479 53.4662 162.542 53.9429C162.275 54.5212 162.023 55.1141 161.791 55.7167C161.904 54.7923 161.925 53.8049 161.585 53.0548C160.936 51.6294 159.898 52.6143 159.88 53.8001C159.861 54.9859 160.979 55.8788 161.404 56.7669C161.216 57.3186 161.045 57.8801 160.887 58.4439C160.773 57.4614 160.654 56.387 160.106 55.6416C159.558 54.8963 158.296 54.7608 158.327 55.9538C158.364 57.4058 160.193 57.7687 160.808 58.7343C160.603 59.4966 160.425 60.2685 160.267 61.0501C160.157 60.3331 159.956 59.6396 159.67 58.9932C159.192 57.9986 158.228 58.41 158.115 59.4119C157.96 60.8396 159.488 61.2824 160.079 62.0278C160.005 62.4488 159.933 62.8723 159.874 63.3007C159.797 63.7846 159.688 64.4743 159.61 64.9655C159.429 64.1234 159.107 63.0756 158.718 62.6691C157.913 61.8269 157.036 62.6449 157.483 63.758C157.895 64.8155 159.007 64.9559 159.476 65.8222C159.361 66.5094 159.235 67.1943 159.095 67.8719C158.757 66.6159 157.872 65.2947 156.988 65.0599C156.017 64.8034 155.547 65.677 156.132 66.6038C156.544 67.2693 158.278 67.8138 158.939 68.5906C158.825 69.0745 158.696 69.5585 158.558 70.0425H159.233C159.283 69.8876 159.334 69.7328 159.377 69.573C159.528 68.8471 160.073 68.8035 160.584 68.6414C161.169 68.4599 163.774 69.8997 163.261 67.3104C162.835 65.118 160.633 67.1846 159.682 68.3147C159.789 67.8307 159.888 67.3467 159.968 66.8628C160.147 66.4828 160.413 66.1368 161.031 65.8633C161.941 65.4423 165.436 66.0545 165.123 63.9831C164.637 60.7549 160.679 65.164 160.032 66.4901C160.172 65.648 160.471 63.637 160.497 63.4749C160.821 63.0451 161.246 62.7377 161.719 62.5916C162.291 62.4101 164.132 62.0399 163.844 60.8348C163.556 59.6297 162.091 60.6726 161.785 61.0913C161.338 61.6257 160.943 62.2174 160.609 62.8554C160.757 61.9745 160.922 61.1058 161.113 60.2467C162.886 58.7778 166.107 59.4167 165.438 57.5389C164.674 55.4069 162.81 58.9908 161.194 59.9176C161.411 58.9774 161.669 58.051 161.968 57.142C162.174 57.0646 162.481 56.8322 162.868 56.7016C163.735 56.4039 165.417 56.7016 165.658 55.6126C165.985 54.1074 164.783 54.0735 164.011 54.5115C163.164 54.9955 162.686 55.8401 162.135 56.6459L162.147 56.612C162.488 55.6464 162.872 54.7022 163.296 53.7832C164.468 53.2992 167.415 54.1752 166.811 52.1546C166.342 50.584 164.206 52.5587 163.409 53.5412C163.829 52.6458 164.286 51.7763 164.779 50.9325C164.908 51.0269 165.176 50.8236 165.714 50.8309C166.461 50.843 167.919 51.143 168.17 49.9766C168.347 49.1587 167.184 49.0813 166.644 49.2507C166.027 49.4467 165.528 50.1291 165.02 50.5284C165.123 50.3542 166.173 48.7256 166.622 48.1085C167.816 47.7939 171.068 47.8205 170.718 46.4146C170.322 44.8392 168.024 46.763 166.877 47.7455C167.03 47.5422 168.222 45.9862 168.525 45.645C169.588 45.3182 170.589 44.76 171.478 43.9995C172.147 43.3872 173.238 41.4876 171.179 40.3987Z" fill="#FFD02A"/>
<path d="M173.333 21.3696C173.991 21.3672 174.523 20.7379 174.521 19.9641C174.519 19.1903 173.984 18.5649 173.325 18.5674C172.667 18.5698 172.135 19.1991 172.137 19.9729C172.139 20.7467 172.674 21.3721 173.333 21.3696Z" fill="#7BC3F4"/>
<path fill-rule="evenodd" clip-rule="evenodd" d="M173.331 18.5635C173.198 18.5649 173.066 18.5927 172.942 18.6458C173.009 18.6294 173.078 18.6212 173.148 18.6216C174.383 18.6216 174.371 20.8552 173.148 20.8552C172.363 20.8552 172.085 19.9356 172.307 19.2774C172.18 19.5452 172.131 19.855 172.168 20.1588C172.205 20.4626 172.326 20.7435 172.513 20.9581C172.7 21.1727 172.942 21.309 173.201 21.346C173.46 21.3829 173.723 21.3184 173.948 21.1624C174.173 21.0064 174.348 20.7677 174.446 20.4831C174.543 20.1985 174.559 19.8839 174.489 19.5881C174.42 19.2922 174.269 19.0315 174.061 18.8463C173.853 18.6611 173.598 18.5617 173.337 18.5635H173.331Z" fill="#3A7CFF"/>
<path fill-rule="evenodd" clip-rule="evenodd" d="M172.781 18.2753C172.52 18.4556 172.313 18.7267 172.189 19.0511C172.065 19.3756 172.03 19.7373 172.089 20.0862C172.147 20.4352 172.297 20.7541 172.516 20.9989C172.736 21.2437 173.015 21.4022 173.314 21.4526C173.006 21.3165 172.746 21.0602 172.579 20.7266C172.439 20.4481 172.369 20.1287 172.377 19.8054C172.385 19.4821 172.471 19.168 172.624 18.8994C172.777 18.6307 172.992 18.4184 173.244 18.287C173.495 18.1556 173.773 18.1104 174.045 18.1567C173.841 18.0636 173.621 18.0259 173.402 18.0465C173.183 18.067 172.971 18.1452 172.781 18.2753Z" fill="#7BC3F4"/>
<path fill-rule="evenodd" clip-rule="evenodd" d="M173.205 20.2117C170.674 20.8699 171.288 23.5512 171.407 24.2603C171.642 25.6469 172.719 26.4697 174.103 26.4697C175.932 26.4697 176.953 23.2681 175.917 21.4168C175.131 20.006 173.922 20.023 173.205 20.2117Z" fill="#7BC3F4"/>
<path fill-rule="evenodd" clip-rule="evenodd" d="M173.205 20.2117L173.162 20.2262C173.193 20.2262 173.226 20.2383 173.257 20.248C173.468 20.3107 173.666 20.4254 173.837 20.5844C174.301 20.8396 174.664 21.2944 174.851 21.8549C175.044 22.3773 175.084 22.9605 174.964 23.5125C174.889 23.8156 174.763 24.0982 174.594 24.3437C174.425 24.5892 174.216 24.7928 173.98 24.9427C173.741 25.1145 173.475 25.2279 173.199 25.2761C172.922 25.3243 172.64 25.3064 172.369 25.2234C172.053 25.1025 171.764 24.898 171.525 24.6257C171.508 24.6063 171.492 24.5821 171.475 24.5603C171.807 25.7703 172.822 26.4697 174.103 26.4697C175.932 26.4697 176.953 23.2681 175.917 21.4168C175.131 20.006 173.922 20.023 173.205 20.2117Z" fill="#3A7CFF"/>
<path fill-rule="evenodd" clip-rule="evenodd" d="M173.316 52.6238C173.281 53.1295 173.16 53.5482 173.133 53.9693C173.106 54.3903 173.181 54.8526 173.199 55.4212C173.249 56.0311 173.016 56.4981 172.925 57.0233C172.47 59.6997 172.952 60.3797 172.454 62.4198C172.341 62.8271 172.204 63.2243 172.042 63.608C171.926 63.9951 172.042 64.4695 171.914 65.239C171.76 66.236 171.348 67.2427 171.488 67.8017C171.628 68.3607 172.66 68.8423 173.047 68.8423C173.508 68.8423 173.284 68.2131 173.253 67.8235C173.218 67.2088 173.405 63.7096 173.58 62.9497C174.083 60.733 175.215 58.3784 175.433 56.2731C175.639 54.2742 175.508 53.8967 175.895 51.5542C175.938 51.2807 176.755 44.9937 176.821 42.46L173.343 44.5218C173.444 46.9732 173.487 50.0731 173.316 52.6238Z" fill="#E8D7B9"/>
<path fill-rule="evenodd" clip-rule="evenodd" d="M174.904 50.7318C175.335 52.8685 174.927 54.9835 174.371 57.055C173.753 59.3732 173.228 60.4162 173.135 62.8627C173.104 63.6371 172.649 64.2227 172.466 64.9971C172.206 66.1103 172.812 67.1557 172.165 68.5205C172.433 68.6962 172.728 68.8088 173.032 68.852C173.494 68.852 173.269 68.2228 173.238 67.8332C173.203 67.2186 173.391 63.7194 173.566 62.9595C174.068 60.7429 175.201 58.3883 175.419 56.283C175.625 54.2842 175.493 53.9067 175.88 51.5642C175.923 51.2908 176.741 45.0039 176.807 42.4702L174.43 43.8786C174.803 46.1533 174.449 48.4788 174.904 50.7318Z" fill="#F0BF97"/>
<path fill-rule="evenodd" clip-rule="evenodd" d="M173.257 67.2061C173.181 67.6248 172.474 67.8499 172.132 67.2981C171.932 66.9217 171.806 66.4977 171.762 66.0567C171.762 66.0373 171.762 66.0228 171.762 66.0059C171.587 66.7318 171.385 67.3925 171.49 67.8063C171.624 68.3338 172.662 68.8469 173.049 68.8469C173.51 68.8469 173.286 68.2177 173.255 67.8281C173.238 67.7119 173.249 67.4917 173.257 67.2061Z" fill="#143549"/>
<path fill-rule="evenodd" clip-rule="evenodd" d="M175.19 28.3108C174.22 28.623 174.439 27.3598 174.311 26.2539L172.993 26.7984C173.158 27.8389 173.281 28.5746 172.569 28.9013C172.097 29.1029 171.615 29.2742 171.127 29.4143C170.493 29.5933 170.157 34.9219 170.034 36.3375L171.156 36.8651C171.405 35.8463 171.904 34.1693 171.904 32.9352L176.171 32.277L175.818 30.5831L177.26 29.9829C176.9 28.1971 176.348 27.9357 175.19 28.3108Z" fill="#E8D7B9"/>
<path fill-rule="evenodd" clip-rule="evenodd" d="M175.934 29.7822C175.934 29.7822 177.056 34.6802 177.594 36.0498L178.829 35.5199C178.574 34.2543 178.005 30.8107 177.433 29.2861L175.934 29.7822Z" fill="#F0BF97"/>
<path fill-rule="evenodd" clip-rule="evenodd" d="M175.19 28.3109C174.22 28.6231 174.439 27.3599 174.311 26.2539L172.993 26.7984C173.026 27.0017 173.055 27.1929 173.08 27.372C173.436 28.0036 174.142 28.9764 174.766 28.8869C175.102 28.8385 175.409 28.3835 175.796 28.3279C176.073 28.2912 176.353 28.3217 176.62 28.4174C176.282 28.0907 175.829 28.1052 175.19 28.3109Z" fill="#F0BF97"/>
<path fill-rule="evenodd" clip-rule="evenodd" d="M171.333 33.0903C171.319 33.3323 171.305 33.5913 171.298 33.8551C171.28 34.6222 170.804 35.9217 170.648 36.626L171.16 36.868C171.366 36.0524 171.867 34.6101 171.896 33.659C171.682 33.5091 171.491 33.3167 171.333 33.0903Z" fill="#F0BF97"/>
<path fill-rule="evenodd" clip-rule="evenodd" d="M174.394 22.0121C174.035 21.8222 173.634 21.7755 173.251 21.879C172.1 22.121 171.842 23.2825 171.918 24.4368C171.962 25.0878 171.997 25.6467 172.254 26.1622C172.38 26.4042 173.139 27.4472 173.679 27.4472C174.268 27.4472 174.976 26.2808 175.079 25.9589C175.207 25.4799 175.269 24.9799 175.263 24.4779C175.263 24.4295 175.263 24.386 175.263 24.3424C175.273 23.3333 175.044 22.3896 174.394 22.0121Z" fill="#E8D7B9"/>
<path fill-rule="evenodd" clip-rule="evenodd" d="M174.393 22.0122C173.88 21.8653 173.34 21.9075 172.847 22.1331C172.847 22.1331 173.376 24.2336 175.265 24.3425C175.273 23.3334 175.044 22.3897 174.393 22.0122Z" fill="#F0BF97"/>
<path fill-rule="evenodd" clip-rule="evenodd" d="M175.491 64.5107C175.347 64.1491 175.224 63.7764 175.122 63.3952C174.624 61.3552 175.054 60.6026 174.599 57.9237C174.509 57.401 174.276 56.9316 174.325 56.3242C174.344 55.7506 174.416 55.3078 174.389 54.8722C174.363 54.4366 174.243 54.0349 174.208 53.5292C174.099 51.984 174.064 50.4327 174.105 48.8829C174.14 45.3014 174.383 43.6051 173.281 40.9238H170.975L170.701 43.3607C170.773 46.3454 171.049 49.3185 171.525 52.2515C171.912 54.5963 172.011 55.4167 172.373 57.355C172.762 59.4265 174.241 64.5132 174.297 65.3238C174.311 65.544 174.352 68.3487 174.389 68.7262C174.426 69.1037 174.389 70.0402 174.836 70.0402C175.223 70.0402 175.948 69.0578 176.045 68.702C176.195 68.1479 175.773 67.1363 175.617 66.1393C175.503 65.3722 175.604 64.8979 175.491 64.5107Z" fill="#E8D7B9"/>
<path fill-rule="evenodd" clip-rule="evenodd" d="M174.746 68.7062C174.587 68.7062 174.478 68.503 174.371 68.3893C174.371 68.5465 174.383 68.6699 174.389 68.728C174.426 69.1152 174.389 70.0419 174.836 70.0419C175.223 70.0419 175.948 69.0595 176.045 68.7038C176.154 68.2973 175.956 67.6416 175.781 66.9277C175.755 67.0608 175.545 68.7062 174.746 68.7062Z" fill="#143549"/>
<path fill-rule="evenodd" clip-rule="evenodd" d="M177.627 38.1915C176.935 38.402 172.756 39.1812 171.228 38.1431C171.113 38.9295 169.908 40.0209 169.908 42.5159C169.908 46.1458 171.216 53.4588 171.216 53.4588C171.216 53.4588 174.138 54.4098 176.206 53.5992C177.042 48.8706 178.193 43.9412 177.853 40.367C177.841 40.2581 177.643 38.3076 177.627 38.1915Z" fill="#FEC230"/>
<path fill-rule="evenodd" clip-rule="evenodd" d="M177.633 38.2378C177.62 38.2523 177.614 38.2668 177.602 38.2813C176.144 40.0358 173.852 40.1157 174.249 41.0425C174.531 41.7031 176.053 42.9348 176.434 43.3486C177.258 44.2392 174.927 45.408 175.087 47.4819C175.162 48.4498 174.743 50.1897 174.523 51.1117C174.185 52.5443 172.464 52.4403 171.675 53.5752C172.579 53.8027 174.636 54.202 176.206 53.5873C177.042 48.8588 178.193 43.9294 177.853 40.3552C177.841 40.2657 177.668 38.55 177.633 38.2378Z" fill="#EE8800"/>
<path fill-rule="evenodd" clip-rule="evenodd" d="M177.598 28.7827C176.885 27.8631 175.349 28.1123 175.349 28.1123C174.776 28.7222 173.652 29.6659 173.652 29.6659L172.005 29.0585C172.005 29.0585 170.357 29.1287 170.164 30.9412C170.098 31.5486 171.158 31.4688 171.158 32.3375C171.165 32.6123 171.224 32.8818 171.331 33.1263C171.438 33.3708 171.59 33.5842 171.776 33.7507C171.89 34.5947 171.933 35.4499 171.904 36.3037C171.848 37.4532 171.259 37.3613 171.352 37.9977C171.508 39.0915 176.994 38.8664 177.453 38.2252C177.939 37.5476 177.453 33.4991 177.248 31.3768C177.122 30.1185 178.001 29.3029 177.598 28.7827Z" fill="#FEC230"/>
<path fill-rule="evenodd" clip-rule="evenodd" d="M177.598 28.7827C176.885 27.8631 175.349 28.1123 175.349 28.1123C174.777 28.7222 173.652 29.6659 173.652 29.6659L172.005 29.0585C171.678 29.0897 171.36 29.1983 171.07 29.378C171.298 29.4734 171.522 29.5841 171.739 29.7095C173.905 31.0428 173.665 32.882 172.995 33.2571C172.54 33.5136 174.078 35.3043 174.078 36.8869C174.078 37.5548 175.427 36.8869 175.889 36.4779C176.3 36.1053 176.585 36.4562 176.173 36.824C175.409 37.5113 174.647 38.213 173.265 38.2348C172.861 38.2585 172.463 38.3607 172.087 38.5373C173.634 38.9825 177.089 38.7357 177.441 38.2324C177.927 37.5548 177.441 33.5063 177.235 31.3841C177.122 30.1184 178.001 29.3029 177.598 28.7827ZM176.679 31.9963C176.574 32.1582 176.498 32.343 176.455 32.5399C176.411 32.7368 176.401 32.9419 176.426 33.1433C176.552 33.741 176.167 33.9516 175.728 33.6152C175.477 33.4216 174.492 34.1113 173.912 33.9975C173.395 33.8959 173.751 33.6007 173.932 33.6297C174.519 33.7217 175.709 32.1366 175.952 31.4518C176.082 31.0961 176.57 30.9678 176.749 31.2098C176.906 31.3429 176.817 31.7567 176.679 31.9963Z" fill="#EE8800"/>
<path fill-rule="evenodd" clip-rule="evenodd" d="M173.349 25.8691C173.306 25.9367 173.423 25.9754 173.481 25.9803C173.514 25.9829 173.546 25.9885 173.578 25.9972C173.627 26.0117 173.679 26.0117 173.728 25.9972C173.761 25.9885 173.794 25.9829 173.827 25.9803C173.885 25.9803 173.986 25.9464 173.959 25.8691C173.864 25.7956 173.751 25.7593 173.638 25.7651C173.534 25.7557 173.431 25.7929 173.349 25.8691Z" fill="#F0BF97"/>
<path fill-rule="evenodd" clip-rule="evenodd" d="M172.676 21.6637C172.676 21.6637 173.426 24.2845 176.191 23.9505C176.191 23.9384 175.864 20.5482 172.676 21.6637Z" fill="#7BC3F4"/>
<path fill-rule="evenodd" clip-rule="evenodd" d="M177.645 36.4249C177.645 38.0366 177.933 40.7155 177.398 41.2648C177.146 41.4936 176.975 41.8237 176.918 42.1917C176.828 42.5764 177.196 42.2546 177.137 42.724C177.104 43.0023 176.931 43.8009 177.007 43.8542C177.178 43.9655 177.237 43.7235 177.293 43.4403C177.317 43.463 177.345 43.4781 177.376 43.4843C177.406 43.4905 177.437 43.4875 177.466 43.4756C177.495 43.4638 177.521 43.4434 177.542 43.4165C177.562 43.3896 177.577 43.357 177.583 43.3218C177.616 43.3347 177.65 43.3396 177.684 43.3363C177.718 43.3329 177.751 43.3213 177.781 43.3022C177.811 43.2831 177.837 43.2569 177.858 43.2253C177.879 43.1937 177.894 43.1573 177.903 43.1185C178.098 43.1741 178.197 43.0265 178.226 42.7168C178.255 42.407 178.397 41.8843 178.496 40.9938C178.627 39.8249 179.426 36.9767 178.702 35.1424C178.547 34.7479 177.645 34.6318 177.645 36.4249Z" fill="#E8D7B9"/>
<path fill-rule="evenodd" clip-rule="evenodd" d="M177.713 35.6821C177.805 35.6738 177.897 35.6908 177.981 35.7319C178.066 35.773 178.142 35.837 178.202 35.9187C178.262 36.0004 178.305 36.0975 178.328 36.2023C178.35 36.307 178.351 36.4165 178.331 36.5218C177.946 38.4335 179.047 42.2739 177.029 43.3677C176.992 43.6097 176.969 43.8105 177.011 43.8372C177.182 43.9485 177.241 43.7065 177.297 43.4234C177.321 43.446 177.349 43.4612 177.38 43.4673C177.41 43.4735 177.441 43.4705 177.47 43.4587C177.499 43.4468 177.525 43.4265 177.546 43.3995C177.566 43.3726 177.58 43.34 177.587 43.3048C177.62 43.3177 177.654 43.3226 177.688 43.3193C177.722 43.3159 177.755 43.3043 177.785 43.2852C177.815 43.2661 177.841 43.24 177.862 43.2083C177.883 43.1767 177.898 43.1404 177.906 43.1015C178.102 43.1572 178.201 43.0096 178.23 42.6998C178.259 42.3901 178.401 41.8674 178.5 40.9768C178.631 39.808 179.428 36.9235 178.705 35.0917C178.567 34.7747 177.705 34.5302 177.713 35.6821Z" fill="#F0BF97"/>
<path fill-rule="evenodd" clip-rule="evenodd" d="M176.708 42.2325C176.65 42.4814 176.565 42.7205 176.455 42.9439C176.661 42.9705 176.813 42.8181 176.877 42.5084C177.032 42.4149 177.159 42.2658 177.237 42.0825L177.192 41.4873L176.708 42.2325Z" fill="#E8D7B9"/>
<path fill-rule="evenodd" clip-rule="evenodd" d="M176.243 37.5211C176.064 37.4969 175.755 37.5381 175.921 37.2525C176.127 36.8944 175.147 37.1195 174.822 37.4268C174.669 37.5695 174.501 37.509 174.33 37.5018C173.597 37.4824 172.606 36.8799 171.228 36.6452C170.763 36.5653 170.51 36.4371 170.038 36.3379C169.97 36.8968 170.104 37.4873 170.291 37.6954C171.018 38.4963 171.83 38.3826 172.536 38.4213C173.242 38.46 173.459 38.3874 174.449 38.5616C174.939 38.6704 175.436 38.7287 175.934 38.7358C176.199 38.7213 176.346 38.7189 176.346 38.4818C176.38 38.4831 176.414 38.4762 176.445 38.4615C176.477 38.4467 176.506 38.4245 176.53 38.3961C176.554 38.3677 176.572 38.3337 176.585 38.2964C176.597 38.2591 176.602 38.2193 176.601 38.1793C176.632 38.1815 176.663 38.1743 176.691 38.1585C176.719 38.1426 176.743 38.1186 176.76 38.0888C176.778 38.0589 176.789 38.0242 176.792 37.9879C176.795 37.9517 176.79 37.9151 176.778 37.8817C177.023 37.8986 177.239 37.8986 177.19 37.676C177.182 37.5792 176.48 37.5526 176.243 37.5211Z" fill="#E8D7B9"/>
<path fill-rule="evenodd" clip-rule="evenodd" d="M174.995 38.5111C174.76 38.4027 174.542 38.2526 174.346 38.066C173.111 38.066 172.719 36.9941 170.044 36.9941C170.065 37.2519 170.151 37.4963 170.291 37.6958C171.018 38.4966 171.83 38.3829 172.536 38.4216C173.242 38.4603 173.459 38.3877 174.449 38.5619C174.939 38.6708 175.436 38.729 175.934 38.7361C176.164 38.7216 176.302 38.7192 176.346 38.5619C175.897 38.6459 175.438 38.6287 174.995 38.5111Z" fill="#F0BF97"/>
<path d="M169.369 36.8945C169.369 36.9747 169.396 37.0517 169.444 37.1084C169.492 37.1651 169.558 37.197 169.626 37.197H175.674C175.742 37.1963 175.808 37.1643 175.856 37.1077C175.904 37.0511 175.931 36.9745 175.932 36.8945H169.369Z" fill="#D1D9E8"/>
<path d="M176.584 30.6171L175.324 36.805C175.302 36.9018 175.324 37.1874 175.635 37.1874L180.759 37.1124V30.2202H177.052C176.947 30.215 176.844 30.2513 176.76 30.3233C176.675 30.3953 176.613 30.4988 176.584 30.6171Z" fill="#D1D9E8"/>
<path d="M183.545 30.2206H176.996C176.964 30.2206 176.932 30.2331 176.905 30.2562C176.879 30.2793 176.86 30.3118 176.85 30.3489L175.503 36.9719C175.497 36.9982 175.496 37.0258 175.5 37.0526C175.504 37.0794 175.514 37.1047 175.528 37.1265C175.542 37.1483 175.56 37.1661 175.581 37.1783C175.601 37.1905 175.624 37.1969 175.648 37.197H181.747C181.91 37.1971 182.068 37.1347 182.197 37.0194C182.326 36.904 182.42 36.742 182.464 36.5581L183.699 30.4457C183.706 30.4184 183.707 30.3897 183.702 30.3619C183.697 30.3341 183.687 30.308 183.672 30.286C183.657 30.2639 183.637 30.2464 183.615 30.2351C183.593 30.2237 183.569 30.2187 183.545 30.2206Z" fill="#3CB6D5"/>
<path fill-rule="evenodd" clip-rule="evenodd" d="M175.135 37.2328L175.547 37.4094C175.733 37.3929 175.91 37.3083 176.053 37.1675C176.323 37.182 176.494 37.0418 176.527 36.8145C176.313 36.874 176.094 36.904 175.874 36.9039L175.135 37.2328Z" fill="#E8D7B9"/>
<defs>
<linearGradient id="paint0_linear" x1="3.37447" y1="68.6486" x2="163.411" y2="68.6486" gradientUnits="userSpaceOnUse">
<stop offset="0.01" stop-color="white"/>
<stop offset="1" stop-color="#8ED1FF"/>
</linearGradient>
</defs>
</svg>
