<svg width="24" height="24" viewBox="0 0 24 24" fill="none" xmlns="http://www.w3.org/2000/svg">
<g clip-path="url(#clip0)">
<path d="M16.2582 17.628C16.7622 19.5846 15.8815 21.5039 14.2899 21.9138C12.6987 22.3246 10.9994 21.071 10.4942 19.1147C9.98924 17.1564 11.4321 17.4157 13.0238 17.0052C14.6156 16.5944 15.752 15.6711 16.2582 17.628Z" fill="#9CD8E2"/>
<path d="M16.346 17.9698C16.8501 19.9264 15.9696 21.8452 14.3782 22.2559C12.7868 22.666 11.0876 21.4127 10.5827 19.4564C10.0781 17.5001 11.5206 17.757 13.1117 17.3467C14.7035 16.9359 15.8403 16.0126 16.346 17.9698Z" fill="#80C1D1"/>
<path d="M13.7235 17.262C13.7715 17.4494 13.6594 17.6405 13.4713 17.6901L12.9631 17.821C12.7746 17.8686 12.5837 17.756 12.5354 17.5687L9.05635 4.07951C9.00728 3.89234 9.11984 3.70154 9.30809 3.65275L9.817 3.52127C10.0052 3.47314 10.196 3.58571 10.2438 3.77302L13.7235 17.262Z" fill="#6D4417"/>
<path d="M9.26763 3.6728C9.10789 3.73744 9.01177 3.90738 9.05675 4.07941L12.5358 17.5685C12.5805 17.7404 12.7472 17.8442 12.9183 17.8225C13.0787 17.7577 13.174 17.5881 13.1301 17.4158L9.6511 3.92669C9.60557 3.75401 9.43975 3.65082 9.26763 3.6728Z" fill="#895D24"/>
<path d="M13.9064 17.9715C13.9549 18.159 13.8424 18.3498 13.6551 18.3986L13.1456 18.5294C12.9578 18.578 12.7669 18.4654 12.7189 18.2776L12.0402 15.6482C11.9919 15.4603 12.1047 15.2692 12.2923 15.2214L12.8011 15.0896C12.9887 15.042 13.18 15.1542 13.2281 15.342L13.9064 17.9715Z" fill="#80C1D1"/>
<path d="M12.2649 15.2339C12.0955 15.2944 11.9946 15.4708 12.0402 15.6483L12.7189 18.2776C12.7644 18.4557 12.938 18.5613 13.1162 18.5318C13.2856 18.4722 13.387 18.2955 13.3413 18.1173L12.6161 15.3077C12.57 15.1296 12.4438 15.2048 12.2649 15.2339Z" fill="#9CD8E2"/>
<path d="M9.6762 4.02877C8.49864 4.33149 7.48226 4.05825 7.30985 3.39211L7.822 3.26C7.89322 3.53375 8.58257 3.76342 9.54366 3.51572C10.5058 3.26734 10.9983 2.73243 10.928 2.45883L11.4401 2.32673C11.6114 2.99318 10.854 3.72397 9.6762 4.02877Z" fill="#6D4417"/>
<path d="M11.667 2.14891C11.7041 2.29051 11.619 2.43481 11.4772 2.47118L7.34718 3.53669C7.20558 3.5738 7.06107 3.48856 7.02558 3.34633L6.94282 3.02629C6.90609 2.88459 6.99094 2.74077 7.1327 2.70441L11.2626 1.63913C11.4043 1.6024 11.5481 1.68724 11.5845 1.82901L11.667 2.14891Z" fill="#6D4417"/>
<path d="M11.2624 1.63873L7.13255 2.70401C6.99077 2.7404 6.90593 2.88422 6.94267 3.02589C6.97859 3.16739 7.12289 3.25252 7.26528 3.21619L11.3941 2.1512C11.5362 2.11412 11.6214 1.96981 11.5844 1.8286C11.5482 1.68698 11.4044 1.60214 11.2624 1.63873Z" fill="#845425"/>
</g>
<defs>
<clipPath id="clip0">
<rect width="17" height="17" fill="white" transform="translate(0 14.6422) rotate(-59.4639)"/>
</clipPath>
</defs>
</svg>
