<svg xmlns="http://www.w3.org/2000/svg" viewBox="0 0 512 512">
    <defs>
        <style>
            .cls-1 {
                fill: #fb6b14;
            }

            .cls-2 {
                fill: #ffcdac;
            }

            .cls-3t {
                fill: #fff;
            }
        </style>
    </defs>
    <g id="Layer_2" data-name="Layer 2">
        <g id="Capa_1" data-name="Capa 1">
            <path class="cls-1"
                d="M170.41,299.11V263.32A22.51,22.51,0,0,0,147.9,240.8H10V500.16H147.9a22.51,22.51,0,0,0,22.51-22.52V299.11Z" />
            <path class="cls-2"
                d="M469.58,307.49h-26A32.42,32.42,0,0,0,476,275.07h0a32.42,32.42,0,0,0-32.42-32.42H318.36l19-56.41a57.48,57.48,0,0,0-37.75-73.34l-17.55-5.33L254.5,183.76a104.05,104.05,0,0,1-48.08,56l-36.68,20,.67,223.23,23.33,9.15A143.88,143.88,0,0,0,246.22,502H421a32.42,32.42,0,0,0,32.42-32.42h0A32.42,32.42,0,0,0,421,437.16h25.2a32.41,32.41,0,0,0,32.42-32.42h0a32.42,32.42,0,0,0-32.42-32.42h23.43A32.42,32.42,0,0,0,502,339.9h0A32.41,32.41,0,0,0,469.58,307.49Z" />
            <circle class="cls-3t" cx="109.17" cy="443.54" r="18.01" />
            <path d="M170.41,327.89a10,10,0,1,0,7.07,2.92A10.07,10.07,0,0,0,170.41,327.89Z" />
            <path
                d="M512,339.91a42.48,42.48,0,0,0-33.12-41.38,42.39,42.39,0,0,0-35.32-65.88H332.28l14.56-43.22a67.48,67.48,0,0,0-44.32-86.1L285,98a10,10,0,0,0-12.32,6.17l-27.57,76.19A93.94,93.94,0,0,1,201.64,231l-27.54,15a32.48,32.48,0,0,0-26.2-13.29H10a10,10,0,0,0-10,10V502a10,10,0,0,0,10,10H147.9A32.51,32.51,0,0,0,176,495.85l14.12,5.54A153.12,153.12,0,0,0,246.22,512H421a42.4,42.4,0,0,0,35.22-66,42.39,42.39,0,0,0,24.92-65.24A42.48,42.48,0,0,0,512,339.91Zm-42.42,22.41H366.73a10,10,0,0,0,0,20h79.42a22.42,22.42,0,0,1,0,44.84H366.73a10,10,0,0,0,0,20H421A22.42,22.42,0,1,1,421,492H246.22a133.32,133.32,0,0,1-48.83-9.23l-17-6.66V378a10,10,0,0,0-20,0V479.48A12.53,12.53,0,0,1,147.9,492H20V252.65H147.9a12.52,12.52,0,0,1,12.51,12.51v33.95a10,10,0,0,0,20,0V265.28l30.8-16.77a113.94,113.94,0,0,0,52.69-61.35l24.34-67.27,8.46,2.58A47.47,47.47,0,0,1,327.88,183l-19,56.41a10,10,0,0,0,9.48,13.19h125.2a22.42,22.42,0,0,1,0,44.84H366.73a10,10,0,0,0,0,20H469.58a22.42,22.42,0,1,1,0,44.84Z" />
            <path
                d="M109.17,415.53a28,28,0,1,0,28,28A28,28,0,0,0,109.17,415.53Zm0,36a8,8,0,1,1,8-8A8,8,0,0,1,109.17,451.55Z" />
            <path d="M298.82,20a10,10,0,0,0,10-10,10,10,0,1,0-17.07,7.07A10.08,10.08,0,0,0,298.82,20Z" />
            <path d="M298.82,37.33a10,10,0,0,0-10,10V71.67a10,10,0,1,0,20,0V47.33A10,10,0,0,0,298.82,37.33Z" />
            <path d="M358.39,141.27a10,10,0,0,0,10,10h61.67a10,10,0,0,0,0-20H368.39A10,10,0,0,0,358.39,141.27Z" />
            <path d="M167.55,151.24h61.67a10,10,0,1,0,0-20H167.55a10,10,0,0,0,0,20Z" />
            <path d="M235.21,91.78a10,10,0,0,0,14.14-14.15L220.23,48.52a10,10,0,0,0-14.14,14.14Z" />
            <path
                d="M355.35,94.72a10,10,0,0,0,7.08-2.93l29.11-29.11A10,10,0,1,0,377.4,48.54L348.28,77.65a10,10,0,0,0,7.07,17.07Z" />
        </g>
    </g>
</svg>