<svg xmlns="http://www.w3.org/2000/svg" viewBox="0 0 81.57 74.8"><defs><style>.cls-1,.cls-2,.cls-3{fill:none;stroke-miterlimit:10;stroke-width:2.63px;}.cls-1,.cls-2{stroke:#270a49;}.cls-1{stroke-linecap:square;}.cls-3{stroke:#f95b3d;}</style></defs><g id="Layer_2" data-name="Layer 2"><g id="videoLogo"><g id="_17" data-name="17"><path class="cls-1" d="M24.59,55.93v4.6h3.19a13,13,0,0,0,1.52,3.66L27,66.45,31.63,71l2.25-2.25a13.27,13.27,0,0,0,3.66,1.51v3.19H44V70.29a13.46,13.46,0,0,0,3.67-1.51L49.94,71l4.58-4.58-2.25-2.26a13.29,13.29,0,0,0,1.52-3.66H57v-4.6"/><path class="cls-1" d="M47.89,55.93A6.75,6.75,0,0,1,48,57.29a7.25,7.25,0,0,1-14.49,0,7.56,7.56,0,0,1,.13-1.36"/><rect class="cls-2" x="16.14" y="-13.5" width="49.29" height="78.93" transform="translate(66.75 -14.82) rotate(90)"/><polygon class="cls-3" points="36.67 17.97 36.67 27.48 44.33 22.73 36.67 17.97"/><line class="cls-2" x1="28" y1="42.25" x2="72.83" y2="42.25"/><line class="cls-2" x1="18.5" y1="42.25" x2="23.17" y2="42.25"/><line class="cls-2" x1="24.33" y1="45.6" x2="24.33" y2="38.91"/><line class="cls-2" x1="13.27" y1="45.6" x2="13.27" y2="38.91"/><line class="cls-2" x1="8.44" y1="45.6" x2="8.44" y2="38.91"/><path class="cls-3" d="M48.78,16.62a11.5,11.5,0,1,1-4.45-4.12"/></g></g></g></svg>