<svg width="247" height="107" viewBox="0 0 247 107" fill="none" xmlns="http://www.w3.org/2000/svg">
<path d="M198.469 0C150.079 0 140.168 35.3459 97.0072 47.875C74.0729 54.5303 60.0911 79.0045 86.8358 85.1638C100.837 88.3841 116.96 82.5275 131.363 84.9663C148.843 87.9226 162.351 99.0884 179.836 103.631C247.197 127.131 265.556 6.71968 198.469 0Z" fill="url(#paint0_linear)"/>
<path d="M156.293 67.0806C132.697 67.0806 58.3519 78.9055 24.2756 79.0579C-1.78965 79.176 -11.8913 91.7244 19.5723 91.1898C37.2364 90.8893 39.589 90.2109 59.0526 91.4045C102.46 96.265 203.951 109.35 231.581 91.0353C247.317 80.0841 227.363 67.0806 156.293 67.0806Z" fill="url(#paint1_linear)"/>
<path d="M130.68 56.6018L131.437 52.7374C130.563 50.7666 129.69 49.2488 127.26 50.4789C128.306 46.2453 122.255 45.0302 118.567 42.499C118.693 42.7137 120.955 46.5201 121.66 51.342C122.436 56.6104 128.96 51.986 129.342 65.3417C129.558 72.3104 125.922 73.7337 127.962 78.5856C127.962 78.5856 133.861 68.738 132.178 55.8482L130.68 56.6018Z" fill="url(#paint2_linear)"/>
<path d="M118.573 68.3878C118.573 68.3878 120.972 66.3763 122.205 69.4205C124.387 74.807 125.99 79.1286 127.58 79.1286C132.277 79.1286 127.774 67.6343 126.415 66.0113C123.519 62.5655 118.573 68.3878 118.573 68.3878Z" fill="#42445D"/>
<path d="M122.944 51.7478C123.07 52.276 122.24 54.0665 122.24 54.0665C122.24 54.0665 121.401 51.5267 120.966 50.8805C120.531 50.2343 115.001 49.4035 114.826 49.3777C116.084 51.0437 116.241 52.4134 116.241 52.4134C116.241 52.4134 114.341 49.309 111.445 49.485C108.549 49.6611 104.725 47.8921 104.725 47.8921C112.037 58.0661 116.02 57.3383 123.445 61.4474C127.768 64.9789 129.28 70.0541 128.686 74.642C132.518 59.4958 122.865 50.8805 122.944 51.7478Z" fill="#0A429F"/>
<path d="M146.896 69.6337C136.585 66.0484 128.752 75.7029 128.752 75.7029L130.948 78.5925C131.641 75.3916 139.021 70.6642 144.341 70.6642C150.516 70.6642 154.845 76.5144 154.845 76.5144C152.995 72.401 148.808 70.2992 146.896 69.6337Z" fill="#42445D"/>
<path d="M123.365 50.5799C121.832 46.7714 118.746 42.7117 118.573 42.5142C118.693 42.716 120.957 46.5352 121.659 51.3485C122.436 56.6169 128.96 51.9926 129.342 65.3482C129.503 71.0095 128.372 73.5792 128.566 76.6922C129.606 73.9013 130.806 66.1125 130.09 60.565C129.183 53.5598 125.142 55.0111 123.365 50.5799Z" fill="#0D5BD9"/>
<path d="M146.552 73.702C137.547 69.1141 129.606 77.9485 129.606 77.9485L130.876 79.5908H131.64C138.196 71.8492 149.111 73.249 153.125 81.3319C151.82 77.0575 148.221 74.5521 146.552 73.702Z" fill="url(#paint3_linear)"/>
<path d="M134.471 62.0075C132.978 63.9611 124.89 79.1265 130.305 78.8517C132.136 78.7573 137.823 70.2836 140.182 66.6941C142.228 63.579 145.52 63.8623 145.52 63.8623C145.52 63.8623 137.643 57.8683 134.471 62.0075Z" fill="#0A429F"/>
<path d="M123.137 75.0435C124.948 76.439 125.348 78.4119 123.538 79.5949H129.96C128.973 73.7039 123.137 75.0435 123.137 75.0435Z" fill="#42445D"/>
<path d="M121.065 73.0726C115.667 71.1662 109.553 76.2092 113.289 84.2148C113.289 84.2148 118.464 80.7906 121.471 76.8554C124.295 73.1628 129.563 76.5634 129.919 79.5905H131.246C130.72 78.1156 127.935 71.4045 121.065 73.0726Z" fill="url(#paint4_linear)"/>
<path d="M114.842 73.8194C111.878 75.9083 111.397 79.85 113.268 84.1694C113.175 79.807 114.378 73.5661 120.769 72.9693C119.901 72.6988 117.282 72.1041 114.842 73.8194Z" fill="#0D5BD9"/>
<path d="M120.932 63.633C117.176 60.5738 111.902 66.3875 115.665 71.8813C121.077 70.7048 120.536 64.4853 126.588 66.1985C126.588 66.1985 124.969 62.2913 120.932 63.633Z" fill="#0A429F"/>
<path d="M116.667 63.4287C113.885 64.9057 113.788 68.9826 115.665 71.8809C117.632 63.6391 120.931 63.6327 120.931 63.6327C120.931 63.6327 119.446 61.9474 116.667 63.4287Z" fill="url(#paint5_linear)"/>
<path d="M145.31 58.8496C142.035 57.3103 140.405 59.3348 140.405 59.3348C136.629 57.6001 133.999 62.6237 133.999 62.6237C139.434 59.1072 141.061 67.5787 146.861 68.534C148.895 65.0819 148.587 60.3889 145.31 58.8496Z" fill="url(#paint6_linear)"/>
<path d="M145.31 58.8496C142.035 57.3103 140.405 59.3348 140.405 59.3348C140.405 59.3348 144.209 59.148 146.869 68.534C148.895 65.0819 148.586 60.3889 145.31 58.8496Z" fill="url(#paint7_linear)"/>
<path d="M115.362 54.1714C110.147 53.6969 105.053 48.2482 104.74 47.9111C113.883 62.1169 124.21 56.1615 128.253 68.7357C126.139 53.8858 120.223 54.6093 115.362 54.1714Z" fill="#0D5BD9"/>
<path d="M222.756 45.1482C221.287 46.6146 221.928 48.6176 221.928 48.6176C219.328 47.2972 218.391 48.9482 217.463 51.0285L218.271 55.144L216.671 54.3454C214.877 68.0982 221.171 78.605 221.171 78.605C223.347 73.4267 219.466 71.9089 219.697 64.4743C220.105 50.2299 227.073 55.1612 227.893 49.5429C228.646 44.3904 231.055 40.3393 231.192 40.1074C227.974 42.0525 224.226 43.6776 222.756 45.1482Z" fill="#0D5BD9"/>
<path d="M239.71 47.5637C236.622 47.3769 234.595 50.6895 234.595 50.6895C234.595 50.6895 234.762 49.2275 236.104 47.4499C235.909 47.4735 230.008 48.3709 229.554 49.0493C229.1 49.7277 228.195 52.45 228.195 52.45C228.195 52.45 227.308 50.5392 227.444 49.9746C227.58 49.41 216.778 59.1482 220.404 75.9624C220.404 75.9624 221.518 74.5261 221.516 74.5218C221.215 73.4484 220.188 65.9344 226.91 60.3246C234.84 55.9107 239.06 56.7458 246.881 45.8634C246.881 45.8462 242.799 47.744 239.71 47.5637Z" fill="#0A429F"/>
<path d="M200.979 69.0452C198.939 69.7537 194.475 71.9971 192.502 76.3853C192.502 76.3853 197.12 70.1444 203.707 70.1444C209.382 70.1444 217.294 74.32 218.04 77.7335L220.334 75.5201C220.334 75.5201 211.98 65.2195 200.979 69.0452Z" fill="url(#paint8_linear)"/>
<path d="M218.909 59.3714C218.147 65.2882 219.756 72.77 220.866 75.7563C221.078 72.4351 219.533 70.5136 219.701 64.4723C220.109 50.2279 227.078 55.1593 227.897 49.5409C228.646 44.4035 231.061 40.3309 231.197 40.1162C231.003 40.3309 227.718 44.6568 226.084 48.7186C224.18 53.446 219.868 51.896 218.909 59.3714Z" fill="url(#paint9_linear)"/>
<path d="M205.519 72.7248C203.635 73.1778 200.473 74.2684 198.741 78.0061C202.192 73.1069 213.882 72.4521 217.253 79.6677H218.069L219.428 77.9159C219.428 77.9159 214.728 70.5006 205.519 72.7248Z" fill="#0D5BD9"/>
<path d="M198.764 78.1523C198.752 78.1028 198.749 78.0554 198.741 78.0059C198.746 78.0552 198.753 78.1042 198.764 78.1523Z" fill="#0D5BD9"/>
<path d="M202.447 62.8897C202.447 62.8897 205.96 62.5849 208.142 65.9082C221.033 85.8547 225.3 76.8379 214.233 60.9082C210.852 56.49 202.447 62.8897 202.447 62.8897Z" fill="#0A429F"/>
<path d="M219.045 79.6678H225.525C224.571 78.7811 224.111 75.3311 225.525 73.4419C225.525 73.4505 219.004 75.8013 219.045 79.6678Z" fill="#333242"/>
<path d="M235.174 73.5109C232.571 71.6796 229.806 72.7057 228.851 72.6048C219.045 71.5743 218.234 78.0923 217.675 79.668H219.092C219.47 76.437 225.565 71.3962 228.174 76.9974C230.954 82.9635 236.829 84.6015 236.829 84.6015C238.846 80.0008 238.351 75.7393 235.174 73.5109Z" fill="url(#paint10_linear)"/>
<path d="M207.905 58.0572C203.44 54.0619 196.66 60.8783 201.008 67.8727C207.722 66.7628 207.375 59.0813 214.728 61.5674C214.728 61.5674 211.931 56.2066 207.905 58.0572Z" fill="#ADCDED"/>
<path d="M202.672 57.5402C199.178 59.1847 198.848 64.1955 201.008 67.8731C203.846 57.8601 207.905 58.0576 207.905 58.0576C207.905 58.0576 206.166 55.9 202.672 57.5402Z" fill="#0D5BD9"/>
<path d="M221.537 19.5859L158.154 21.2348C157.839 21.2308 157.532 21.3467 157.284 21.5632C157.037 21.7797 156.864 22.0836 156.795 22.4241L146.558 76.7612L208.957 78.4658C209.959 78.5069 210.942 78.1579 211.735 77.4796C212.529 76.8013 213.081 75.8367 213.297 74.7538L223.733 22.1557C223.894 21.2583 223.694 19.5859 221.537 19.5859Z" fill="#333242"/>
<path d="M221.275 19.5856H157.517C157.202 19.5808 156.894 19.6965 156.647 19.9131C156.399 20.1298 156.227 20.4341 156.158 20.775L144.782 77.5122C144.736 77.7604 144.741 78.0166 144.796 78.2624C144.851 78.5083 144.954 78.7377 145.098 78.9342C145.243 79.1307 145.425 79.2895 145.631 79.3993C145.837 79.509 146.063 79.567 146.292 79.5689H205.663C207.218 79.589 208.733 79.017 209.953 77.9487C211.172 76.8805 212.023 75.3809 212.361 73.7015L222.779 21.6423C222.825 21.3946 222.82 21.139 222.765 20.8936C222.711 20.6483 222.608 20.4192 222.464 20.2228C222.321 20.0264 222.14 19.8674 221.934 19.7573C221.728 19.6472 221.503 19.5885 221.275 19.5856Z" fill="#42445D"/>
<path d="M147.825 73.8152H210.213L220.679 22.3013H158.292L147.825 73.8152Z" fill="#0A429F"/>
<path d="M149.441 72.3877L159.327 23.7334H219.065L209.179 72.3898L149.441 72.3877ZM150.023 71.8725H208.804L218.48 24.2443H159.694L150.023 71.8725Z" fill="#0D5BD9"/>
<path d="M149.957 76.6128C149.938 77.0089 149.993 77.405 150.117 77.7771C150.241 78.1492 150.433 78.4895 150.679 78.7774C150.926 79.0653 151.223 79.2947 151.552 79.4518C151.881 79.6089 152.236 79.6904 152.595 79.6914H208.499C208.858 79.6907 209.212 79.6095 209.542 79.4525C209.871 79.2954 210.168 79.066 210.415 78.7781C210.662 78.4901 210.853 78.1496 210.977 77.7774C211.101 77.4052 211.156 77.009 211.137 76.6128H149.957Z" fill="url(#paint11_linear)"/>
<path d="M198.446 77.4649H195.243C194.822 77.4649 194.731 77.9458 194.771 78.3237C194.771 78.462 194.821 78.5947 194.91 78.6925C194.998 78.7904 195.118 78.8453 195.243 78.8453H198.446C199.098 78.8496 199.098 77.4542 198.446 77.4649Z" fill="#42445D"/>
<path d="M192.692 77.4649H190.629C190.208 77.4649 190.115 77.9458 190.157 78.3236C190.095 79.2447 192.271 78.7144 192.692 78.8453C193.343 78.8496 193.343 77.4542 192.692 77.4649Z" fill="#42445D"/>
<path d="M160.786 69.7857L166.258 69.7749L166.497 68.6221L161.027 68.6328L160.786 69.7857Z" fill="#0D5BD9"/>
<path d="M167.138 69.7773L170.119 69.7708L170.358 68.6201L167.376 68.6244L167.138 69.7773Z" fill="#0D5BD9"/>
<path d="M174.757 69.7665L176.913 69.7622L177.152 68.6094L174.995 68.6137L174.757 69.7665Z" fill="#0D5BD9"/>
<path d="M173.182 69.7686L173.92 69.7665L174.161 68.6157H173.423L173.182 69.7686Z" fill="#0D5BD9"/>
<path d="M171.008 69.7727L172.345 69.7705L172.586 68.6177L171.247 68.622L171.008 69.7727Z" fill="#0D5BD9"/>
<path d="M166.946 64.5107L169.102 64.5064L169.341 63.3535L167.184 63.3578L166.946 64.5107Z" fill="#0D5BD9"/>
<path d="M161.883 64.5197L166.109 64.5111L166.349 63.3604L162.122 63.3689L161.883 64.5197Z" fill="#0D5BD9"/>
<path d="M172.507 51.3616L176.735 51.3531L176.974 50.2002L172.748 50.2088L172.507 51.3616Z" fill="#0D5BD9"/>
<path d="M170.333 51.366L171.672 51.3617L171.911 50.2109L170.574 50.2131L170.333 51.366Z" fill="#0D5BD9"/>
<path d="M171.389 56.6129L175.615 56.6065L175.855 55.4536L171.628 55.4622L171.389 56.6129Z" fill="#0D5BD9"/>
<path d="M169.215 56.6172L170.552 56.6151L170.793 55.4644L169.453 55.4665L169.215 56.6172Z" fill="#0D5BD9"/>
<path d="M169.556 27.5053L177.519 27.4881L177.757 26.3374L169.797 26.3524L169.556 27.5053Z" fill="#0D5BD9"/>
<path d="M178.355 27.4882L180.324 27.4839L180.564 26.3311L178.594 26.3354L178.355 27.4882Z" fill="#0D5BD9"/>
<path d="M183.604 35.3886L191.567 35.3736L191.806 34.2207L183.845 34.2357L183.604 35.3886Z" fill="#0D5BD9"/>
<path d="M192.403 35.3715L194.372 35.3672L194.612 34.2144L192.642 34.2187L192.403 35.3715Z" fill="#0D5BD9"/>
<path d="M169.009 30.1376L171.165 30.1333L171.406 28.9805L169.25 28.9848L169.009 30.1376Z" fill="#0D5BD9"/>
<path d="M180.302 35.3847L182.459 35.3783L182.7 34.2275L180.543 34.2318L180.302 35.3847Z" fill="#0D5BD9"/>
<path d="M172.002 30.1315L176.228 30.1229L176.469 28.9722L172.241 28.9786L172.002 30.1315Z" fill="#0D5BD9"/>
<path d="M177.064 30.1203L178.404 30.1182L178.643 28.9653L177.305 28.9675L177.064 30.1203Z" fill="#0D5BD9"/>
<path d="M179.275 30.1222L183.503 30.1136L183.742 28.9629L179.516 28.9693L179.275 30.1222Z" fill="#0D5BD9"/>
<path d="M184.338 30.1116L185.677 30.1094L185.916 28.9565L184.579 28.9587L184.338 30.1116Z" fill="#0D5BD9"/>
<path d="M180.85 32.7499L183.006 32.7456L183.247 31.5928L181.09 31.5971L180.85 32.7499Z" fill="#0D5BD9"/>
<path d="M183.843 32.7438L188.069 32.7352L188.309 31.5845L184.084 31.5909L183.843 32.7438Z" fill="#0D5BD9"/>
<path d="M188.905 32.7353L190.244 32.731L190.483 31.5781L189.146 31.5824L188.905 32.7353Z" fill="#0D5BD9"/>
<path d="M168.462 32.7694L172.876 32.7608L173.114 31.6079L168.7 31.6165L168.462 32.7694Z" fill="#0D5BD9"/>
<path d="M173.71 32.7589L176.903 32.7525L177.142 31.5996L173.951 31.6061L173.71 32.7589Z" fill="#0D5BD9"/>
<path d="M177.738 32.7502L179.896 32.7459L180.135 31.5952L177.979 31.5974L177.738 32.7502Z" fill="#0D5BD9"/>
<path d="M195.478 35.3758L199.892 35.3672L200.131 34.2144L195.717 34.223L195.478 35.3758Z" fill="#0D5BD9"/>
<path d="M200.727 35.3651L203.92 35.3587L204.159 34.208L200.968 34.2144L200.727 35.3651Z" fill="#0D5BD9"/>
<path d="M204.755 35.3588L206.911 35.3545L207.152 34.2017L204.995 34.206L204.755 35.3588Z" fill="#0D5BD9"/>
<path d="M187.304 67.1195L191.718 67.1087L191.959 65.958L187.544 65.9666L187.304 67.1195Z" fill="#0D5BD9"/>
<path d="M183.276 67.1256L186.467 67.1192L186.708 65.9663L183.517 65.9749L183.276 67.1256Z" fill="#0D5BD9"/>
<path d="M180.283 67.1323L182.44 67.128L182.68 65.9751L180.524 65.9794L180.283 67.1323Z" fill="#0D5BD9"/>
<path d="M184.922 69.7618L189.335 69.7533L189.575 68.6025L185.161 68.6111L184.922 69.7618Z" fill="#0D5BD9"/>
<path d="M180.894 69.7709L184.085 69.7645L184.324 68.6138L181.133 68.6202L180.894 69.7709Z" fill="#0D5BD9"/>
<path d="M177.901 69.7773L180.058 69.773L180.298 68.6201L178.14 68.6244L177.901 69.7773Z" fill="#0D5BD9"/>
<path d="M172.594 53.9783L174.085 53.9761L174.324 52.8232L172.835 52.8254L172.594 53.9783Z" fill="#0D5BD9"/>
<path d="M169.787 53.9831L171.758 53.981L171.998 52.8281L170.028 52.8324L169.787 53.9831Z" fill="#0D5BD9"/>
<path d="M167.941 35.4061L172.353 35.3975L172.594 34.2446L168.18 34.2532L167.941 35.4061Z" fill="#0D5BD9"/>
<path d="M173.19 35.3956L176.381 35.3892L176.622 34.2363L173.431 34.2427L173.19 35.3956Z" fill="#0D5BD9"/>
<path d="M177.218 35.3862L179.374 35.3819L179.615 34.229L177.457 34.2355L177.218 35.3862Z" fill="#0D5BD9"/>
<path d="M167.392 38.0383L168.884 38.034L169.123 36.8833L167.632 36.8854L167.392 38.0383Z" fill="#0D5BD9"/>
<path d="M169.719 38.0336L171.689 38.0293L171.93 36.8765L169.96 36.8808L169.719 38.0336Z" fill="#0D5BD9"/>
<path d="M172.526 38.0275L175.7 38.0211L175.939 36.8682L172.765 36.8746L172.526 38.0275Z" fill="#0D5BD9"/>
<path d="M171.876 61.8857L173.367 61.8814L173.605 60.7285L172.115 60.7328L171.876 61.8857Z" fill="#0D5BD9"/>
<path d="M169.069 61.8896L171.039 61.8853L171.278 60.7324L169.31 60.7367L169.069 61.8896Z" fill="#0D5BD9"/>
<path d="M165.059 61.8981L168.232 61.8916L168.473 60.7388L165.299 60.7452L165.059 61.8981Z" fill="#0D5BD9"/>
<path d="M174.995 59.4357L178.169 59.4292L178.407 58.2764L175.234 58.2828L174.995 59.4357Z" fill="#0D5BD9"/>
<path d="M169.869 59.2577L174.147 59.2491L174.388 58.0962L170.108 58.1048L169.869 59.2577Z" fill="#0D5BD9"/>
<path d="M167.694 59.2619L169.032 59.2576L169.273 58.1069L167.933 58.1091L167.694 59.2619Z" fill="#0D5BD9"/>
<path d="M165.608 59.2663L166.946 59.2642L167.186 58.1113L165.847 58.1135L165.608 59.2663Z" fill="#0D5BD9"/>
<path d="M170.536 45.8937L174.762 45.8851L175.003 44.7344L170.777 44.7408L170.536 45.8937Z" fill="#0D5BD9"/>
<path d="M168.362 45.8977L169.7 45.8955L169.941 44.7427L168.601 44.7448L168.362 45.8977Z" fill="#0D5BD9"/>
<path d="M171.742 43.2595L173.233 43.2552L173.473 42.1045L171.983 42.1066L171.742 43.2595Z" fill="#0D5BD9"/>
<path d="M175.17 48.5317L176.661 48.5295L176.902 47.3745L175.411 47.3788L175.17 48.5317Z" fill="#0D5BD9"/>
<path d="M177.295 48.5299L180.871 48.5235L181.112 47.3706L177.534 47.3771L177.295 48.5299Z" fill="#0D5BD9"/>
<path d="M181.506 48.5232L183.633 48.5189L183.872 47.3682L181.744 47.3725L181.506 48.5232Z" fill="#0D5BD9"/>
<path d="M168.937 43.2634L170.907 43.2591L171.146 42.1084L169.176 42.1127L168.937 43.2634Z" fill="#0D5BD9"/>
<path d="M169.648 40.6809L171.138 40.6787L171.379 39.5259L169.888 39.528L169.648 40.6809Z" fill="#0D5BD9"/>
<path d="M166.843 40.6874L168.811 40.6831L169.052 39.5303L167.081 39.5346L166.843 40.6874Z" fill="#0D5BD9"/>
<path d="M173.008 48.5339L174.347 48.5318L174.586 47.3789L173.248 47.3811L173.008 48.5339Z" fill="#0D5BD9"/>
<path d="M170.921 48.5383L172.26 48.5362L172.499 47.3833L171.162 47.3854L170.921 48.5383Z" fill="#0D5BD9"/>
<path d="M174.737 67.1434L179.303 67.1348L179.544 65.9819L174.976 65.9905L174.737 67.1434Z" fill="#0D5BD9"/>
<path d="M169.622 67.1515L173.901 67.1429L174.141 65.9922L169.861 66.0008L169.622 67.1515Z" fill="#0D5BD9"/>
<path d="M167.448 67.1581L168.786 67.1538L169.026 66.001L167.687 66.0053L167.448 67.1581Z" fill="#0D5BD9"/>
<path d="M165.359 67.1604L166.699 67.1582L166.939 66.0054L165.6 66.0075L165.359 67.1604Z" fill="#0D5BD9"/>
<path d="M161.332 67.169L164.22 67.1648L164.459 66.0098L161.571 66.0162L161.332 67.169Z" fill="#0D5BD9"/>
<path d="M78.6073 69.4618L78.9431 67.7443C78.6093 66.9049 78.0949 66.1814 77.0894 66.7396C77.5553 64.8632 74.8687 64.3201 73.2304 63.1973C73.9124 64.3963 74.379 65.7295 74.6047 67.1239C74.9444 69.4618 77.8445 67.4094 78.0133 73.3498C78.1104 76.4434 76.4954 77.0746 77.4019 79.2279C77.4019 79.2279 80.0205 74.8569 79.2732 69.1376L78.6073 69.4618Z" fill="url(#paint12_linear)"/>
<path d="M73.2322 74.6959C73.2322 74.6959 74.2979 73.8029 74.8453 75.1554C75.8158 77.5448 76.5263 79.4642 77.2309 79.4642C79.3176 79.4642 77.3182 74.361 76.7125 73.6397C75.4275 72.1111 73.2322 74.6959 73.2322 74.6959Z" fill="#333242"/>
<path d="M75.1735 67.315C75.2298 67.5512 74.861 68.3455 74.861 68.3455C74.861 68.3455 74.4883 67.2184 74.2961 66.9307C74.1039 66.6431 71.6465 66.276 71.5786 66.2653C71.8912 66.6458 72.1074 67.1108 72.2055 67.6134C72.2055 67.6134 71.3631 66.233 70.0703 66.3125C68.7775 66.3919 67.0868 65.604 67.0868 65.604C69.4821 68.732 69.917 68.7685 71.4039 69.7195C72.8908 70.6706 74.5252 70.9068 75.3987 71.6238C76.186 72.2328 76.8177 73.0563 77.2326 74.0147C77.6475 74.9731 77.8315 76.0338 77.7668 77.094C77.7585 77.2236 77.7435 77.3527 77.7222 77.4805C77.7435 77.401 77.7591 77.3216 77.7766 77.2421C79.2829 70.2348 75.1192 67.0746 75.1735 67.315Z" fill="#0A429F"/>
<path d="M85.8069 75.2581C81.2298 73.6652 77.7533 77.9525 77.7533 77.9525L78.7083 78.8735C79.015 77.4544 82.311 75.7154 84.6733 75.7154C87.4142 75.7154 89.332 78.3131 89.332 78.3131C88.5148 76.4754 86.6571 75.5437 85.8069 75.2581Z" fill="#333242"/>
<path d="M75.3597 66.789C74.6803 65.0972 73.3098 63.296 73.2244 63.208C73.9062 64.4054 74.3722 65.7372 74.5968 67.1303C74.9365 69.4682 77.8365 67.4158 78.0054 73.3562C78.0772 75.8701 77.5725 77.0059 77.6599 78.3928C78.1219 77.1497 78.6556 73.6954 78.3373 71.233C77.9432 68.1114 76.1516 68.7555 75.3597 66.789Z" fill="#0D5BD9"/>
<path d="M85.6556 77.0533C81.6569 75.016 78.1318 78.9404 78.1318 78.9404L78.6967 79.6682H79.0345C81.9462 76.2332 86.7989 76.8515 88.5731 80.441C87.9927 78.5432 86.3952 77.4312 85.6556 77.0533Z" fill="url(#paint13_linear)"/>
<path d="M80.3019 71.8616C79.638 72.7203 76.047 79.4615 78.4521 79.3391C79.2635 79.2983 81.7888 75.5371 82.837 73.9419C83.1117 73.5373 83.4705 73.2118 83.8831 72.9932C84.2957 72.7746 84.7499 72.6692 85.2071 72.686C85.2071 72.686 81.6995 70.0217 80.3019 71.8616Z" fill="#0D5BD9"/>
<path d="M75.2551 77.6475C76.0587 78.2658 76.2373 79.1504 75.4337 79.6678H78.2852C77.8504 77.055 75.2551 77.6475 75.2551 77.6475Z" fill="#333242"/>
<path d="M74.3386 76.7739C71.9879 75.8959 69.2044 78.2231 70.8873 81.7117C70.8873 81.7117 73.1837 80.1917 74.5191 78.4463C75.7712 76.8061 78.1121 78.3154 78.2693 79.6593H78.8517C78.6265 79.0131 77.39 76.0354 74.3386 76.7739Z" fill="url(#paint14_linear)"/>
<path d="M71.5766 77.1066C70.2605 78.034 70.0471 79.7837 70.8779 81.7008C70.7536 79.9361 71.5203 76.8425 74.2087 76.7287C73.7701 76.5884 73.31 76.5496 72.8572 76.6146C72.4043 76.6796 71.9683 76.8471 71.5766 77.1066Z" fill="#0D5BD9"/>
<path d="M74.2846 72.5833C72.6501 71.205 70.2606 73.85 71.9552 76.2459C74.1894 75.8272 74.2108 72.9333 76.808 73.7233C76.5882 73.2229 76.2091 72.8298 75.7434 72.6195C75.2778 72.4091 74.7583 72.3962 74.2846 72.5833Z" fill="#0A429F"/>
<path d="M72.3859 72.4935C71.1513 73.1483 71.1086 74.9581 71.9433 76.2462C72.8148 72.5965 74.2726 72.5836 74.2726 72.5836C74.2726 72.5836 73.6204 71.8387 72.3859 72.4935Z" fill="url(#paint15_linear)"/>
<path d="M85.1043 70.4599C83.6484 69.7772 82.9263 70.6746 82.9263 70.6746C81.2492 69.906 80.0845 72.1366 80.0845 72.1366C82.4429 70.5608 83.3688 74.4294 85.7952 74.7579C86.694 73.2272 86.5582 71.1426 85.1043 70.4599Z" fill="url(#paint16_linear)"/>
<path d="M85.1044 70.4599C83.6486 69.7772 82.9265 70.6746 82.9265 70.6746C82.9265 70.6746 84.6152 70.593 85.7954 74.7536C86.6941 73.2272 86.5583 71.1426 85.1044 70.4599Z" fill="url(#paint17_linear)"/>
<path d="M71.8077 68.3884C69.492 68.1737 67.2306 65.7606 67.0928 65.6104C70.909 71.7353 75.7171 69.2879 77.5301 74.8419C76.5926 68.2574 73.9663 68.5773 71.8077 68.3884Z" fill="#0D5BD9"/>
<g style="mix-blend-mode:multiply">
<path d="M205.168 87.71C182.954 87.7271 182.954 95.1273 205.168 95.1445C227.38 95.1295 227.38 87.7293 205.168 87.71Z" fill="#C4D8FB"/>
</g>
<path fill-rule="evenodd" clip-rule="evenodd" d="M205.222 72.9351C203.118 73.5792 202.008 77.0828 201.039 79.161C201.039 79.161 201.688 80.6638 204.1 80.842C204.1 80.842 206.585 76.4602 206.599 75.3503C206.612 74.2404 205.644 72.8084 205.222 72.9351Z" fill="#FFB725"/>
<path fill-rule="evenodd" clip-rule="evenodd" d="M205.222 72.9351C205.101 72.9737 204.981 73.021 204.865 73.0768C205.298 75.5651 203.545 78.1499 201.888 80.0971C202.556 80.5484 203.318 80.8033 204.1 80.8377C204.1 80.8377 206.585 76.456 206.599 75.346C206.612 74.2361 205.644 72.8085 205.222 72.9351Z" fill="#42445D"/>
<path fill-rule="evenodd" clip-rule="evenodd" d="M204.339 73.3731C203.687 73.8604 204.285 82.0765 203.671 83.3603C202.701 85.3977 201.507 87.8537 201.507 87.8537C204.054 89.5132 213.835 89.5068 213.835 89.5068C214.78 87.8194 215.693 72.684 215.244 72.4285C211.133 71.2327 205.481 72.5165 204.339 73.3731Z" fill="#FFB725"/>
<path fill-rule="evenodd" clip-rule="evenodd" d="M211.205 67.5596L207.957 69.7902C208.563 71.5077 206.89 73.2874 208.703 73.7018C209.772 73.9551 211.752 72.8688 211.488 71.892C211.028 70.1874 211.205 67.5596 211.205 67.5596Z" fill="#FFCAB8"/>
<path fill-rule="evenodd" clip-rule="evenodd" d="M211.205 67.5596L207.957 69.7902C208.06 70.022 208.194 71.6322 207.868 72.287C208.276 72.2142 208.664 72.0395 209.002 71.776C209.778 71.1212 210.958 71.9907 210.914 73.0341C211.331 72.6992 211.595 72.287 211.496 71.892C211.028 70.1874 211.205 67.5596 211.205 67.5596Z" fill="#FFC3AB"/>
<path fill-rule="evenodd" clip-rule="evenodd" d="M214.716 72.2869C213.451 72.0829 211.255 74.3028 211.143 77.8236C211.036 80.256 210.077 82.5059 207.445 83.1908C204.962 84.3351 210.817 84.5304 210.269 85.3935C201.765 89.7774 209.774 89.6443 214.016 88.7748C215.099 85.0392 214.943 79.5433 215.275 75.3483C215.44 73.5965 216.102 72.5123 214.716 72.2869Z" fill="url(#paint18_linear)"/>
<path fill-rule="evenodd" clip-rule="evenodd" d="M201.608 91.3705C200.744 91.4586 196.794 90.7136 195.856 92.2293C195.039 93.3027 195.534 96.6905 197.312 95.8081C199.09 94.9257 199.448 94.7561 201.311 94.6724C201.87 94.4899 201.979 94.6982 201.921 94.243C201.862 93.7879 201.608 91.3705 201.608 91.3705Z" fill="white"/>
<path fill-rule="evenodd" clip-rule="evenodd" d="M201.608 91.3704C200.36 91.4391 195.059 90.3657 195.482 93.7513C197.085 94.2364 199.364 92.4052 200.303 94.7474C200.641 94.786 200.982 94.7584 201.311 94.6658C201.87 94.4833 201.979 94.6916 201.92 94.2364C201.862 93.7813 201.608 91.3704 201.608 91.3704Z" fill="url(#paint19_linear)"/>
<path fill-rule="evenodd" clip-rule="evenodd" d="M197.064 91.7439C197.403 91.497 198.015 91.3145 197.881 91.3145C194.311 91.1792 195.262 96.6365 197.105 95.8572C196.037 94.8804 195.715 92.7293 197.064 91.7439Z" fill="#333242"/>
<path fill-rule="evenodd" clip-rule="evenodd" d="M215.223 91.4498C214.64 91.3489 212.699 91.366 211.222 91.1299C211.222 91.1299 209.648 93.5966 209.609 93.6546C210.368 94.3394 213.07 96.1428 214.343 95.9496C214.897 95.8358 215.92 93.4034 216.127 92.5296C216.335 91.6559 215.805 91.5528 215.223 91.4498Z" fill="white"/>
<path fill-rule="evenodd" clip-rule="evenodd" d="M215.223 91.4498C214.641 91.3489 212.699 91.366 211.222 91.1299L209.636 93.6138C212.664 92.9547 210.985 93.6611 213.472 93.7877C214.287 93.7126 213.781 95.4301 213.084 95.7199C213.614 95.8916 214.107 95.999 214.342 95.9496C214.895 95.8358 215.918 93.4034 216.126 92.5296C216.333 91.6559 215.805 91.5528 215.223 91.4498Z" fill="url(#paint20_linear)"/>
<path fill-rule="evenodd" clip-rule="evenodd" d="M196.635 85.8916C194.385 86.321 193.878 89.8848 196.103 90.6856C196.901 90.9561 209.277 94.0798 209.628 94.1742C209.98 94.2687 211.457 90.2927 211.457 90.2927C211.011 90.1166 199.319 85.269 196.635 85.8916Z" fill="#0D5BD9"/>
<path fill-rule="evenodd" clip-rule="evenodd" d="M200.381 89.6419C197.794 89.732 196.943 89.3456 194.725 88.0425C194.599 88.5952 194.673 89.1801 194.93 89.674C195.187 90.1678 195.608 90.5319 196.103 90.6895C196.901 90.96 209.277 94.0837 209.629 94.1782C209.98 94.2726 211.457 90.2967 211.457 90.2967C211.292 90.2323 207.781 88.8669 205.581 88.0425C203.832 88.985 202.318 89.5667 200.381 89.6419Z" fill="#0A429F"/>
<path fill-rule="evenodd" clip-rule="evenodd" d="M204.477 63.5063C203.411 64.3651 203.995 65.9752 204.541 66.7137C204.541 66.7137 205.261 64.6828 205.158 64.0989C205.137 63.983 204.477 63.5063 204.477 63.5063Z" fill="#333242"/>
<path fill-rule="evenodd" clip-rule="evenodd" d="M207.833 72.4477L207.934 72.1493C206.455 72.0849 207.575 75.6637 207.68 75.4683C207.788 74.6955 208.811 73.6843 208.811 73.6843C207.899 73.2549 207.833 72.4477 207.833 72.4477Z" fill="white"/>
<path fill-rule="evenodd" clip-rule="evenodd" d="M212.342 66.3251C212.007 65.6531 211.424 66.2114 211.424 66.2114C211.069 63.4634 209.504 61.763 206.003 63.3861C204.025 64.0301 204.407 64.7235 204.407 64.7235C204.436 66.0696 204.518 69.2899 206.48 71.2371C207.27 72.3106 208.382 71.7116 209.821 70.7756C211.259 69.8396 211.18 68.9164 211.17 68.7446C211.923 68.9486 212.911 67.3148 212.342 66.3251Z" fill="#FFCAB8"/>
<path fill-rule="evenodd" clip-rule="evenodd" d="M212.342 66.3249C212.006 65.6529 211.424 66.2111 211.424 66.2111C211.424 66.2111 211.3 64.4936 210.197 63.3837C209.945 63.1282 208.666 63.5983 208.829 64.3369C209.58 65.9384 210.401 68.0746 209.584 69.7964C208.879 70.8827 207.656 71.7543 206.439 71.1811C207.243 73.0811 211.595 70.0196 211.17 68.7444C211.923 68.9483 212.911 67.3146 212.342 66.3249Z" fill="#FFC3AB"/>
<path fill-rule="evenodd" clip-rule="evenodd" d="M204.262 63.1369C204.013 63.7144 203.765 65.6144 205.184 66.0438C206.75 66.5182 209.51 64.3263 210.122 65.5951C210.621 66.632 210.023 67.3126 210.471 67.729C211.636 68.4117 210.681 66.0459 211.919 65.9944C213.031 60.6917 205.855 59.4722 204.262 63.1369Z" fill="#42445D"/>
<path fill-rule="evenodd" clip-rule="evenodd" d="M208.574 61.0181C209.046 61.3852 209.015 61.9799 208.951 62.6003C208.408 65.6703 211.321 64.2577 210.401 67.6498C211.608 68.6073 210.684 66.0332 211.919 65.9945C212.587 63.9615 210.745 61.0567 208.574 61.0181Z" fill="#333242"/>
<path fill-rule="evenodd" clip-rule="evenodd" d="M215.495 86.2181C212.983 84.7153 202.076 90.2263 200.245 90.5461C200.245 90.5461 199.624 93.4552 201.321 95.2285C201.321 95.2285 209.861 92.9571 215.361 90.3551C216.904 90.0095 216.937 87.0124 215.495 86.2181Z" fill="#0D5BD9"/>
<path fill-rule="evenodd" clip-rule="evenodd" d="M215.689 86.3726C216.481 88.7685 213.942 90.7758 212.036 89.303C210.444 89.2193 209.706 91.4842 208.074 91.641C204.66 91.5057 203.803 93.6998 200.137 91.9394C200.156 92.9312 200.385 94.2515 201.321 95.2284C201.321 95.2284 209.862 92.957 215.361 90.355C216.797 90.0437 216.966 87.2936 215.689 86.3726Z" fill="#0A429F"/>
<path fill-rule="evenodd" clip-rule="evenodd" d="M211.502 66.8447C211.349 67.1711 211.502 67.3471 211.595 67.6069C211.609 67.7894 211.434 67.7078 211.384 67.901C211.333 68.0942 211.37 68.2316 211.556 68.2788C212.451 68.3883 212.474 65.3827 211.502 66.8447Z" fill="#C95F39"/>
<path fill-rule="evenodd" clip-rule="evenodd" d="M215.324 91.4688C215.788 91.8788 214.512 95.3331 213.472 95.8355C214.955 96.6105 215.644 93.8646 216.127 92.5293C216.322 91.7049 215.863 91.5739 215.324 91.4688Z" fill="#333242"/>
<path fill-rule="evenodd" clip-rule="evenodd" d="M213.787 74.4939C213.536 76.4497 216.174 81.5334 216.174 81.5334C214.742 81.117 207.874 79.6507 206.377 78.6975C206.052 78.8064 205.732 78.9391 205.422 79.0946C205.38 79.1311 204.064 80.3312 204.176 80.5974C204.774 80.7821 205.32 79.3609 206.546 79.4145C205.991 79.6721 204.623 80.6167 204.549 81.3789C204.893 81.5055 205.519 80.7756 205.626 80.6318C205.704 80.5588 206.331 80.2024 206.331 80.2024C206.181 80.2303 204.285 82.8903 205.49 81.9521C206.038 81.3338 206.267 80.9495 206.903 80.7176C206.587 80.9452 205.972 82.1367 206.385 82.4695C206.591 82.4115 206.731 81.7266 206.731 81.7266C206.825 81.6505 206.904 81.555 206.966 81.4454C207.096 81.6172 209.196 81.9607 209.427 81.4712C209.483 81.7095 216.887 84.1634 217.624 84.3351C218.362 84.5069 218.964 83.9508 219.022 83.6588C219.309 82.2032 217.663 77.7657 216.582 74.6807C215.598 71.8576 213.851 73.955 213.787 74.4939Z" fill="#FFCAB8"/>
<path fill-rule="evenodd" clip-rule="evenodd" d="M213.787 74.4938C213.571 76.1769 215.491 80.1658 216.033 81.2543C216.41 81.2887 216.789 81.2062 217.127 81.016C218.065 80.5287 219.297 82.1238 217.904 83.0941C216.974 83.7382 215.506 83.1929 209.536 81.0139C208.977 80.7992 208.371 81.2715 207.969 81.2629C206.876 80.8099 206.686 81.4303 206.309 82.4372C206.546 82.6519 206.736 81.6987 206.731 81.7373C206.825 81.6612 206.904 81.5657 206.966 81.4561C207.096 81.6279 209.196 81.9713 209.427 81.4819C209.483 81.7202 216.887 84.174 217.624 84.3458C218.362 84.5175 218.964 83.9615 219.022 83.6695C219.309 82.2139 217.663 77.7764 216.582 74.6914C215.598 71.8575 213.851 73.9549 213.787 74.4938Z" fill="#FFC3AB"/>
<path fill-rule="evenodd" clip-rule="evenodd" d="M214.46 72.3298C212.519 72.7592 212.325 75.4427 215.691 80.9516C215.691 80.9516 217.762 80.7927 218.868 79.6398C218.868 79.6398 216.632 71.851 214.46 72.3298Z" fill="#FFB725"/>
<path fill-rule="evenodd" clip-rule="evenodd" d="M214.878 72.3359C215.561 74.1608 215.085 76.4601 214.175 78.1668C214.631 79.1288 215.137 80.0606 215.691 80.9578C215.691 80.9578 217.762 80.7989 218.868 79.646C218.868 79.6396 216.91 72.8211 214.878 72.3359Z" fill="url(#paint21_linear)"/>
<path fill-rule="evenodd" clip-rule="evenodd" d="M211.339 71.0396L211.438 71.6836C211.438 71.6836 210.124 73.8584 208.807 73.6952C208.807 73.6952 209.862 74.6935 210.151 75.5286C210.376 75.4599 213.183 71.909 211.339 71.0396Z" fill="white"/>
<path d="M204.628 85.4365C204.112 86.701 217.03 85.7157 217.277 86.0098C217.345 86.0098 217.412 85.9949 217.475 85.9661C217.537 85.9372 217.594 85.895 217.642 85.8417C217.69 85.7885 217.728 85.7252 217.754 85.6557C217.78 85.5862 217.793 85.5117 217.793 85.4365H204.628Z" fill="#42445D"/>
<path d="M203.318 73.603C203.262 73.3789 203.14 73.1818 202.971 73.0433C202.802 72.9048 202.596 72.8328 202.386 72.8387H194.942V85.8702L205.23 86.0119C205.859 86.0119 205.898 85.4751 205.855 85.2884L203.318 73.603Z" fill="#42445D"/>
<path d="M202.786 73.0788C202.769 73.0081 202.731 72.9457 202.679 72.9014C202.626 72.8571 202.561 72.8334 202.495 72.834H189.354C189.307 72.8334 189.26 72.8452 189.217 72.8683C189.175 72.8915 189.138 72.9253 189.11 72.9671C189.081 73.0089 189.062 73.0575 189.054 73.109C189.046 73.1605 189.049 73.2134 189.063 73.2634L191.528 84.8071C191.615 85.1549 191.803 85.4615 192.063 85.6798C192.323 85.8981 192.64 86.0162 192.966 86.0158H205.195C206.146 86.1253 202.604 73.3965 202.786 73.0788Z" fill="white"/>
<path d="M100.977 28.4932H94.7265C94.8682 29.7469 93.6103 31.2369 93.0086 32.2523C92.4068 33.2678 92.2438 37.115 97.8032 37.115C103.363 37.115 103.184 33.3923 102.704 32.2523C102.237 31.151 100.837 29.7448 100.977 28.4932Z" fill="#D0DDFD"/>
<path d="M100.977 28.4932H99.9791C101.266 31.0393 99.8665 34.4507 99.8665 34.4507C99.8665 34.4507 99.1735 32.7547 98.9503 33.0961C97.5255 35.887 92.5815 35.9707 93.2532 31.8616C89.5981 38.5298 105.15 39.0514 102.704 32.2523C102.237 31.151 100.837 29.7448 100.977 28.4932Z" fill="url(#paint22_linear)"/>
<path fill-rule="evenodd" clip-rule="evenodd" d="M100.39 83.822C98.8609 80.7691 99.8702 77.9482 99.1481 73.9336C98.3406 68.7511 98.4066 62.7699 98.5541 57.5401L93.7111 54.8394C94.1614 62.6067 95.3299 67.3856 95.6424 72.9503C95.9588 75.7133 97.537 80.0521 98.2377 82.959C98.4803 83.9637 98.7405 88.5408 98.692 89.3523C98.6609 89.8611 98.3484 90.6855 98.9928 90.6855C99.5325 90.6855 100.977 90.0136 101.163 89.3223C101.357 88.5902 100.775 87.2677 100.567 85.9603C100.402 84.9513 100.55 84.3308 100.39 83.822Z" fill="#FFC3AB"/>
<path fill-rule="evenodd" clip-rule="evenodd" d="M97.1332 73.9699C96.3568 71.2541 95.7919 68.4803 96.3917 65.6808C97.0246 62.7246 96.5315 59.6696 97.0206 56.6876L93.7111 54.8413C94.1595 62.6065 95.3299 67.3876 95.6424 72.9523C95.9588 75.7153 97.537 80.054 98.2377 82.9609C98.4803 83.9656 98.7405 88.5427 98.692 89.3542C98.3038 90.9794 99.0219 90.8957 100.214 90.2624C100.134 87.7978 98.9676 85.3246 98.855 82.845C98.7269 79.6312 97.999 77.0077 97.1332 73.9699Z" fill="#FFCAB8"/>
<path fill-rule="evenodd" clip-rule="evenodd" d="M100.769 87.0273C100.75 88.3433 99.5269 90.0329 98.6883 88.5301C98.8727 89.2708 98.1739 90.6212 98.993 90.677C101.056 90.2476 101.656 89.3888 100.787 86.9521C100.779 86.9768 100.773 87.0019 100.769 87.0273Z" fill="#42445D"/>
<path fill-rule="evenodd" clip-rule="evenodd" d="M100.769 87.0275C100.666 87.6265 100.546 88.3864 100.101 88.8287C100.008 89.8892 98.8201 90.3852 98.5969 90.2972C98.791 91.347 100.992 89.988 101.163 89.3225C101.309 88.7793 101.027 87.9077 100.786 86.9609C100.779 86.9827 100.774 87.005 100.769 87.0275Z" fill="#333242"/>
<path fill-rule="evenodd" clip-rule="evenodd" d="M100.101 35.2128C98.6552 35.6529 98.9794 33.8796 98.7911 32.3296L96.8267 33.0939C97.6439 36.1188 95.9473 36.1853 94.0528 36.7628C93.1075 37.0119 92.7192 43.7509 92.5329 45.7346L94.2062 46.4731C94.5769 45.0476 95.2078 43.431 95.2078 41.7006L103.188 37.5486C102.644 35.0475 101.821 34.6825 100.101 35.2128Z" fill="#FFCAB8"/>
<path fill-rule="evenodd" clip-rule="evenodd" d="M101.159 37.5422C101.159 37.5422 103.599 43.7145 104.486 44.9532L105.828 43.5577C105.404 42.4135 104.579 38.6199 103.436 36.4902L101.159 37.5422Z" fill="#FFCAB8"/>
<path fill-rule="evenodd" clip-rule="evenodd" d="M104.242 43.6997C103.671 42.5125 103.809 40.707 103.888 40.5031C104.044 40.1037 104.486 39.187 104.366 38.7168C104.05 37.4781 102.514 38.0041 102.293 37.1303C102.286 37.0985 102.281 37.0662 102.277 37.0337L101.159 37.5511C101.159 37.5511 103.599 43.7233 104.486 44.962L105.232 44.1849C105.069 44.069 104.36 43.9359 104.242 43.6997Z" fill="#FFC3AB"/>
<path fill-rule="evenodd" clip-rule="evenodd" d="M115.073 44.6784C114.433 44.6247 114.986 44.0987 114.448 44.1309C113.858 44.1502 113.291 44.3927 112.843 44.8179C112.369 45.2473 107.947 43.7853 105.855 43.1305C105.139 42.9158 104.071 44.6161 104.517 44.9982C106.68 46.8445 110.739 46.2864 112.321 46.4409C113.549 46.4044 115.31 46.9304 115.327 46.1167C115.382 46.1172 115.437 46.1047 115.487 46.0801C115.537 46.0555 115.582 46.0193 115.619 45.9741C115.656 45.9288 115.683 45.8755 115.7 45.8175C115.717 45.7596 115.722 45.6984 115.716 45.638C115.765 45.6382 115.813 45.6245 115.856 45.5983C115.899 45.572 115.935 45.534 115.961 45.488C115.987 45.4419 116.001 45.3893 116.004 45.3352C116.006 45.281 115.996 45.2271 115.974 45.1785C116.362 45.1785 116.704 45.1507 116.616 44.8243C116.566 44.6633 115.452 44.7106 115.073 44.6784Z" fill="#FFCAB8"/>
<path fill-rule="evenodd" clip-rule="evenodd" d="M115.073 44.6783C114.174 44.601 113.372 45.9664 112.633 45.9986C109.906 45.595 107.26 45.0669 104.661 43.9634C102.957 46.7028 112.037 46.4044 112.32 46.4409C112.971 46.3571 115.457 46.9346 115.327 46.1167C115.382 46.1171 115.437 46.1046 115.487 46.08C115.537 46.0554 115.582 46.0193 115.619 45.974C115.656 45.9288 115.683 45.8754 115.7 45.8175C115.716 45.7595 115.722 45.6983 115.715 45.6379C115.764 45.6381 115.813 45.6245 115.856 45.5982C115.898 45.572 115.935 45.534 115.96 45.4879C115.986 45.4419 116.001 45.3893 116.003 45.3351C116.006 45.2809 115.995 45.227 115.974 45.1785C116.362 45.1785 116.703 45.1506 116.616 44.8243C116.566 44.6633 115.451 44.7105 115.073 44.6783Z" fill="#FFC3AB"/>
<path fill-rule="evenodd" clip-rule="evenodd" d="M113.448 44.3754C114.005 44.5901 114.432 44.8048 114.904 44.1607C115.335 44.15 115.593 43.9224 115.626 43.5811C115.293 43.6943 114.949 43.7613 114.601 43.7807L113.448 44.3754Z" fill="#FFCAB8"/>
<path fill-rule="evenodd" clip-rule="evenodd" d="M100.101 35.2128C98.6552 35.6529 98.9793 33.8796 98.791 32.3296L96.8266 33.0939C96.9004 34.4121 98.3795 36.063 99.4665 36.0222C100.313 35.6443 101.192 34.8478 102.233 35.3652C101.724 34.8972 101.047 34.9251 100.101 35.2128Z" fill="#FFC3AB"/>
<path fill-rule="evenodd" clip-rule="evenodd" d="M94.3497 41.9175C94.3846 43.3709 93.9614 44.9789 93.5596 46.3228L94.2021 46.4731C94.4991 45.3288 95.1436 44.045 95.1863 42.7097C94.9398 42.6109 94.404 42.0184 94.3497 41.9175Z" fill="#FFC3AB"/>
<path fill-rule="evenodd" clip-rule="evenodd" d="M99.0241 26.7688C94.4819 24.6799 93.8569 33.1965 97.7217 34.3451C100.509 33.774 101.13 28.2651 99.0241 26.7688Z" fill="#FFCAB8"/>
<path fill-rule="evenodd" clip-rule="evenodd" d="M98.6609 52.8062C96.4927 57.1342 97.9737 64.4314 97.3604 69.337C96.877 71.2692 97.504 73.2271 96.8169 75.1121C96.1821 78.6222 96.8867 81.1512 96.1918 83.8283C95.9647 84.7021 95.693 84.6226 95.5746 85.0005C95.4154 85.5093 95.5649 86.1297 95.3979 87.1473C95.1825 88.4548 94.5923 89.7837 94.8039 90.5094C97.9252 95.7477 96.9955 87.8859 97.2381 86.0803C97.3138 85.0069 99.8742 77.2181 100.193 74.4551C100.493 71.8359 100.338 70.6208 100.874 67.5444C101.712 62.2674 102.71 57.744 101.875 52.8298L98.6609 52.8062Z" fill="#FFCAB8"/>
<path fill-rule="evenodd" clip-rule="evenodd" d="M96.6072 90.5009C95.495 90.5009 95.1999 88.3433 95.1631 88.1694C94.9204 89.1055 94.6429 89.9642 94.7981 90.4967C95.858 92.4718 97.2051 93.2876 97.1275 90.0845C96.9955 90.2348 96.8324 90.5009 96.6072 90.5009Z" fill="#42445D"/>
<path fill-rule="evenodd" clip-rule="evenodd" d="M96.6075 90.501C96.4839 90.5006 96.3616 90.4721 96.2484 90.4172C96.4114 91.1193 95.7301 91.5787 95.2002 91.1944C96.6929 93.1953 97.1413 92.0102 97.1278 90.0845C96.9958 90.2348 96.8327 90.501 96.6075 90.501Z" fill="#333242"/>
<path fill-rule="evenodd" clip-rule="evenodd" d="M103.368 49.0667C102.398 49.3393 96.5742 49.8524 94.4389 48.4956C94.2778 49.5261 92.6046 51.4668 92.6046 54.7386C92.6046 59.509 94.4292 69.084 94.4292 69.084C94.4292 69.084 98.5056 70.3313 101.378 69.2686C102.854 61.673 104.486 55.3892 103.368 49.0667Z" fill="#FFB725"/>
<path fill-rule="evenodd" clip-rule="evenodd" d="M103.374 49.127C101.411 51.4584 97.0324 52.3472 97.605 53.5731C97.9932 54.4318 101.173 55.2906 101.705 55.8294C102.852 56.9952 99.6062 58.5302 99.8275 61.2503C99.9323 62.5148 99.3481 64.8012 99.0511 66.0249C98.5813 67.9055 96.1705 67.766 95.0834 69.2452C96.3413 69.5457 99.2103 70.0696 101.394 69.2624C102.85 61.6346 104.48 55.5074 103.374 49.127Z" fill="url(#paint23_linear)"/>
<path fill-rule="evenodd" clip-rule="evenodd" d="M104.191 36.78C100.65 32.512 99.317 36.0866 97.8029 37.1149L95.3473 36.2562C95.3473 36.2562 92.8996 36.3528 92.6045 38.8947C92.5055 39.7534 94.466 39.7104 94.0856 40.8547C93.5595 42.4284 94.5573 43.0595 95.0872 43.5361C95.7802 47.0291 94.6175 46.6147 94.3671 48.796C94.6019 50.3288 102.774 50.0111 103.459 49.1137C104.183 48.1626 103.473 42.4863 103.16 39.5086C102.974 37.7504 104.436 37.1278 104.191 36.78Z" fill="#FFB725"/>
<path fill-rule="evenodd" clip-rule="evenodd" d="M102.401 36.4456C99.7809 34.1528 99.878 36.4714 97.8029 37.1155L95.3473 36.2567C94.8603 36.2989 94.3862 36.45 93.9537 36.7011C94.6991 37.2786 96.4771 37.1927 96.3645 38.732C96.3746 38.8899 96.4297 39.0403 96.5218 39.1614C97.3661 39.7325 96.8051 41.8407 95.8074 42.3688C95.13 42.7273 98.4357 45.0051 98.4357 47.2185C98.4357 48.1567 100.447 47.2186 101.134 46.6454C101.755 46.1215 102.17 46.6153 101.559 47.1327C99.4644 49.2366 98.1543 48.7385 95.4697 49.5329C97.7738 50.1576 102.922 49.8098 103.459 49.1035C104.183 48.1524 103.473 42.4761 103.16 39.4984C102.974 37.7509 103.153 36.9823 102.401 36.4456ZM102.314 40.3851C101.485 41.2095 102.627 43.6397 100.897 42.6543C100.522 42.3838 99.0491 43.3499 98.1911 43.191C97.4147 43.045 97.5719 42.3216 98.5794 41.7119C99.7537 41.0034 100.52 40.574 99.5246 39.4018C98.6647 38.3842 100.689 39.535 101.021 39.7518C101.555 40.091 102.52 40.0502 102.314 40.3851Z" fill="url(#paint24_linear)"/>
<path fill-rule="evenodd" clip-rule="evenodd" d="M97.2981 32.117C97.2573 32.3528 97.8552 32.3313 98.0047 32.297C98.7035 32.1213 97.3971 31.8256 97.2981 32.117Z" fill="#FFC3AB"/>
<path d="M99.0239 26.4274C96.1918 25.1286 94.765 27.9646 95.2969 30.7791C97.0691 28.5485 98.2085 27.7177 98.2745 27.6683C98.1542 28.0977 97.5156 29.1711 97.5156 29.1711C98.1836 28.8602 98.7982 28.4245 99.3325 27.883C99.7582 28.3014 100.068 28.8448 100.225 29.4502C100.231 28.1492 99.9071 26.9534 99.0239 26.4274Z" fill="#FFC3AB"/>
<path d="M99.7558 26.2303C98.7445 23.6541 94.6138 25.0732 94.7264 27.9714C94.7264 29.2445 94.967 29.7877 94.8409 30.9105C96.8228 28.3342 98.0865 27.4562 98.0865 27.4562C97.9681 27.8856 97.3256 28.959 97.3256 28.959C97.993 28.647 98.6074 28.2114 99.1424 27.6709C100.057 28.4867 100.21 30.0946 100.21 30.0946C101.425 28.843 101.21 26.4278 99.7558 26.2303Z" fill="#D0DDFD"/>
<path d="M94.8408 30.9103C96.8227 28.3341 98.0864 27.4561 98.0864 27.4561C97.968 27.8854 97.3255 28.9589 97.3255 28.9589C97.7428 28.7742 98.3426 27.8854 98.5814 27.061C96.3277 27.0632 94.8428 30.8867 94.8408 30.9103Z" fill="url(#paint25_linear)"/>
<path d="M100.829 27.0635C101.134 27.8471 100.86 28.9227 100.012 29.1696C100.104 29.4702 100.169 29.7801 100.206 30.0948C100.899 29.2769 101.287 28.0639 100.829 27.0635Z" fill="url(#paint26_linear)"/>
<path d="M99.8644 29.8952C99.3791 29.7406 98.6123 29.6483 98.2785 30.1099V30.097C98.127 30.1622 97.9651 30.1927 97.8027 30.1868C97.6402 30.1809 97.4805 30.1387 97.3332 30.0626C97.1042 29.6505 96.5218 29.6333 96.1045 29.6591C96.075 29.706 96.0432 29.7511 96.0093 29.7943C98.921 29.5195 96.0909 32.8986 95.427 30.4727C95.3962 30.5243 95.3625 30.5738 95.326 30.6209C95.326 30.6209 95.326 30.6402 95.326 30.6509V30.6294C95.5493 31.7694 97.3138 31.6814 97.3953 30.5049V30.52C97.4435 30.4565 97.504 30.406 97.5725 30.3724C97.6409 30.3387 97.7153 30.3227 97.7902 30.3256C97.865 30.3285 97.9383 30.3502 98.0044 30.3891C98.0705 30.428 98.1277 30.483 98.1718 30.55V30.5328C98.4707 32.2503 100.553 31.7115 100.212 29.9253C100.087 29.916 99.9633 29.8967 99.8411 29.8673L99.8644 29.8952ZM100.167 30.5586C99.6431 32.9545 96.778 29.9317 99.249 29.9145C99.9071 29.936 100.183 30.1271 100.167 30.5586Z" fill="#FFC3AB"/>
<path d="M96.2928 29.5712C94.8699 29.3028 94.9088 31.3016 96.2365 31.3789C97.5661 31.4025 97.7311 29.4144 96.2928 29.5712ZM96.2404 31.25C95.1999 31.2157 94.8563 29.496 96.2889 29.7C97.7311 29.6077 97.2808 31.2951 96.2404 31.2479V31.25Z" fill="white"/>
<path d="M95.2073 29.6544C95.0326 29.6222 95.1025 29.7896 95.085 29.8819C95.085 29.9077 95.085 29.9313 95.1277 29.9356C95.2577 30.0258 95.1374 30.3478 95.248 30.5668C95.1976 30.2877 95.3858 29.708 95.6983 29.6265C95.5356 29.651 95.3714 29.6603 95.2073 29.6544Z" fill="white"/>
<path d="M99.1657 29.682C97.7409 29.4137 97.7796 31.4102 99.1074 31.4897C100.437 31.5133 100.602 29.5296 99.1657 29.682ZM99.1113 31.3609C98.0708 31.3265 97.7273 29.6048 99.1618 29.8109C100.602 29.7185 100.154 31.4081 99.1113 31.3609Z" fill="white"/>
<path d="M100.243 29.85C100.079 29.8425 99.9159 29.8195 99.7556 29.7812C100.064 29.8757 100.212 30.4854 100.144 30.7559C100.266 30.5412 100.165 30.2149 100.303 30.1355C100.39 30.1248 100.336 29.9745 100.355 29.9015C100.357 29.8607 100.32 29.8521 100.243 29.85Z" fill="white"/>
<path d="M97.7155 30.0773C97.5214 30.0579 97.3933 30.1095 97.2457 29.9678L97.3176 30.4379C97.3657 30.3745 97.4263 30.3241 97.4947 30.2904C97.5631 30.2567 97.6376 30.2407 97.7124 30.2436C97.7873 30.2465 97.8605 30.2682 97.9266 30.3071C97.9928 30.346 98.05 30.401 98.094 30.468L98.1969 30.0064C98.0319 30.1331 97.9115 30.073 97.7155 30.0773Z" fill="white"/>
<path fill-rule="evenodd" clip-rule="evenodd" d="M101.753 47.6839C101.159 47.5744 101.714 47.1321 101.21 47.115C100.662 47.0935 100.138 47.072 99.6431 47.4842C97.9893 47.9351 96.7936 46.4903 94.3128 46.0867C93.6237 45.9536 93.2433 45.7152 92.5464 45.5542C91.7176 48.8453 94.2449 48.6178 96.2132 48.9012C97.2808 49.0042 97.572 48.7831 99.0453 49.0772C100.222 49.1524 101.763 49.8243 101.881 49.0536C101.932 49.0572 101.983 49.0491 102.03 49.0297C102.078 49.0104 102.122 48.9803 102.158 48.9413C102.195 48.9023 102.223 48.8553 102.243 48.8033C102.262 48.7513 102.271 48.6954 102.269 48.6393C102.315 48.6441 102.361 48.6359 102.403 48.6155C102.445 48.5951 102.482 48.5633 102.51 48.5229C102.537 48.4824 102.556 48.4348 102.562 48.3846C102.569 48.3343 102.563 48.2831 102.547 48.2356C102.912 48.2678 103.23 48.2765 103.176 47.9652C103.151 47.8106 102.104 47.7505 101.753 47.6839Z" fill="#FFCAB8"/>
<path fill-rule="evenodd" clip-rule="evenodd" d="M101.545 46.7046L100.406 47.134L101.46 47.4839C101.561 47.4002 101.654 47.2263 101.8 47.076C102.203 47.1082 102.464 46.9193 102.518 46.6016C102.199 46.6791 101.872 46.7137 101.545 46.7046Z" fill="#FFCAB8"/>
<path d="M91.4785 47.3789C91.0903 48.3235 100.757 47.5936 100.939 47.8083C101.042 47.8083 101.141 47.7631 101.214 47.6825C101.287 47.602 101.328 47.4928 101.328 47.3789H91.4785Z" fill="#D0DDFD"/>
<path d="M102.306 38.5278C100.289 50.3119 97.4807 47.5146 108.572 47.7013V37.9525H103.003C102.845 37.9475 102.691 38.0017 102.564 38.1061C102.438 38.2106 102.347 38.3591 102.306 38.5278Z" fill="#D0DDFD"/>
<path d="M112.755 37.9499H102.924C102.874 37.9506 102.826 37.969 102.787 38.0023C102.748 38.0355 102.72 38.082 102.706 38.1346L100.684 47.4905C100.674 47.5277 100.673 47.5667 100.68 47.6045C100.686 47.6423 100.701 47.678 100.722 47.7087C100.743 47.7394 100.77 47.7644 100.801 47.7816C100.832 47.7989 100.866 47.808 100.901 47.8083H110.055C110.299 47.8078 110.537 47.719 110.731 47.5554C110.925 47.3918 111.065 47.1624 111.131 46.9023C110.983 46.7542 113.472 37.688 112.755 37.9499Z" fill="#42445D"/>
<path d="M112.482 46.7221C112.507 46.7744 112.541 46.8207 112.582 46.8583C112.624 46.8959 112.672 46.924 112.723 46.941C112.774 46.9579 112.828 46.9635 112.881 46.9572C112.934 46.9509 112.986 46.933 113.033 46.9045L130.132 36.4321L112.662 46.1209C112.614 46.1469 112.572 46.1832 112.537 46.2276C112.502 46.272 112.475 46.3238 112.458 46.3797C112.441 46.4357 112.435 46.4947 112.439 46.5535C112.443 46.6123 112.457 46.6696 112.482 46.7221Z" fill="#333242"/>
<path fill-rule="evenodd" clip-rule="evenodd" d="M116.393 44.773C116.154 44.7473 114.551 44.788 115.359 45.1073C115.722 45.0837 116.471 45.3666 116.653 44.9615C116.667 44.8673 116.566 44.773 116.393 44.773Z" fill="#FFCAB8"/>
<path fill-rule="evenodd" clip-rule="evenodd" d="M115.869 45.2193C115.434 45.2193 115.033 45.1742 114.594 45.1785C113.46 45.3307 116.083 45.8986 116.044 45.4207C116.063 45.32 116.044 45.2193 115.869 45.2193Z" fill="#FFCAB8"/>
<path fill-rule="evenodd" clip-rule="evenodd" d="M115.585 45.6897C115.362 45.6897 113.662 45.3891 114.376 45.8829C114.729 45.9087 115.541 46.3338 115.735 45.9195C115.754 45.8186 115.739 45.6962 115.585 45.6897Z" fill="#FFCAB8"/>
<path fill-rule="evenodd" clip-rule="evenodd" d="M115.242 46.1399C115.026 46.1399 113.479 45.9363 114.202 46.3542C114.53 46.3821 115.226 46.7335 115.395 46.3414C115.411 46.2471 115.395 46.1463 115.242 46.1399Z" fill="#FFCAB8"/>
<path d="M150.234 30.8181C149.371 30.9576 142.571 32.293 140.985 33.2805C139.275 34.354 140.967 35.0688 141.651 35.8911C142.668 37.4927 150.683 34.2574 151.24 33.2333C151.591 32.7889 151.391 30.6399 150.234 30.8181Z" fill="#0A429F"/>
<path d="M149.054 32.9651C146.211 33.4417 145.923 33.9935 144.316 34.4379C141.942 35.082 141.653 35.2838 142.27 35.8763C142.501 37.5959 156.434 32.3962 149.054 32.9651Z" fill="#0D5BD9"/>
<path fill-rule="evenodd" clip-rule="evenodd" d="M157.331 24.2721C157.465 24.1068 157.309 23.7182 157.162 23.6667C157.381 23.4048 157.141 22.9625 156.968 23.1343C156.752 23.349 156.329 23.7225 156.098 23.9544C155.434 24.4739 155.093 25.6719 154.443 26.1721C154.859 26.5945 155.244 27.0525 155.596 27.5418C156.122 26.6401 157.962 25.5559 157.418 24.9054C157.473 24.8052 157.494 24.687 157.478 24.5713C157.462 24.4556 157.41 24.3497 157.331 24.2721Z" fill="#FFCAB8"/>
<path fill-rule="evenodd" clip-rule="evenodd" d="M156.766 24.047C156.766 23.798 155.761 24.7211 155.447 25.3673C155.175 25.9513 155.747 26.0951 156.079 26.1917C156.609 26.5245 157.05 25.9062 157.372 25.582C157.046 25.3587 156.782 24.4914 156.766 24.047Z" fill="#FFC3AB"/>
<path d="M154.662 25.666C154.662 25.666 149.136 31.046 148.909 31.8726C148.662 32.77 149.745 35.1165 151.601 33.0104C152.826 31.6214 156.143 27.508 156.143 27.508C155.687 26.858 155.193 26.2426 154.662 25.666Z" fill="#0A429F"/>
<path d="M153.41 29.53C151.713 31.2475 150.269 31.9152 149.054 32.965C149.574 37.3897 156.042 27.1406 156.143 27.5077C155.928 27.205 155.722 26.9302 155.533 26.6919C154.949 27.1234 153.969 28.9697 153.41 29.53Z" fill="#0D5BD9"/>
<path d="M136.324 76.8252C135.849 76.3464 135.992 75.4147 135.958 74.8114C135.919 74.1072 134.016 74.7019 134.016 74.8114C133.983 76.0265 133.752 77.3533 133.912 78.5298C134.801 79.3477 136.328 78.7617 137.431 79.0858C138.143 79.0858 139.485 79.5152 139.836 78.6929C138.9 78.5384 136.872 77.3748 136.324 76.8252Z" fill="#FFCAB8"/>
<path d="M134.847 74.7107C134.874 74.642 134.905 74.5776 134.936 74.5132C134.471 74.5883 134.018 74.7558 134.013 74.8073C133.98 76.0224 133.749 77.3492 133.908 78.5257C134.739 79.3286 136.2 78.7661 137.244 79.0667C135.703 78.2788 134.094 76.7223 134.847 74.7107Z" fill="#FFC3AB"/>
<path d="M140.016 78.5792C139.869 78.5105 138.547 77.9888 137.798 77.7011C137.516 77.5938 137.301 78.0189 137.301 78.2701C135.595 78.2701 134.108 76.9991 133.875 77.1966C133.442 77.5509 133.11 78.6672 133.968 79.0923C134.081 79.1503 134.356 79.1825 135.257 79.1825C136.068 79.1825 136.872 79.6956 137.376 79.6956H140.024C140.308 79.6913 140.494 78.8025 140.016 78.5792Z" fill="#FFB725"/>
<path d="M139.564 78.9894C138.322 79.2835 136.786 78.5987 135.327 78.6009C134.983 78.5912 134.648 78.4862 134.351 78.2957C134.054 78.1051 133.804 77.835 133.626 77.5103C133.12 78.6975 133.663 79.3351 135.257 79.1784C136.068 79.1784 136.872 79.6914 137.377 79.6914H140.024C140.273 79.6914 140.447 79.0045 140.16 78.6867C139.978 78.8229 139.776 78.9251 139.564 78.9894Z" fill="#333242"/>
<path d="M135.443 79.1377L133.473 78.5107L133.892 79.6915H135.558C135.475 79.5216 135.436 79.3303 135.443 79.1377Z" fill="#333242"/>
<path d="M150.073 75.9428C149.456 75.7281 149.219 74.8307 148.953 74.3026C148.641 73.6864 147.166 75.1334 147.195 75.2364C147.641 76.3442 147.954 77.6517 148.553 78.6349C149.675 78.9484 150.823 77.6839 151.943 77.4477C152.589 77.1128 153.963 76.8466 153.956 75.9449C153.065 76.2498 150.782 76.1746 150.073 75.9428Z" fill="#FFCAB8"/>
<path d="M147.909 74.7474C147.909 74.6744 147.909 74.6014 147.909 74.5327C147.521 74.8268 147.179 75.1939 147.193 75.2433C147.639 76.3511 147.952 77.6585 148.551 78.6418C149.615 78.9681 150.712 77.7594 151.772 77.5276C150.083 77.5512 148.023 76.92 147.909 74.7474Z" fill="#FFC3AB"/>
<path d="M154.088 75.7517C153.926 75.7517 152.535 75.9256 151.745 76.0244C151.448 76.063 151.42 76.5504 151.519 76.7758C149.982 77.5937 148.144 77.1622 148.008 77.4477C147.759 77.9758 147.897 79.1394 148.837 79.1115C148.961 79.1115 149.225 79.0106 150.033 78.5748C150.764 78.1862 151.69 78.2614 152.144 78.021L154.53 76.75C154.786 76.6147 154.606 75.7217 154.088 75.7517Z" fill="#FFB725"/>
<path d="M154.258 75.7798C154.069 76.1043 153.82 76.3815 153.529 76.5937C153.237 76.8059 152.908 76.9484 152.564 77.0121C151.418 77.1645 149.153 78.9121 147.905 77.8537C147.905 79.1676 148.654 79.481 150.027 78.575C150.759 78.1864 151.684 78.2616 152.139 78.0211L154.524 76.7502C154.755 76.6299 154.647 75.9279 154.258 75.7798Z" fill="#333242"/>
<path d="M150.182 78.4482L148.161 78.8282L149.002 79.6869L150.502 78.8883C150.362 78.7759 150.251 78.6239 150.182 78.4482Z" fill="#333242"/>
<path d="M138.108 48.9829C139.449 54.1633 146.433 75.093 147.194 76.5206C148.281 76.716 149.446 76.2029 149.912 75.2497C148.673 71.1986 144.978 52.2418 143.603 46.9111C142.155 47.0679 138.059 48.7875 138.108 48.9829Z" fill="#C3391C"/>
<path d="M146.507 71.6081C146.237 70.2384 145.68 68.2997 145.519 66.9215C145.079 64.4032 142.802 62.7072 143.085 59.9377C143.085 58.304 142.132 54.4675 141.144 53.246C139.556 51.2794 141.117 50.3026 140.461 47.8638C139.189 48.3597 138.081 48.8793 138.106 48.9802C139.447 54.1606 146.432 75.0903 147.193 76.518C147.577 76.5881 147.97 76.571 148.348 76.4677C148.726 76.3643 149.081 76.1769 149.392 75.9168C148.512 73.6369 146.987 74.0491 146.507 71.6081Z" fill="#FD4B1B"/>
<path d="M134.554 49.567C134.428 53.3669 134.942 58.5258 134.77 63.4701C134.63 67.6414 133.826 71.4542 133.667 76.2675C134.22 76.5616 135.511 76.8321 136.501 76.4049C136.994 74.5607 142.13 51.5228 141.303 49.8225C140.75 48.6953 135.697 49.3373 134.554 49.567Z" fill="#C3391C"/>
<path d="M134.554 49.5667C134.428 53.3667 134.942 58.5256 134.77 63.4698C134.63 67.6412 133.826 71.454 133.667 76.2672C134.012 76.4236 134.373 76.5304 134.742 76.585C134.836 75.7799 134.327 73.5987 134.515 72.9525C134.853 71.8018 135.558 69.5841 135.68 68.4441C135.915 66.2972 135.499 64.5797 135.486 63.6394C135.47 62.8085 136.037 60.988 135.68 58.1907C135.618 57.6904 136.484 55.3418 136.359 53.1326C136.342 52.8342 136.319 49.6526 136.691 49.0923C135.744 49.2919 134.929 49.4959 134.554 49.5667Z" fill="#FD4B1B"/>
<path d="M139.174 32.1339C135.771 32.1339 134.453 35.3285 134.486 37.7802C134.523 40.5153 134.313 50.0624 134.416 50.7516C134.505 51.3527 144.411 51.4621 144.72 50.6163C144.875 50.1869 144.331 35.1589 143.961 34.1005C143.163 31.8785 140.601 32.1339 139.174 32.1339Z" fill="#0A429F"/>
<path d="M138.535 34.6973L135.523 36.9106C135.408 36.741 139.793 44.5556 141.255 44.5578C141.765 44.751 143.357 44.648 143.136 43.3813C142.915 42.1147 138.535 34.6973 138.535 34.6973Z" fill="#0A429F"/>
<path d="M135.818 35.0083L135.521 36.9104C135.684 36.8803 140.399 46.8697 142.897 44.2591C140.106 42.4644 136.4 37.6511 135.818 35.0083Z" fill="#0D5BD9"/>
<path d="M140.395 32.3016C136.802 31.2089 134.251 34.8607 134.486 37.7804C134.523 40.5155 134.313 50.0626 134.416 50.7518C134.455 51.0137 136.293 51.1811 138.397 51.209C137.951 50.0003 135.874 50.0046 136.361 48.8582C136.788 47.8471 136.79 45.5091 136.084 44.2682C135.56 43.3494 136.742 42.6023 136.742 41.0265C136.742 40.1269 135.659 37.9071 135.659 37.0119C135.659 33.7229 138.021 33.302 140.395 32.3016Z" fill="#0D5BD9"/>
<path d="M137.546 28.9805C137.546 28.9805 137.639 31.2154 137.679 32.4154C137.72 33.6155 140.979 33.3085 140.979 32.4777C140.979 31.488 139.923 31.1896 139.84 30.3309C139.757 29.4721 137.546 28.9805 137.546 28.9805Z" fill="#FFC3AB"/>
<path d="M141.845 24.981C141.388 24.0944 140.216 24.1588 139.409 24.2167C137.273 24.4744 137.411 27.0914 137.52 28.8776C137.533 29.951 140.946 34.1352 142.522 30.5543C142.881 28.7531 142.458 26.6663 141.845 24.981Z" fill="#FFCAB8"/>
<path d="M140.378 31.8797C140.378 31.8797 140.382 31.8746 140.378 31.8797V31.8797Z" fill="#FFCAB8"/>
<path d="M141.059 26.7733C140.76 23.1065 136.763 23.3384 137.524 28.8794C137.32 28.918 139.494 33.0379 141.069 31.5372C141.597 30.9511 141.985 29.2487 141.864 28.3663C141.796 27.8876 141.119 27.1683 141.059 26.7733Z" fill="#FFC3AB"/>
<path d="M142.418 24.8221C139.819 22.2459 135.073 23.8195 137.415 29.8393C137.8 29.5559 138.098 29.1512 138.271 28.6779C138.392 28.2614 139.162 28.1605 138.929 25.741C138.9 25.3653 141.059 25.9385 142.418 24.8221Z" fill="#42445D"/>
<path d="M139.335 23.6324C138.559 23.5959 137.429 24.5105 138.547 25.0451C140.257 25.3929 142.021 24.6157 142.041 24.5878C141.54 24.1777 140.775 23.4134 139.335 23.6324Z" fill="#333242"/>
<path d="M138.615 27.2697C137.462 26.7974 137.336 28.5277 138.104 29.0988C139.669 29.979 140.214 27.8322 138.615 27.2697Z" fill="#FFCAB8"/>
<path d="M138.091 27.8361C137.736 28.1818 138.501 28.785 138.501 28.785C138.501 28.5704 138.763 28.0744 139.007 28.0401C139.007 28.0401 138.444 27.4862 138.091 27.8361Z" fill="#FFC3AB"/>
<path d="M142.612 28.3946C142.13 28.1542 140.319 28.5234 140.387 29.468C139.58 29.2534 138.725 25.9751 138.725 25.9751L138.211 26.7737C140.212 28.5427 137.51 30.9945 139.776 32.7528C141.329 33.7725 143.087 32.6798 143.347 31.2156C143.437 30.7154 143.141 30.3161 142.883 29.584C142.769 29.2598 143 28.8562 142.612 28.3946Z" fill="#42445D"/>
<path d="M139.102 27.2197C139.038 27.282 139.776 30.1137 139.904 29.0231C139.57 28.4608 139.301 27.8551 139.102 27.2197Z" fill="#333242"/>
<path d="M142.612 28.3943C142.482 28.313 142.329 28.2877 142.183 28.3235C142.932 29.4785 141.453 29.2187 141.367 29.6717C141.391 30.0474 142.507 30.0002 142.604 30.056C143.681 31.6275 141.662 33.4373 139.968 32.8684C141.47 33.6821 143.097 32.6258 143.347 31.2217C143.437 30.7215 143.142 30.3222 142.883 29.5901C142.769 29.2595 143 28.8559 142.612 28.3943Z" fill="#333242"/>
<path fill-rule="evenodd" clip-rule="evenodd" d="M143.148 32.6773C143.194 32.248 143.018 31.9839 142.713 31.9882C142.688 31.856 142.622 31.7376 142.527 31.6531C142.431 31.5685 142.313 31.5231 142.191 31.5245C142.181 31.4662 142.16 31.4109 142.129 31.3624C142.099 31.3139 142.059 31.2734 142.012 31.2436C141.966 31.2138 141.914 31.1955 141.861 31.1899C141.808 31.1843 141.754 31.1915 141.703 31.2111C140.822 29.3261 140.733 34.0685 141.121 34.5773C141.238 34.9316 141.141 36.8315 141.131 37.0591C141.794 37.1018 142.453 37.2008 143.103 37.3554C143.043 35.7962 143.058 34.2347 143.148 32.6773Z" fill="#FFCAB8"/>
<path fill-rule="evenodd" clip-rule="evenodd" d="M141.703 31.2111C140.822 29.3261 140.733 34.0685 141.121 34.5773C141.238 34.9316 141.141 36.8315 141.131 37.0591C141.241 37.0567 141.351 37.0617 141.461 37.0741C141.338 35.5713 142.006 33.1282 141.872 31.8744C141.858 31.8221 141.853 31.767 141.859 31.7127C141.864 31.6583 141.88 31.6057 141.905 31.5584C141.929 31.511 141.963 31.4698 142.003 31.4374C142.042 31.405 142.088 31.382 142.136 31.3699C142.088 31.2963 142.021 31.2413 141.943 31.2128C141.865 31.1843 141.781 31.1836 141.703 31.2111Z" fill="#FFC3AB"/>
<path fill-rule="evenodd" clip-rule="evenodd" d="M142.518 30.2107L141.268 30.7861C141.24 30.7991 141.215 30.818 141.193 30.8419C141.172 30.8657 141.155 30.894 141.144 30.9251C141.132 30.9562 141.126 30.9895 141.126 31.0231C141.126 31.0567 141.132 31.09 141.144 31.121C141.156 31.152 141.173 31.1802 141.195 31.2039C141.216 31.2275 141.242 31.2463 141.27 31.259C141.298 31.2718 141.328 31.2783 141.358 31.2782C141.389 31.2781 141.419 31.2714 141.447 31.2584L142.561 30.7925C142.854 30.668 142.94 30.0862 142.518 30.2107Z" fill="#FFC3AB"/>
<path fill-rule="evenodd" clip-rule="evenodd" d="M143.023 35.1437C142.884 35.1437 141.791 34.8089 141.127 35.1331C141.148 35.2361 141.001 35.7556 141.197 35.805C141.797 35.6931 142.412 35.7172 143.004 35.8759C143.167 35.8909 143.148 35.264 143.023 35.1437Z" fill="#333242"/>
<path fill-rule="evenodd" clip-rule="evenodd" d="M157.304 25.039L156.683 25.9257C156.621 26.0094 156.718 26.1082 156.78 26.1017C157.011 26.0824 157.576 25.2859 157.576 25.2859C157.6 25.2456 157.61 25.1966 157.604 25.1485C157.598 25.1004 157.575 25.0567 157.541 25.0258C157.507 24.995 157.464 24.9793 157.42 24.9817C157.376 24.9841 157.335 25.0046 157.304 25.039Z" fill="#FFCAB8"/>
<path fill-rule="evenodd" clip-rule="evenodd" d="M157.861 22.2309L156.823 23.2872C156.592 23.5298 156.937 23.9312 157.162 23.6779C157.106 23.7337 158.653 22.1665 157.861 22.2309Z" fill="#FFCAB8"/>
<path fill-rule="evenodd" clip-rule="evenodd" d="M156.976 23.875L155.93 24.9227C155.803 25.7922 157.354 24.225 157.288 24.2786C157.324 24.2295 157.343 24.1681 157.342 24.1052C157.341 24.0423 157.32 23.9817 157.283 23.9339C157.246 23.8861 157.195 23.8541 157.139 23.8433C157.083 23.8326 157.025 23.8438 156.976 23.875Z" fill="#FFCAB8"/>
<path fill-rule="evenodd" clip-rule="evenodd" d="M157.077 24.4653L156.124 25.4229C156.013 26.2108 157.424 24.7788 157.37 24.8389C157.415 24.7959 157.442 24.735 157.447 24.6696C157.451 24.6041 157.431 24.5395 157.392 24.49C157.354 24.4405 157.298 24.41 157.239 24.4054C157.18 24.4008 157.122 24.4223 157.077 24.4653Z" fill="#FFCAB8"/>
<path d="M143.12 36.355C142.445 36.2094 141.754 36.1791 141.071 36.2649C141.071 36.2649 140.669 40.5221 140.587 42.4607C140.463 45.3976 142.917 44.7492 143.179 43.8583C143.908 42.1966 143.124 37.1944 143.12 36.355Z" fill="#0A429F"/>
<path d="M141.752 43.7169C140.112 41.2244 142.196 38.3154 141.071 36.2651C141.071 36.2651 140.669 40.5223 140.587 42.4609C140.496 44.6185 141.795 44.8418 142.594 44.4532C142.251 44.3117 141.956 44.0541 141.752 43.7169Z" fill="#0D5BD9"/>
<path fill-rule="evenodd" clip-rule="evenodd" d="M141.948 34.6827C141.171 34.629 141.117 35.9708 141.891 36.0009C142.666 36.0309 142.722 34.7171 141.948 34.6827Z" fill="white"/>
<path fill-rule="evenodd" clip-rule="evenodd" d="M141.94 34.8629C141.371 34.8243 141.331 35.814 141.899 35.8333C142.468 35.8526 142.509 34.8844 141.94 34.8629Z" fill="url(#paint27_linear)"/>
<defs>
<linearGradient id="paint0_linear" x1="72.2425" y1="53.3323" x2="240.512" y2="53.3323" gradientUnits="userSpaceOnUse">
<stop stop-color="#EFF6FF"/>
<stop offset="1" stop-color="#C4D8FB"/>
</linearGradient>
<linearGradient id="paint1_linear" x1="938809" y1="108096" x2="1.18687e+06" y2="108096" gradientUnits="userSpaceOnUse">
<stop stop-color="#EFF6FF"/>
<stop offset="1" stop-color="#C4D8FB"/>
</linearGradient>
<linearGradient id="paint2_linear" x1="118.567" y1="60.5498" x2="132.481" y2="60.5498" gradientUnits="userSpaceOnUse">
<stop stop-color="#FB6B14"/>
<stop offset="1" stop-color="#FDB522"/>
</linearGradient>
<linearGradient id="paint3_linear" x1="109066" y1="29009.7" x2="109703" y2="28173.6" gradientUnits="userSpaceOnUse">
<stop stop-color="#FB6B14"/>
<stop offset="1" stop-color="#FDB522"/>
</linearGradient>
<linearGradient id="paint4_linear" x1="86530.4" y1="37119.8" x2="88411" y2="37119.8" gradientUnits="userSpaceOnUse">
<stop stop-color="#FB6B14"/>
<stop offset="1" stop-color="#FDB522"/>
</linearGradient>
<linearGradient id="paint5_linear" x1="115.058" y1="65.6722" x2="117.559" y2="66.964" gradientUnits="userSpaceOnUse">
<stop stop-color="#EFF6FF"/>
<stop offset="0.23" stop-color="#ECF3FE"/>
<stop offset="0.42" stop-color="#E1EBFA"/>
<stop offset="0.6" stop-color="#D0DEF4"/>
<stop offset="0.77" stop-color="#B7CBEB"/>
<stop offset="0.94" stop-color="#98B3DF"/>
<stop offset="1" stop-color="#8AA8DA"/>
</linearGradient>
<linearGradient id="paint6_linear" x1="140.523" y1="65.0153" x2="143.489" y2="63.1919" gradientUnits="userSpaceOnUse">
<stop stop-color="#EFF6FF"/>
<stop offset="0.16" stop-color="#E7F0FC"/>
<stop offset="0.41" stop-color="#D3E0F5"/>
<stop offset="0.71" stop-color="#B1C6E8"/>
<stop offset="1" stop-color="#8AA8DA"/>
</linearGradient>
<linearGradient id="paint7_linear" x1="36426.3" y1="32256.8" x2="36554.7" y2="32199" gradientUnits="userSpaceOnUse">
<stop stop-color="#FB6B14"/>
<stop offset="1" stop-color="#FDB522"/>
</linearGradient>
<linearGradient id="paint8_linear" x1="192.502" y1="72.9632" x2="214.604" y2="72.9632" gradientUnits="userSpaceOnUse">
<stop stop-color="#EFF6FF"/>
<stop offset="0.21" stop-color="#D7E4F6"/>
<stop offset="0.74" stop-color="#A0B9E2"/>
<stop offset="1" stop-color="#8AA8DA"/>
</linearGradient>
<linearGradient id="paint9_linear" x1="63544.9" y1="110999" x2="64347.8" y2="110999" gradientUnits="userSpaceOnUse">
<stop stop-color="#FB6B14"/>
<stop offset="1" stop-color="#FDB522"/>
</linearGradient>
<linearGradient id="paint10_linear" x1="104627" y1="39221.8" x2="104900" y2="38957.5" gradientUnits="userSpaceOnUse">
<stop stop-color="#FB6B14"/>
<stop offset="1" stop-color="#FDB522"/>
</linearGradient>
<linearGradient id="paint11_linear" x1="150.867" y1="78.1521" x2="174.277" y2="78.1521" gradientUnits="userSpaceOnUse">
<stop stop-color="#EFF6FF"/>
<stop offset="1" stop-color="#8AA8DA"/>
</linearGradient>
<linearGradient id="paint12_linear" x1="26905.5" y1="51055.6" x2="26634.5" y2="50951.1" gradientUnits="userSpaceOnUse">
<stop stop-color="#FB6B14"/>
<stop offset="1" stop-color="#FDB522"/>
</linearGradient>
<linearGradient id="paint13_linear" x1="45853.4" y1="12831.3" x2="45635.6" y2="12983.1" gradientUnits="userSpaceOnUse">
<stop stop-color="#FB6B14"/>
<stop offset="1" stop-color="#FDB522"/>
</linearGradient>
<linearGradient id="paint14_linear" x1="36697.7" y1="16491.6" x2="36724.7" y2="16550" gradientUnits="userSpaceOnUse">
<stop stop-color="#FB6B14"/>
<stop offset="1" stop-color="#FDB522"/>
</linearGradient>
<linearGradient id="paint15_linear" x1="12556.4" y1="12899.5" x2="12599.7" y2="12899.5" gradientUnits="userSpaceOnUse">
<stop stop-color="#EFF6FF"/>
<stop offset="1" stop-color="#C4D8FB"/>
</linearGradient>
<linearGradient id="paint16_linear" x1="27529.5" y1="14568.1" x2="27558.9" y2="14534.1" gradientUnits="userSpaceOnUse">
<stop stop-color="#EFF6FF"/>
<stop offset="1" stop-color="#8AA8DA"/>
</linearGradient>
<linearGradient id="paint17_linear" x1="15129.2" y1="14540.1" x2="15146.4" y2="14531.2" gradientUnits="userSpaceOnUse">
<stop stop-color="#FB6B14"/>
<stop offset="1" stop-color="#FDB522"/>
</linearGradient>
<linearGradient id="paint18_linear" x1="45612.3" y1="54760" x2="46035.6" y2="54760" gradientUnits="userSpaceOnUse">
<stop stop-color="#FB6B14"/>
<stop offset="1" stop-color="#FDB522"/>
</linearGradient>
<linearGradient id="paint19_linear" x1="32269.4" y1="11569.8" x2="32485.4" y2="11569.8" gradientUnits="userSpaceOnUse">
<stop stop-color="#EFF6FF"/>
<stop offset="1" stop-color="#C4D8FB"/>
</linearGradient>
<linearGradient id="paint20_linear" x1="33051.3" y1="15935.3" x2="33271.4" y2="15935.3" gradientUnits="userSpaceOnUse">
<stop stop-color="#EFF6FF"/>
<stop offset="1" stop-color="#C4D8FB"/>
</linearGradient>
<linearGradient id="paint21_linear" x1="23910.9" y1="27666.1" x2="24024.4" y2="27666.1" gradientUnits="userSpaceOnUse">
<stop stop-color="#FB6B14"/>
<stop offset="1" stop-color="#FDB522"/>
</linearGradient>
<linearGradient id="paint22_linear" x1="45653.4" y1="25730" x2="45869.3" y2="25987.4" gradientUnits="userSpaceOnUse">
<stop stop-color="#EFF6FF"/>
<stop offset="1" stop-color="#8AA8DA"/>
</linearGradient>
<linearGradient id="paint23_linear" x1="38481" y1="64215" x2="38867.3" y2="64215" gradientUnits="userSpaceOnUse">
<stop stop-color="#FB6B14"/>
<stop offset="1" stop-color="#FDB522"/>
</linearGradient>
<linearGradient id="paint24_linear" x1="43590.3" y1="43852.1" x2="44087.1" y2="43852.1" gradientUnits="userSpaceOnUse">
<stop stop-color="#FB6B14"/>
<stop offset="1" stop-color="#FDB522"/>
</linearGradient>
<linearGradient id="paint25_linear" x1="16680" y1="11492.1" x2="16752.1" y2="11492.1" gradientUnits="userSpaceOnUse">
<stop stop-color="#EFF6FF"/>
<stop offset="1" stop-color="#8AA8DA"/>
</linearGradient>
<linearGradient id="paint26_linear" x1="4630.97" y1="9044.45" x2="4637.49" y2="9046.64" gradientUnits="userSpaceOnUse">
<stop stop-color="#EFF6FF"/>
<stop offset="1" stop-color="#8AA8DA"/>
</linearGradient>
<linearGradient id="paint27_linear" x1="4134.29" y1="2958.05" x2="4138.04" y2="2958.05" gradientUnits="userSpaceOnUse">
<stop stop-color="#EFF6FF"/>
<stop offset="1" stop-color="#8AA8DA"/>
</linearGradient>
</defs>
</svg>
