<svg width="224" height="101" viewBox="0 0 224 101" fill="none" xmlns="http://www.w3.org/2000/svg">
<path d="M168.135 83.1584C169.801 82.7451 170.691 82.3071 170.691 81.8568C157.943 71.815 -11.0547 79.4886 0.573189 89.9485C0.573189 96.4195 29.2819 100.223 129.004 100.223C179.455 100.53 257.042 95.7068 179.482 91.3838C247.88 89.3249 232.217 84.3461 168.135 83.1584Z" fill="url(#paint0_linear)"/>
<path d="M182.226 40.423C179.883 42.3581 180.905 44.9984 180.905 44.9984C176.762 43.2539 175.27 45.4364 173.804 48.1757L175.091 53.5975L172.531 52.5458C169.673 70.6718 179.699 84.5169 179.699 84.5169C183.175 77.6946 176.987 75.6927 177.353 65.8935C178.003 47.1166 189.101 53.6173 190.409 46.2109C191.607 39.4257 195.445 34.0857 195.662 33.7788C190.538 36.3424 184.566 38.478 182.226 40.423Z" fill="#0A429F"/>
<path d="M184.539 67.0296C182.426 69.1107 174.272 81.9041 181.546 81.9041C186.446 81.6196 192.073 68.2273 199.248 69.7096C199.248 69.7096 189.018 62.6126 184.539 67.0296Z" fill="#333242"/>
<path d="M209.231 43.593C204.31 43.3455 201.082 47.7131 201.082 47.7131C201.082 47.7131 201.35 45.7854 203.489 43.442C203.195 43.4742 193.784 44.6595 193.059 45.5528C192.335 46.4461 190.893 50.0318 190.893 50.0318C190.893 50.0318 189.481 47.5151 189.698 46.7728C189.914 46.0304 172.708 58.8609 178.482 81.023C178.482 81.023 180.258 79.13 180.255 79.125C176.324 55.404 206.567 60.8134 220.658 41.3535C220.653 41.3535 214.152 43.8429 209.231 43.593Z" fill="#0A429F"/>
<path d="M147.532 71.9215C144.283 72.8568 137.172 75.8114 134.029 81.5945C134.029 81.5945 141.386 73.3691 151.878 73.3691C160.919 73.3691 173.54 78.8725 174.708 83.3737L178.367 80.4537C178.367 80.4537 165.057 66.8783 147.532 71.9215Z" fill="#0D5BD9"/>
<path d="M176.096 59.17C174.879 66.9673 177.433 76.8309 179.214 80.7654C179.551 76.3879 177.075 73.854 177.364 65.8934C178.014 47.1165 189.112 53.6171 190.42 46.2108C191.613 39.4429 195.461 34.0855 195.667 33.7886C195.373 34.0657 190.126 39.7745 187.521 45.1294C184.491 51.3603 177.634 49.3188 176.096 59.17Z" fill="#0D5BD9"/>
<path d="M144.005 83.9235C143.986 83.8592 143.98 83.7973 143.967 83.7305C143.975 83.7956 143.987 83.8601 144.005 83.9235Z" fill="#0D5BD9"/>
<path d="M149.872 63.8077C149.872 63.8077 155.467 63.4069 158.943 67.7868C179.477 94.0764 186.275 82.1936 168.648 61.1971C163.26 55.3745 149.872 63.8077 149.872 63.8077Z" fill="#42445D"/>
<path d="M176.313 85.8509H186.633C185.117 84.6805 184.384 80.1347 186.633 77.6577C186.633 77.6577 176.246 80.7534 176.313 85.8509Z" fill="#333242"/>
<path d="M202.005 77.7342C197.857 75.3215 193.447 76.6726 191.934 76.5415C176.313 75.1829 175.021 83.7622 174.136 85.8507H176.393C176.998 81.592 186.708 74.9479 190.864 82.3294C195.292 90.1935 204.653 92.3513 204.653 92.3513C207.854 86.2887 207.067 80.674 202.005 77.7342Z" fill="#0D5BD9"/>
<path d="M202.005 77.8088C197.857 75.3936 193.404 76.23 191.933 76.6136C201.16 76.9575 206.436 86.346 204.679 92.3591C207.859 86.2866 207.03 80.7436 202.005 77.8088Z" fill="url(#paint1_linear)"/>
<path d="M199.245 64.1363C194.939 62.2433 192.642 64.3961 192.642 64.3961C187.585 62.7704 183.881 67.6873 183.881 67.6873C193.265 65.4924 192.383 73.4406 200.796 74.9674C203.703 71.2531 203.553 66.0293 199.245 64.1363Z" fill="#0A429F"/>
<path d="M199.245 64.1363C194.939 62.2433 192.642 64.3961 192.642 64.3961C192.642 64.3961 197.753 64.3961 200.796 74.9674C203.703 71.2531 203.553 66.0293 199.245 64.1363Z" fill="url(#paint2_linear)"/>
<path d="M158.566 57.4403C151.458 52.1745 140.648 61.1521 147.58 70.3748C158.277 68.9123 157.724 58.7889 169.437 62.0652C169.437 62.0652 164.979 55.0004 158.566 57.4403Z" fill="#ADCDED"/>
<path d="M150.228 56.7575C144.66 58.9228 144.135 65.5224 147.58 70.3675C152.1 57.1708 158.566 57.4331 158.566 57.4331C158.566 57.4331 155.795 54.5948 150.228 56.7575Z" fill="#0D5BD9"/>
<path d="M180.669 70.6469C187.518 52.996 205.112 61.3327 220.626 41.3755C220.091 41.8506 211.44 49.5093 202.574 50.1775C194.316 50.7961 180.669 54.9286 180.669 70.6469Z" fill="#0D5BD9"/>
<path d="M150.016 76.6972C147.088 77.5411 143.101 79.8746 143.967 83.6581C144.296 74.2252 171.074 80.0329 173.459 85.8506H174.756L176.915 83.5393C176.915 83.5393 165.07 72.3594 150.016 76.6972Z" fill="url(#paint3_linear)"/>
<path d="M73.5632 59.017L74.6168 54.5628C73.4027 52.2887 72.1805 50.5392 68.7975 51.9596C70.2577 47.0798 61.8283 45.6767 56.6909 42.7617C56.8674 43.0092 60.0151 47.3965 60.9992 52.9544C62.069 59.0244 71.1616 53.6967 71.6965 69.0909C71.996 77.1233 66.9282 78.7639 69.771 84.3564C69.771 84.3564 77.9918 73.0056 75.6545 58.1485L73.5632 59.017Z" fill="#0A429F"/>
<path d="M53.7599 72.2359C53.7599 72.2359 57.3649 71.8251 59.7557 74.5619C70.8434 89.1073 74.3574 80.0059 65.8183 70.036C62.1465 66.4157 53.7599 72.2359 53.7599 72.2359Z" fill="#333242"/>
<path d="M61.5956 53.4316C61.7721 54.0404 60.6114 56.1041 60.6114 56.1041C60.6114 56.1041 59.4428 53.1768 58.8384 52.4319C58.234 51.6871 50.5293 50.7294 50.2806 50.6997C52.0323 52.62 52.2515 54.1987 52.2515 54.1987C52.2515 54.1987 49.604 50.6205 45.5658 50.821C41.5276 51.0214 36.2057 48.9849 36.2057 48.9849C47.7052 64.8838 72.5763 60.541 69.327 79.9489L70.7818 81.5079C75.5234 63.3422 61.4191 52.8303 61.5956 53.4316Z" fill="#0A429F"/>
<path d="M96.1557 74.0471C81.7893 69.9047 70.8782 81.0401 70.8782 81.0401L73.8761 83.433C74.8415 79.7435 85.183 75.2324 92.5962 75.2324C101.199 75.2324 107.227 81.973 107.227 81.973C104.649 77.2368 98.8194 74.8142 96.1557 74.0471Z" fill="#0A429F"/>
<path d="M63.374 52.0879C61.2346 47.698 56.9396 43.0162 56.6882 42.791C56.8567 43.0236 60.0124 47.4258 60.9912 52.9738C62.0609 59.0438 71.1536 53.7162 71.6884 69.1103C71.9131 75.6357 69.894 77.7118 70.1721 81.2999C71.6216 78.083 73.7236 69.9888 72.7261 63.597C71.4798 55.5176 65.8558 57.1904 63.374 52.0879Z" fill="#0D5BD9"/>
<path d="M99.0789 83.7305C99.0789 83.7824 99.0627 83.8344 99.0493 83.8864C99.0625 83.835 99.0723 83.7829 99.0789 83.7305Z" fill="#0D5BD9"/>
<path d="M78.8476 65.2574C76.7643 67.5067 65.2621 83.2201 73.0791 83.2201C75.6331 83.2201 83.5089 74.8067 86.801 70.6568C89.6518 67.0663 94.2382 67.3954 94.2382 67.3954C94.2382 67.3954 83.2629 60.4815 78.8476 65.2574Z" fill="#42445D"/>
<path d="M64.1014 78.8872C65.9467 80.9163 65.345 84.643 64.1014 85.6031H72.563C72.6164 81.4236 64.1014 78.8872 64.1014 78.8872Z" fill="#333242"/>
<path d="M59.7557 77.9717C51.7328 76.3459 44.4106 81.8716 49.3259 90.9334C49.3259 90.9334 56.9985 89.1616 60.6303 82.7179C64.0373 76.6652 71.9987 82.1116 72.4935 85.6032H74.3441C73.622 83.9007 72.563 76.8582 59.7557 77.9717Z" fill="#0D5BD9"/>
<path d="M51.5001 78.8724C47.371 81.2801 46.6997 85.8234 49.3072 90.8022C47.8684 85.8679 52.1928 78.182 59.7557 77.8925C58.5496 77.5757 54.8992 76.8928 51.5001 78.8724Z" fill="#0D5BD9"/>
<path d="M59.1753 67.8804C54.407 64.6635 47.7106 70.7707 52.4896 76.5413C59.3572 75.304 58.6726 68.7712 66.3559 70.5702C66.3612 70.5752 63.3205 66.5441 59.1753 67.8804Z" fill="#0A429F"/>
<path d="M53.7626 67.6778C50.2299 69.2293 50.1068 73.5127 52.4923 76.5589C54.9848 67.898 59.1781 67.898 59.1781 67.898C59.1781 67.898 57.2927 66.1163 53.7626 67.6778Z" fill="url(#paint4_linear)"/>
<path d="M93.9468 61.6174C89.3817 59.8432 87.1112 62.1767 87.1112 62.1767C81.8535 60.1748 78.2004 65.9677 78.2004 65.9677C87.828 63.2853 87.3172 71.5626 96.1183 72.7801C98.9397 68.801 98.5092 63.3917 93.9468 61.6174Z" fill="url(#paint5_linear)"/>
<path d="M93.9467 61.6174C89.3817 59.8432 87.1112 62.1767 87.1112 62.1767C87.1112 62.1767 92.4117 61.9614 96.1156 72.7801C98.9397 68.801 98.5091 63.3917 93.9467 61.6174Z" fill="#0D5BD9"/>
<path d="M51.0321 56.2231C43.766 55.6787 36.671 49.3983 36.2351 49.0073C48.9702 65.3839 63.3553 58.517 68.9901 73.0104C68.9901 60.118 57.8034 56.7304 51.0321 56.2231Z" fill="url(#paint6_linear)"/>
<path d="M94.1178 78.0979C81.7785 74.5445 72.0708 83.7102 72.0708 83.7102L73.8385 85.6032H74.9082C76.8632 80.8298 98.8192 76.0762 99.084 83.8067C99.79 80.7061 96.5193 78.7908 94.1178 78.0979Z" fill="#0D5BD9"/>
<path d="M24.2381 73.0028C23.9965 73.2071 23.8233 73.4711 23.7389 73.7636C23.6546 74.0561 23.6626 74.3649 23.7621 74.6533C22.3687 74.01 21.6547 74.8563 21.2001 75.8015L21.6627 77.7564L20.7454 77.3778C19.7132 83.9181 23.3315 88.9142 23.3315 88.9142C24.5804 86.4396 22.3527 85.7294 22.4837 82.1933C22.7191 75.418 26.7225 77.7638 27.1932 75.0913C27.5067 73.4964 28.1515 71.9728 29.092 70.605C27.2387 71.5329 25.0832 72.305 24.2381 73.0028Z" fill="#0D5BD9"/>
<path d="M25.0725 82.6039C24.3104 83.3463 21.3686 87.9712 24.0028 87.9712C25.6074 87.9712 28.0143 82.9305 30.3891 83.5714C30.381 83.5714 26.6905 81.0103 25.0725 82.6039Z" fill="#333242"/>
<path d="M33.9833 74.1485C32.2075 74.0569 31.0415 75.6332 31.0415 75.6332C31.1781 75.057 31.4781 74.5249 31.9107 74.0916C31.8037 74.104 28.4074 74.532 28.1453 74.8537C27.8832 75.1754 27.3644 76.4696 27.3644 76.4696C27.3644 76.4696 26.8563 75.5615 26.9338 75.2942C27.0114 75.027 20.8016 79.6568 22.8849 87.6669C22.8849 87.6669 23.5267 86.9815 23.5241 86.9815C22.1067 78.4196 33.0179 80.3695 38.1044 73.3517C38.1044 73.3393 35.759 74.2376 33.9833 74.1485Z" fill="#0A429F"/>
<path d="M11.7198 84.3685C10.5484 84.7075 7.97573 85.7741 6.84717 87.8601C6.84717 87.8601 9.50008 84.8906 13.2869 84.8906C16.5496 84.8906 21.1012 86.8703 21.5265 88.4985L22.8449 87.4444C22.8449 87.4444 18.0445 82.5497 11.7198 84.3685Z" fill="#0D5BD9"/>
<path d="M22.0265 79.7686C21.5879 82.5822 22.5132 86.1406 23.1524 87.561C23.2727 85.9822 22.3848 85.0667 22.4838 82.1937C22.7191 75.4184 26.7226 77.7643 27.1933 75.0918C27.5052 73.4983 28.1492 71.9762 29.0893 70.6104C28.9824 70.7093 27.089 72.7706 26.1476 74.7033C25.0565 76.9501 22.5827 76.2127 22.0265 79.7686Z" fill="#0D5BD9"/>
<path d="M12.6075 86.0116C11.5512 86.3159 10.1124 87.1573 10.4253 88.5232C10.543 85.1182 20.2079 87.2142 21.0664 89.3151H21.5344L22.3126 88.4811C22.3126 88.4811 18.0471 84.4452 12.6075 86.0116Z" fill="#0D5BD9"/>
<path d="M10.4469 88.7123C10.4411 88.6883 10.4366 88.6641 10.4333 88.6396C10.436 88.6641 10.4406 88.6884 10.4469 88.7123Z" fill="#0D5BD9"/>
<path d="M12.5648 81.4409C13.1945 81.4218 13.82 81.5421 14.3894 81.7917C14.9587 82.0414 15.4554 82.4132 15.8382 82.8762C23.246 92.3636 25.701 88.0727 19.3389 80.5006C17.3946 78.3973 12.5648 81.4409 12.5648 81.4409Z" fill="#0D5BD9"/>
<path d="M22.1041 89.3152H25.8294C25.2812 88.892 25.0271 87.2514 25.8294 86.3457C25.8294 86.3581 22.0801 87.4741 22.1041 89.3152Z" fill="#333242"/>
<path d="M31.3759 86.385C29.8809 85.514 28.2897 86.0015 27.7415 85.9544C22.104 85.4595 21.6387 88.5651 21.3231 89.3149H22.1254C22.3447 87.7757 25.8481 85.3803 27.3483 88.043C28.9529 90.8813 32.3252 91.6583 32.3252 91.6583C33.4859 89.4708 33.1997 87.4466 31.3759 86.385Z" fill="#0D5BD9"/>
<path d="M31.376 86.4843C29.881 85.6157 28.2711 85.9176 27.7416 86.0537C31.0363 86.1477 32.9939 89.6047 32.3414 91.7451C33.4887 89.5527 33.1998 87.5533 31.376 86.4843Z" fill="#0D5BD9"/>
<path d="M30.381 81.5598C28.8245 80.8768 27.9982 81.6538 27.9982 81.6538C26.1716 81.0673 24.8345 82.8416 24.8345 82.8416C28.1185 82.0299 28.0811 84.9994 30.9399 85.4695C31.9882 84.1283 31.9348 82.2427 30.381 81.5598Z" fill="#0A429F"/>
<path d="M30.381 81.5598C28.8245 80.8768 27.9982 81.6538 27.9982 81.6538C27.9982 81.6538 29.8408 81.6538 30.9399 85.4695C31.9882 84.1283 31.9348 82.2427 30.381 81.5598Z" fill="#0D5BD9"/>
<path d="M15.7018 79.1449C13.1371 77.2444 9.23799 80.4836 11.7358 83.8119C15.5948 83.2848 15.3969 79.6299 19.625 80.8127C19.625 80.8127 18.0151 78.2639 15.7018 79.1449Z" fill="#ADCDED"/>
<path d="M12.6931 78.8972C10.6821 79.6792 10.4949 82.0597 11.7357 83.8117C13.3671 79.0482 15.7017 79.1447 15.7017 79.1447C15.7017 79.1447 14.7015 78.1153 12.6931 78.8972Z" fill="#0D5BD9"/>
<path d="M23.6765 83.911C26.1609 77.5514 32.6916 80.4293 38.0964 73.3472C37.9038 73.5204 34.7803 76.2845 31.5818 76.5245C28.5999 76.7472 23.6765 78.2369 23.6765 83.911Z" fill="#0D5BD9"/>
<path d="M107.813 84.3661C107.813 84.5626 107.855 84.7571 107.937 84.9383C108.019 85.1196 108.139 85.2841 108.29 85.4222C108.441 85.5603 108.62 85.6693 108.816 85.7429C109.013 85.8164 109.224 85.8532 109.436 85.8509H127.801V82.8814H109.431C109.219 82.8798 109.009 82.917 108.813 82.9908C108.617 83.0647 108.438 83.1738 108.288 83.3119C108.137 83.4499 108.018 83.6141 107.936 83.7951C107.855 83.976 107.813 84.1701 107.813 84.3661Z" fill="white"/>
<path d="M136.963 69.7661H118.778C117.518 79.1372 118.189 76.1752 124.856 82.8812H142.488L136.733 76.534L136.963 69.7661Z" fill="url(#paint7_linear)"/>
<path d="M118.336 72.2382H137.025L137.107 69.7637H118.599L118.336 72.2382Z" fill="#42445D"/>
<path d="M138.733 75.5442L139.37 69.7661H136.161C134.898 79.1422 135.575 76.1777 142.25 82.8812H127.274C125.175 82.8515 125.164 85.8779 127.274 85.8507H142.518C143.227 85.8538 143.917 85.6306 144.469 85.2187C145.022 84.8067 145.405 84.2312 145.553 83.5889C146.435 81.2059 139.974 77.1378 138.733 75.5442Z" fill="#333242"/>
<path d="M173.735 11.8619H91.3339C90.0025 11.8554 88.7168 12.3106 87.7302 13.1378C86.7436 13.9651 86.1277 15.1043 86.004 16.3309L81.4149 64.4461C81.3544 65.1261 81.4475 65.8104 81.6883 66.4553C81.9292 67.1002 82.3125 67.6917 82.8138 68.1921C83.3151 68.6926 83.9235 69.091 84.6003 69.362C85.2771 69.633 86.0074 69.7707 86.7448 69.7663H169.146C170.477 69.7718 171.762 69.3162 172.748 68.4891C173.734 67.6621 174.351 66.5235 174.476 65.2973L179.062 17.1797C179.122 16.5 179.029 15.8161 178.789 15.1714C178.548 14.5268 178.165 13.9356 177.664 13.4354C177.163 12.9352 176.555 12.537 175.878 12.2661C175.202 11.9952 174.472 11.8576 173.735 11.8619Z" fill="#42445D"/>
<path d="M171.662 11.8619H89.2667C87.9365 11.8618 86.654 12.3203 85.6695 13.148C84.685 13.9757 84.0691 15.1132 83.9421 16.3383L79.3476 64.446C79.287 65.1275 79.3806 65.8133 79.6226 66.4594C79.8645 67.1055 80.2495 67.6979 80.7528 68.1986C81.2562 68.6992 81.8669 69.0973 82.5459 69.3672C83.2249 69.6372 83.9573 69.7731 84.6963 69.7663H167.073C168.406 69.7729 169.693 69.3171 170.681 68.489C171.668 67.6608 172.285 66.5203 172.408 65.2923L176.995 17.197C177.056 16.5158 176.964 15.8302 176.724 15.1838C176.483 14.5374 176.1 13.9445 175.599 13.4426C175.097 12.9407 174.488 12.541 173.81 12.2689C173.132 11.9967 172.401 11.8581 171.662 11.8619Z" fill="#D0DDFD"/>
<path d="M171.681 14.8312H89.2507C88.7157 14.8255 88.1982 15.0069 87.8015 15.3391C87.4049 15.6712 87.1583 16.1297 87.1112 16.6228C88.4484 19.0057 79.1043 66.4428 84.6615 66.8932H167.094C167.63 66.8988 168.148 66.7171 168.544 66.3844C168.941 66.0517 169.187 65.5927 169.234 65.0991L173.601 19.4685L173.839 16.9692C173.737 15.5265 173.227 15.0489 171.681 14.8312Z" fill="#42445D"/>
<path d="M171.681 14.5839H89.2506C86.6886 14.4924 87.0604 17.7439 86.8438 19.2856H173.601C173.748 17.5336 174.489 14.6804 171.681 14.5839Z" fill="url(#paint8_linear)"/>
<path d="M106.297 18.2929H154.956L155.231 15.8184H106.572L106.297 18.2929Z" fill="white"/>
<path d="M89.3603 16.2936C89.2106 16.1402 88.9271 16.3778 89.0929 16.5411C89.24 16.5807 90.8045 18.5331 91.0077 18.204C91.3714 18.0431 89.3817 16.4248 89.3603 16.2936Z" fill="white"/>
<path d="M90.9194 16.2935C88.0659 18.4885 88.3387 19.0972 91.1547 16.541C91.1723 16.5267 91.1866 16.5093 91.197 16.4899C91.2073 16.4705 91.2133 16.4494 91.2148 16.4278C91.2163 16.4062 91.2132 16.3845 91.2056 16.364C91.1981 16.3435 91.1862 16.3246 91.1708 16.3084C91.1553 16.2921 91.1366 16.2789 91.1156 16.2693C91.0946 16.2598 91.0718 16.2542 91.0484 16.2528C91.0251 16.2514 91.0017 16.2543 90.9795 16.2613C90.9574 16.2683 90.937 16.2792 90.9194 16.2935Z" fill="white"/>
<path d="M93.7675 16.1207C92.2592 16.0638 91.8955 18.3478 93.5536 18.3651C95.0619 18.4344 95.4283 16.1405 93.7675 16.1207ZM93.5777 18.1003C92.2913 18.0855 92.5748 16.3211 93.7435 16.3681C95.0298 16.3904 94.7464 18.1548 93.5777 18.1102V18.1003Z" fill="white"/>
<path d="M98.3112 17.9393C98.215 17.9937 95.8562 17.8056 95.9525 18.0655C95.8081 18.3327 98.2203 18.1372 98.2872 18.1942C98.453 18.1867 98.5011 17.9393 98.3112 17.9393Z" fill="white"/>
<path d="M169.876 17.8602C169.779 17.9147 167.421 17.7241 167.517 17.9864C167.373 18.2537 169.785 18.0582 169.852 18.1151C170.02 18.1201 170.066 17.8627 169.876 17.8602Z" fill="white"/>
<path d="M169.948 17.1152C169.852 17.1696 167.493 16.9791 167.587 17.2438C167.445 17.5086 169.854 17.3131 169.924 17.37C170.092 17.375 170.125 17.1176 169.948 17.1152Z" fill="white"/>
<path d="M170.018 16.3727C169.921 16.4247 167.565 16.2366 167.659 16.4989C167.514 16.7637 169.927 16.5707 169.993 16.6251C170.165 16.6326 170.207 16.3727 170.018 16.3727Z" fill="white"/>
<g style="mix-blend-mode:multiply" opacity="0.5">
<path d="M149.185 33.0687L132.548 11.8618H118.008C115.133 13.542 112.009 15.5613 114.405 18.9836L133.361 43.1574L102.037 35.6397C101.505 35.506 100.95 35.4714 100.403 35.538C99.8569 35.6045 99.3303 35.7708 98.8541 36.0273C98.3778 36.2838 97.9614 36.6253 97.629 37.032C97.2966 37.4387 97.0549 37.9025 96.9179 38.3964C96.7387 40.1608 93.3424 48.8736 94.511 50.4846C93.1311 51.6946 94.2677 61.0707 94.0323 62.6767C94.0623 63.7143 94.5293 64.7 95.3337 65.4235C96.1381 66.147 97.2162 66.551 98.338 66.5493H154.579C155.924 66.829 157.319 66.8405 158.67 66.583C160.021 66.3256 161.297 65.8051 162.414 65.0561C163.531 64.3071 164.462 63.3468 165.147 62.239C165.832 61.1312 166.254 59.9012 166.386 58.6308L170.689 11.8618H151.137L149.185 33.0687Z" fill="#333242"/>
</g>
<path d="M164.113 1.04054L153.148 0.0235014C152.6 -0.032892 152.046 0.0124507 151.518 0.156876C150.989 0.301301 150.497 0.541901 150.07 0.864567C149.644 1.18723 149.291 1.58547 149.033 2.03594C148.775 2.4864 148.616 2.98003 148.567 3.48787L143.668 56.8168C143.216 61.7115 147.195 66.0816 152.552 66.5789C153.809 66.7088 155.083 66.6048 156.296 66.2732C157.51 65.9415 158.64 65.3887 159.62 64.6474C160.6 63.9061 161.41 62.9911 162.002 61.9562C162.594 60.9213 162.957 59.7873 163.07 58.6208L167.985 5.29181C168.068 4.25554 167.709 3.23044 166.985 2.43591C166.262 1.64138 165.23 1.14053 164.113 1.04054Z" fill="white"/>
<path d="M164.113 1.04054L153.148 0.0235014C152.6 -0.032892 152.046 0.0124507 151.517 0.156876C150.989 0.301301 150.497 0.541901 150.07 0.864567C149.644 1.18723 149.291 1.58547 149.033 2.03594C148.774 2.4864 148.616 2.98003 148.567 3.48787L144.419 48.6533L163.821 50.4548L167.985 5.29181C168.073 4.25453 167.716 3.22699 166.991 2.43143C166.266 1.63586 165.232 1.13621 164.113 1.04054Z" fill="#FD4B1B"/>
<path d="M153.557 55.6662C149.219 55.3049 148.757 61.271 153.009 61.6644C157.344 62.0257 157.807 56.0596 153.557 55.6662Z" fill="#333242"/>
<path d="M126.785 8.70182C126.128 7.85856 125.141 7.28668 124.034 7.10861C122.927 6.93055 121.789 7.16046 120.864 7.74912L111.969 13.5173C111.516 13.8105 111.132 14.1846 110.839 14.6176C110.545 15.0506 110.348 15.5336 110.26 16.0382C110.172 16.5427 110.194 17.0585 110.325 17.5551C110.456 18.0516 110.693 18.5189 111.022 18.9291L145.465 62.8326C148.626 66.8611 154.712 67.841 159.064 65.0201C160.097 64.3452 160.974 63.4859 161.644 62.4929C162.314 61.4998 162.762 60.393 162.963 59.2374C163.164 58.0817 163.113 56.9006 162.813 55.7634C162.514 54.6262 161.972 53.5558 161.219 52.6152L126.785 8.70182Z" fill="white"/>
<path d="M120.864 7.74879L111.969 13.517C111.516 13.8101 111.132 14.1843 110.839 14.6172C110.545 15.0502 110.348 15.5333 110.26 16.0378C110.172 16.5424 110.194 17.0582 110.325 17.5547C110.456 18.0513 110.693 18.5185 111.022 18.9288L140.172 56.1188L155.951 45.9014L126.801 8.71139C126.145 7.86238 125.156 7.28566 124.045 7.10559C122.935 6.92552 121.792 7.15652 120.864 7.74879Z" fill="#FFB725"/>
<path d="M152.017 56.032C148.54 58.3185 152.41 63.2082 155.889 60.9688C159.368 58.6823 155.496 53.7901 152.017 56.032Z" fill="#333242"/>
<path d="M155.552 49.2597L98.6482 35.5978C98.1154 35.4641 97.5592 35.4297 97.0119 35.4966C96.4646 35.5635 95.9371 35.7304 95.4601 35.9876C94.9831 36.2448 94.5661 36.5871 94.2333 36.9947C93.9005 37.4023 93.6586 37.867 93.5216 38.3618L90.9061 48.0868C90.6492 49.0966 90.8309 50.1593 91.412 51.0464C91.9931 51.9335 92.9273 52.5741 94.0137 52.8305L150.92 66.4925C163.506 69.2541 167.849 52.3653 155.552 49.2597Z" fill="white"/>
<path d="M93.5216 38.3621L90.9061 48.0871C90.6492 49.0968 90.8309 50.1595 91.412 51.0466C91.9931 51.9337 92.9273 52.5744 94.0136 52.8308L142.207 64.3993L146.839 47.1739L98.6482 35.603C98.1158 35.4692 97.5599 35.4346 97.0129 35.5012C96.4658 35.5678 95.9386 35.7343 95.4616 35.991C94.9847 36.2477 94.5676 36.5894 94.2346 36.9965C93.9015 37.4035 93.6592 37.8677 93.5216 38.3621Z" fill="#0D5BD9"/>
<path d="M155.028 55.2007C150.8 54.2232 149.316 60.0335 153.461 61.0282C157.692 62.0057 159.176 56.1979 155.028 55.2007Z" fill="#333242"/>
<path d="M153.169 48.7325H94.5859C94.0361 48.7288 93.4911 48.8269 92.9828 49.0208C92.4745 49.2148 92.0132 49.5008 91.626 49.862C91.2389 50.2233 90.9336 50.6525 90.7283 51.1244C90.5229 51.5963 90.4215 52.1014 90.4301 52.6101L90.6226 62.6692C90.6519 63.709 91.1196 64.6969 91.9256 65.4219C92.7317 66.147 93.8122 66.5516 94.9363 66.5493H153.504C166.413 66.2944 165.846 48.8711 153.169 48.7325Z" fill="white"/>
<path d="M94.5885 48.7326C94.0384 48.7282 93.4929 48.8257 92.9841 49.0194C92.4753 49.2131 92.0136 49.4991 91.6261 49.8604C91.2386 50.2218 90.9331 50.6512 90.7277 51.1234C90.5223 51.5957 90.421 52.1012 90.43 52.6102L90.6199 62.6692C90.6499 63.7088 91.1177 64.6964 91.9236 65.4213C92.7295 66.1462 93.8096 66.551 94.9335 66.5493H144.542L144.202 48.7326H94.5885Z" fill="url(#paint9_linear)"/>
<path d="M154.319 54.627C149.971 54.6665 150.171 60.6574 154.434 60.6549C158.785 60.6154 158.582 54.6245 154.319 54.627Z" fill="#333242"/>
<path fill-rule="evenodd" clip-rule="evenodd" d="M45.4322 74.3888C44.9588 74.27 43.873 75.5915 43.8891 76.6159C43.9051 77.6404 46.6864 81.7011 46.6864 81.7011C49.3848 81.5254 50.1122 80.1446 50.1122 80.1446C49.0291 78.2268 47.7856 74.9778 45.4322 74.3888Z" fill="#ADCDED"/>
<path fill-rule="evenodd" clip-rule="evenodd" d="M45.8306 74.5173C44.9909 73.9654 43.98 75.4155 43.889 76.6182C43.9078 77.6476 46.6864 81.7033 46.6864 81.7033C47.561 81.6714 48.4128 81.4356 49.1628 81.0179C47.3095 79.2164 45.3439 76.8334 45.8306 74.5173Z" fill="#42445D"/>
<path fill-rule="evenodd" clip-rule="evenodd" d="M46.4163 74.7919C45.1406 74.0001 38.8159 72.8123 34.2161 73.9184C33.7213 74.1485 34.7295 88.1792 35.7939 89.7283C35.7939 89.7283 46.7372 89.7283 49.5853 88.1966C49.5853 88.1966 48.2482 85.9224 47.1624 84.0368C46.4778 82.8491 47.1464 75.2448 46.4163 74.7919Z" fill="#C3391C"/>
<path fill-rule="evenodd" clip-rule="evenodd" d="M42.37 71.4764L38.7383 69.4102C38.7383 69.4102 38.9335 71.8451 38.4201 73.4214C38.1259 74.3271 40.3402 75.3318 41.5383 75.0967C43.5628 74.7181 41.6934 73.0453 42.37 71.4764Z" fill="#FFCAB8"/>
<path fill-rule="evenodd" clip-rule="evenodd" d="M42.37 71.4764L38.7383 69.4102C38.7383 69.4102 38.9335 71.8451 38.42 73.4214C38.2997 73.7876 38.5965 74.1638 39.0645 74.478C39.0137 73.5055 40.3402 72.7087 41.204 73.315C41.5824 73.5593 42.0158 73.7209 42.4716 73.7876C42.1079 73.1838 42.255 71.6867 42.37 71.4764Z" fill="#FFC3AB"/>
<path fill-rule="evenodd" clip-rule="evenodd" d="M39.7867 85.9225C39.1716 85.1232 45.7236 84.9327 42.945 83.8859C40.0327 83.2797 38.8988 81.1169 38.8079 78.9121C38.6822 75.6531 36.2245 73.5992 34.7964 73.7873C33.2453 73.9952 33.9941 74.9998 34.1706 76.6231C34.5423 80.5057 34.3658 85.5909 35.58 89.0528C40.3536 89.862 49.2885 89.9758 39.7867 85.9225Z" fill="#FD4B1B"/>
<path fill-rule="evenodd" clip-rule="evenodd" d="M53.6448 91.4085C52.5109 91.2872 49.6735 91.4704 49.4729 91.4506C48.6706 96.5803 49.0985 93.106 54.2867 95.5534C57.1268 96.4343 57.1054 90.9878 53.6448 91.4085Z" fill="#42445D"/>
<path fill-rule="evenodd" clip-rule="evenodd" d="M53.6449 91.4085C52.511 91.2872 49.6736 91.4704 49.473 91.4506C49.473 91.4506 49.1895 93.6776 49.1253 94.1082C49.0612 94.5388 49.1815 94.3359 49.8073 94.5017C50.1757 94.5881 50.5577 94.614 50.9358 94.5784C51.9815 92.4082 54.5328 94.1082 56.3273 93.6554C56.4663 92.1533 55.2442 91.453 53.6449 91.4085Z" fill="#333242"/>
<path fill-rule="evenodd" clip-rule="evenodd" d="M53.6448 91.409C53.4951 91.3917 53.3159 91.3818 53.11 91.3744C56.0303 91.2952 56.1721 94.7472 54.5113 95.6108C56.5919 96.3259 57.6162 91.2729 53.6448 91.409Z" fill="white"/>
<path fill-rule="evenodd" clip-rule="evenodd" d="M34.2428 91.5274C32.0552 91.76 34.4433 95.3902 35.2269 95.6921C36.6497 95.8678 39.677 94.2073 40.5221 93.5664C40.4793 93.5145 38.7196 91.2305 38.7196 91.2305C37.0588 91.4507 34.8953 91.4334 34.2428 91.5274Z" fill="#42445D"/>
<path fill-rule="evenodd" clip-rule="evenodd" d="M34.2428 91.5274C32.0579 91.76 34.4434 95.3902 35.227 95.6921C35.7058 95.6989 36.1821 95.6268 36.6337 95.4793C35.8554 95.2095 35.2965 93.6184 36.2004 93.6902C38.9683 93.5714 37.1444 92.9206 40.4793 93.5293L38.7062 91.2305C37.0589 91.4507 34.8953 91.4334 34.2428 91.5274Z" fill="#333242"/>
<path fill-rule="evenodd" clip-rule="evenodd" d="M55.0382 86.3802C52.035 85.8036 38.9549 90.2925 38.4575 90.4533C38.4575 90.4533 40.1102 94.133 40.5034 94.0463C40.8965 93.9597 54.7441 91.0769 55.6346 90.8294C58.1244 90.0772 57.5548 86.786 55.0382 86.3802Z" fill="#FFB725"/>
<path fill-rule="evenodd" clip-rule="evenodd" d="M50.8503 89.847C48.6814 89.7827 46.9886 89.2432 45.0336 88.3623C42.5706 89.1245 38.642 90.389 38.4575 90.4483C38.4575 90.4483 40.1102 94.128 40.5034 94.0414C40.8965 93.9548 54.7441 91.0719 55.6346 90.8245C56.1864 90.6823 56.6564 90.3464 56.9446 89.8884C57.2328 89.4304 57.3164 88.8864 57.1777 88.3722C54.6933 89.5724 53.7412 89.9336 50.8503 89.847Z" fill="url(#paint10_linear)"/>
<path fill-rule="evenodd" clip-rule="evenodd" d="M46.2638 65.6582C46.2638 65.6582 45.5257 66.0987 45.5043 66.2076C45.3893 66.747 46.1943 68.6277 46.1943 68.6277C46.812 67.9249 47.4512 66.4624 46.2638 65.6582Z" fill="#333242"/>
<path fill-rule="evenodd" clip-rule="evenodd" d="M42.4021 73.6588C42.5706 74.0225 42.608 74.4878 41.418 75.0817C41.418 75.0817 42.5652 76.017 42.6883 76.7322C42.8113 76.9227 44.0415 73.5747 42.4021 73.6588Z" fill="white"/>
<path fill-rule="evenodd" clip-rule="evenodd" d="M44.5576 65.5474C40.6424 64.0453 38.8854 65.6216 38.4923 68.1655C36.6202 67.1608 37.1551 70.8083 38.7784 70.5089C38.7784 70.6672 38.6768 71.5259 40.2867 72.3895C41.8967 73.2531 43.1402 73.8124 44.0308 72.8151C44.9213 71.8179 45.7985 70.8355 45.9349 70.1352C46.1477 69.0273 46.287 67.9083 46.3521 66.7847C46.3521 66.7847 46.7719 66.1462 44.5576 65.5474Z" fill="#FFCAB8"/>
<path fill-rule="evenodd" clip-rule="evenodd" d="M40.5515 71.4813C38.7944 68.7148 43.5547 65.3791 39.8642 65.5424C38.6313 66.5743 38.4923 68.1605 38.4923 68.1605C36.6202 67.1558 37.1551 70.8033 38.7784 70.5039C38.305 71.6867 43.1696 74.5176 44.0682 72.7582C42.707 73.2927 41.3404 72.4884 40.5515 71.4813Z" fill="#FFC3AB"/>
<path fill-rule="evenodd" clip-rule="evenodd" d="M38.0858 65.7653C37.7942 66.4664 37.7429 67.2336 37.9387 67.9627C39.324 68.0097 38.2596 70.2021 39.5594 69.5686C40.0595 69.19 39.3909 68.5516 39.9498 67.589C40.6318 66.4136 43.7233 68.4427 45.4723 68.0047C50.3154 65.1837 40.5916 60.3658 38.0858 65.7653Z" fill="#42445D"/>
<path fill-rule="evenodd" clip-rule="evenodd" d="M38.0858 65.7647C37.7942 66.4658 37.7429 67.233 37.9387 67.9621C39.3187 67.9967 38.2864 70.3822 39.6369 69.4938C39.3695 68.2565 39.1341 67.6354 40.8724 66.611C41.9957 65.7795 40.5515 64.0845 41.6747 63.3569C40.8953 63.4146 40.148 63.6698 39.5149 64.0945C38.8818 64.5192 38.3874 65.0971 38.0858 65.7647Z" fill="#333242"/>
<path fill-rule="evenodd" clip-rule="evenodd" d="M41.5811 87.7957C38.3933 86.8727 35.5264 85.8309 33.9379 86.6821C32.3333 87.4245 32.3601 90.1935 34.0877 90.5127C40.2386 92.9205 49.7966 95.0214 49.7966 95.0214C51.6926 93.3832 50.9973 90.6884 50.9973 90.6884C50.9973 90.6884 44.0762 88.5182 41.5811 87.7957Z" fill="#FFB725"/>
<path fill-rule="evenodd" clip-rule="evenodd" d="M46.3199 92.4232C44.9828 91.7847 43.7098 91.6981 42.2389 91.7056C40.407 91.5596 39.5887 89.4611 37.8076 89.5428C35.6681 90.9063 32.8307 89.0479 33.7186 86.8208C32.2958 87.6745 32.4777 90.2184 34.0876 90.5079C40.2385 92.9156 49.7965 95.0165 49.7965 95.0165C50.8422 94.1133 51.0989 92.8909 51.1203 91.9753C49.5745 92.5073 47.9994 92.8686 46.3199 92.4232Z" fill="url(#paint11_linear)"/>
<path fill-rule="evenodd" clip-rule="evenodd" d="M38.3023 69.4571C38.3156 69.2889 38.3665 69.3755 38.4387 69.2097C38.6392 68.8484 38.0616 68.1184 37.6765 68.5143C37.3582 68.8335 37.7701 70.1921 38.3451 70.0881C38.5537 70.0436 38.5965 69.9174 38.5403 69.7392C38.4841 69.5611 38.2809 69.6254 38.3023 69.4571Z" fill="#C95F39"/>
<path fill-rule="evenodd" clip-rule="evenodd" d="M34.1304 91.5449C32.0498 91.8542 34.6493 96.5806 36.2004 95.5859C35.037 95.1305 33.6116 91.9285 34.1304 91.5449Z" fill="white"/>
<path fill-rule="evenodd" clip-rule="evenodd" d="M45.2047 80.1768C43.7927 79.2909 43.0974 80.5232 41.1612 80.8078C40.4338 80.8721 33.1784 82.4336 33.1784 82.4336C33.1784 82.4336 36.1201 77.7319 35.8527 75.9181C35.7751 75.4232 33.8309 73.4757 32.7211 76.0987C26.4926 89.1619 31.9188 84.7201 40.7279 82.3866C40.974 82.8394 43.3595 82.5152 43.4798 82.3618C43.5502 82.46 43.6411 82.5442 43.7472 82.6093C43.7874 82.884 44.3302 84.0247 44.25 82.6984C44.2286 82.5425 43.7392 81.7085 43.552 81.6764C44.2607 81.8917 44.5201 82.2455 45.1352 82.8196C46.4724 83.6733 44.3516 81.2161 44.1938 81.1988C44.1938 81.1988 44.8945 81.5229 44.9801 81.5898C45.1111 81.7234 45.8038 82.3989 46.1862 82.2826C46.106 81.5774 44.5816 80.7014 43.9532 80.4638C45.3545 80.4243 45.892 81.7011 46.6034 81.5576C46.7291 81.32 45.2556 80.209 45.2047 80.1768Z" fill="#FFCAB8"/>
<path fill-rule="evenodd" clip-rule="evenodd" d="M43.397 82.0871C43.1055 81.9189 42.5947 82.1812 42.3593 82.1837C41.9127 82.1837 41.2308 81.763 40.605 81.9535C33.9192 83.9703 32.2852 84.48 31.2449 83.8787C29.6885 82.9804 31.0657 81.5032 32.1141 81.956C32.4929 82.1316 32.9167 82.2069 33.3389 82.1738C33.946 81.1691 36.0934 77.4721 35.8528 75.9181C35.7752 75.4232 33.831 73.4757 32.7211 76.0987C26.49 89.1619 31.9188 84.7201 40.728 82.3866C40.9741 82.8394 43.3595 82.5152 43.4799 82.3618C43.5502 82.46 43.6412 82.5442 43.7473 82.6093C43.7473 82.5771 43.9506 83.4605 44.218 83.2576C43.9211 82.8171 43.9559 82.3643 43.397 82.0871Z" fill="#FFC3AB"/>
<path fill-rule="evenodd" clip-rule="evenodd" d="M35.0959 73.8246C32.6649 73.3841 30.1644 80.5949 30.1644 80.5949C31.4026 81.6615 33.7186 81.8074 33.7186 81.8074C37.4787 76.7099 37.2674 74.2205 35.0959 73.8246Z" fill="#C3391C"/>
<path fill-rule="evenodd" clip-rule="evenodd" d="M34.4433 74.1933C34.4728 74.061 34.5361 73.9371 34.6279 73.832C32.3547 74.2824 30.1644 80.595 30.1644 80.595C31.4026 81.6615 33.7186 81.8075 33.7186 81.8075C34.3366 80.9791 34.9035 80.119 35.4168 79.2315C34.4093 77.7286 34.061 75.9261 34.4433 74.1933Z" fill="#FD4B1B"/>
<path fill-rule="evenodd" clip-rule="evenodd" d="M38.4761 73.2183L38.5884 72.6343C36.5132 73.4212 39.6903 76.7569 39.9256 76.7791C40.2465 76.0046 41.4259 75.0816 41.4259 75.0816C39.947 75.2326 38.4761 73.2183 38.4761 73.2183Z" fill="white"/>
<path d="M31.3679 85.8506C30.7849 87.021 45.2449 86.098 45.5203 86.3801C45.5957 86.3805 45.6704 86.367 45.7402 86.3405C45.8099 86.3141 45.8733 86.2751 45.9267 86.2259C45.9802 86.1767 46.0225 86.1182 46.0515 86.0538C46.0804 85.9894 46.0953 85.9203 46.0953 85.8506H31.3679Z" fill="#42445D"/>
<path d="M47.5555 74.9308C44.4694 89.637 40.4606 86.0093 56.9156 86.2815V74.2206H48.5985C48.364 74.2146 48.1341 74.2813 47.9452 74.4099C47.7563 74.5386 47.6191 74.7219 47.5555 74.9308Z" fill="#42445D"/>
<path d="M63.152 74.2204H48.5235C48.4501 74.2202 48.3787 74.2421 48.3199 74.2827C48.261 74.3233 48.218 74.3804 48.1972 74.4455L45.1886 85.9546C45.175 86.0006 45.1731 86.0489 45.183 86.0957C45.1929 86.1425 45.2143 86.1865 45.2456 86.2244C45.277 86.2622 45.3173 86.2929 45.3636 86.3139C45.4098 86.3349 45.4607 86.3458 45.5122 86.3456H59.1218C59.484 86.3477 59.8369 86.2399 60.1267 86.0388C60.4164 85.8377 60.6271 85.5544 60.7264 85.2321C60.5151 84.9995 64.1923 73.9902 63.152 74.2204Z" fill="white"/>
<path fill-rule="evenodd" clip-rule="evenodd" d="M74.7372 49.2103C72.6164 49.3885 72.9614 52.4272 75.0768 52.2045C77.0397 52.0239 80.1018 51.5834 82.0086 50.7519L81.6636 48.8936C80.7276 49.042 77.7885 48.9109 74.7372 49.2103Z" fill="url(#paint12_linear)"/>
<path fill-rule="evenodd" clip-rule="evenodd" d="M87.8492 43.4842C87.8749 43.4417 87.8909 43.3949 87.8963 43.3466C87.9017 43.2982 87.8963 43.2494 87.8805 43.203C87.8647 43.1567 87.8389 43.1138 87.8045 43.077C87.7702 43.0403 87.728 43.0104 87.6808 42.9892C87.8064 42.7962 87.6192 42.6577 87.432 42.6379C87.6353 42.331 87.7797 42.0638 87.4802 41.987C87.3358 41.9499 86.8303 42.7789 86.6057 43.061C86.2233 43.5361 85.9478 43.1575 85.6884 43.5906C85.421 44.0632 85.5092 44.4344 85.5279 44.8649C85.4343 46.8446 78.5239 49.4998 81.6903 50.8286C83.1184 50.7643 85.5413 47.1539 86.5041 45.9859C87.1352 44.9812 88.4617 43.89 87.8492 43.4842Z" fill="#FFCAB8"/>
<path fill-rule="evenodd" clip-rule="evenodd" d="M87.8494 43.4839C87.8754 43.4416 87.8918 43.3947 87.8973 43.3463C87.9029 43.2979 87.8976 43.2489 87.8818 43.2024C87.866 43.156 87.84 43.1131 87.8054 43.0763C87.7709 43.0396 87.7284 43.0099 87.6809 42.989C87.8066 42.796 87.6194 42.6574 87.4322 42.6376C87.6354 42.3308 87.7798 42.0635 87.4803 41.9868C84.4771 44.7732 88.8255 44.986 87.8494 43.4839Z" fill="#FFC3AB"/>
<path fill-rule="evenodd" clip-rule="evenodd" d="M85.0494 45.3844C84.4664 46.3124 82.2948 47.8194 80.6769 49.168C80.1233 49.6283 81.0325 50.9448 81.5968 50.9175C83.0115 50.8532 85.6939 47.421 86.678 46.2159C86.2474 46.0971 85.4719 45.523 85.159 45.2261C85.1162 45.2855 85.0814 45.3325 85.0494 45.3844Z" fill="url(#paint13_linear)"/>
<path fill-rule="evenodd" clip-rule="evenodd" d="M85.7661 46.8395C83.3057 48.6632 81.078 51.1155 77.7431 50.8185C76.2268 50.9992 75.0688 51.7836 73.6702 51.6871C74.6088 52.9986 79.9869 51.4075 81.6048 50.9175C81.9739 51.4594 87.0952 46.5326 85.7661 46.8395Z" fill="#FFB725"/>
<path fill-rule="evenodd" clip-rule="evenodd" d="M86.0576 42.1406C85.7286 42.9473 85.5682 43.3457 85.5227 44.0856L86.0576 43.759C86.1763 43.5075 86.2062 43.2278 86.1431 42.9597C86.3437 42.6182 86.3063 42.3163 86.0576 42.1406Z" fill="#FFCAB8"/>
<path d="M74.4216 46.9436C74.8628 46.2755 73.7797 45.8004 72.9721 45.5035C72.6164 45.4515 70.9503 44.5681 71.2686 45.3525C72.4185 49.5988 68.9259 48.8589 74.5687 49.6013C74.5687 49.6137 73.8814 47.7652 74.4216 46.9436Z" fill="#FFCAB8"/>
<path d="M73.3787 45.7777C73.0684 45.7554 70.8889 44.4464 71.2686 45.3521C72.3651 49.2916 69.2602 48.9625 73.8146 49.497C73.3546 48.8709 73.0604 46.7329 73.3787 45.7777Z" fill="#FFC3AB"/>
<path d="M75.7909 43.8922C75.2079 43.5754 74.6302 42.7143 74.4163 42.2342C72.9802 40.0888 70.0037 43.0731 71.0868 45.0428C71.3033 45.8519 71.8537 46.5503 72.62 46.9883C73.3864 47.4264 74.3077 47.5692 75.1865 47.3862C75.6893 47.1091 75.6705 45.1171 75.9139 44.5727C76.1332 44.1025 75.938 43.9689 75.7909 43.8922Z" fill="#FFCAB8"/>
<path d="M72.1084 45.7458C71.0707 44.657 70.9771 42.8654 72.1378 41.8311C69.2709 43.6127 71.7768 48.1535 75.1143 47.4161C73.9242 47.4037 72.8358 46.55 72.1084 45.7458Z" fill="#FFC3AB"/>
<path d="M72.718 40.9972C67.0539 40.1905 68.3803 46.5625 71.4023 47.3667C71.5012 47.3939 72.8678 47.4508 73.6246 45.9314C73.7771 45.6246 73.8653 45.3227 73.6968 45.2361C73.1005 44.9293 72.8705 44.0359 73.1192 43.8083C73.5043 43.4594 73.6861 44.0557 73.9402 43.8726C74.6676 43.1253 74.1996 41.1803 72.718 40.9972Z" fill="#42445D"/>
<path d="M70.9075 44.7558C72.4292 40.3536 66.5885 41.8457 69.5704 45.9757C70.0464 46.5325 71.0439 47.3788 71.5788 47.3763C72.1136 47.3739 70.7818 45.7852 70.9075 44.7558Z" fill="#333242"/>
<path d="M68.6451 41.8583C66.289 41.8261 66.289 45.2113 68.6451 45.1816C70.4904 45.2732 70.4904 41.7643 68.6451 41.8583Z" fill="#42445D"/>
<path d="M84.584 89.439C83.3164 88.8748 81.8321 88.5902 81.8214 87.3975C81.2485 87.6028 80.6133 87.6028 80.0403 87.3975C80.158 88.2339 79.3396 89.872 80.8801 89.7458C82.0434 89.5701 84.4984 90.4312 85.2151 89.5899C85.0003 89.5573 84.789 89.5068 84.584 89.439Z" fill="#FFCAB8"/>
<path d="M84.584 89.4388L84.5278 89.424C83.0516 89.7283 81.3186 88.929 80.9335 87.5557C80.6288 87.5563 80.3264 87.5068 80.0403 87.4097C80.158 88.2461 79.3396 89.8842 80.8801 89.758C82.0434 89.5823 84.4984 90.4435 85.2151 89.6021C84.9998 89.5655 84.7886 89.5108 84.584 89.4388Z" fill="#FFC3AB"/>
<path d="M85.3836 89.5253C85.2526 89.4734 84.0919 89.0898 83.4314 88.877C83.1827 88.7978 82.9928 89.1071 82.9928 89.2903C81.4898 89.2903 80.1821 88.3524 79.9762 88.4935C79.5937 88.7409 79.2996 89.5625 80.0537 89.8743C80.1527 89.9163 80.388 89.9435 81.1876 89.946C81.9017 89.946 82.6077 90.3246 83.0597 90.3246H85.3943C85.635 90.337 85.8035 89.6862 85.3836 89.5253Z" fill="#333242"/>
<path d="M85.0814 89.8594C83.287 89.9782 81.2304 89.6986 79.69 88.8696C79.4226 89.7407 79.8719 90.0178 81.1983 89.9535C82.1263 90.0772 86.4828 91.0794 85.5147 89.607C85.4677 89.6766 85.4043 89.7354 85.3293 89.7791C85.2543 89.8228 85.1695 89.8503 85.0814 89.8594Z" fill="#FFB725"/>
<path d="M81.3534 89.9065L79.6205 89.4536L79.9842 90.3172H81.4524C81.3782 90.1917 81.3439 90.0493 81.3534 89.9065Z" fill="#FFB725"/>
<path d="M80.7289 87.2886L80.65 87.3318L80.7289 87.2886Z" fill="#D0AECF"/>
<path d="M72.8544 88.2462C72.4345 87.8973 72.5602 87.2168 72.5308 86.7788C72.496 86.2641 70.8246 86.6971 70.8139 86.7788C70.7845 87.6647 70.5812 88.6322 70.7203 89.5008C71.5039 90.0971 72.8598 89.669 73.8225 89.9066C74.451 89.9066 75.6303 90.2159 75.9406 89.6195C75.1222 89.4933 73.3358 88.647 72.8544 88.2462Z" fill="#FFCAB8"/>
<path d="M71.5494 86.7046C71.5734 86.6551 71.6002 86.6081 71.6269 86.5586C71.3477 86.5851 71.0759 86.658 70.8246 86.7739C70.7952 87.6598 70.592 88.6273 70.731 89.4959C71.4638 90.0799 72.7501 89.6691 73.6728 89.8893C72.3062 89.3053 70.8888 88.1695 71.5494 86.7046Z" fill="#FFC3AB"/>
<path d="M76.1064 89.4935C75.9753 89.444 74.812 89.0629 74.1514 88.855C73.9027 88.7759 73.7128 89.0852 73.7128 89.2683C72.2099 89.2683 70.8995 88.3403 70.6962 88.4814C70.3138 88.7288 70.0223 89.5529 70.7764 89.8647C70.8781 89.9067 71.1134 89.9315 71.913 89.9315C72.6271 89.9315 73.3358 90.3051 73.785 90.3051H76.1171C76.3631 90.3051 76.5235 89.6543 76.1064 89.4935Z" fill="#333242"/>
<path d="M75.7213 89.7928C74.4965 89.7928 71.2579 89.8447 70.4904 88.7139C70.0438 89.58 70.5225 90.0452 71.9265 89.9313C72.6405 89.9313 73.3492 90.305 73.7985 90.305H76.1305C76.3525 90.305 76.5049 89.8101 76.2509 89.5626C76.0887 89.665 75.91 89.7427 75.7213 89.7928Z" fill="#FFB725"/>
<path d="M70.8194 72.6492C71.0306 75.9725 70.3727 76.8881 70.2043 78.8034C70.0358 80.7187 70.5359 88.0928 70.5359 88.0928C70.5359 88.0928 71.7634 88.417 72.7716 88.0928L76.1519 63.5948L70.0385 63.0776C70.0385 63.0776 70.6054 69.3234 70.8194 72.6492Z" fill="#C3391C"/>
<path d="M70.2016 64.9312C70.3861 67.037 70.6803 70.4692 70.8193 72.6493C71.0306 75.9726 70.3727 76.8882 70.2042 78.8035C70.0358 80.7188 70.5359 88.0929 70.5359 88.0929C70.9119 88.1816 71.2978 88.2297 71.6858 88.2365C71.4638 85.5021 70.953 82.9483 72.1538 80.6594C72.5336 79.9343 72.6887 77.8235 72.6887 76.9476C72.6887 75.1981 72.1832 72.2212 72.9561 69.7466C73.1139 69.2517 73.2235 67.5195 73.2717 66.0002C72.7085 66.0229 72.1461 65.9399 71.6185 65.7562C71.0908 65.5725 70.6089 65.2918 70.2016 64.9312Z" fill="#FD4B1B"/>
<path d="M72.5549 63.7183C72.4105 65.4232 76.7563 74.4331 76.7429 76.0044C76.5691 79.0728 78.5373 81.8344 80.0055 88.199C80.5778 88.3821 81.6984 88.5281 82.2653 87.9664C82.0273 84.5737 79.1685 66.1433 78.8262 63.9162C78.786 63.8915 74.2879 64.3517 72.5549 63.7183Z" fill="#C3391C"/>
<path d="M79.9708 81.6716C76.3257 76.1632 79.436 71.031 76.085 66.9653C75.0204 67.0256 73.9702 66.7128 73.1433 66.0894C74.2451 68.8782 76.7697 75.3244 76.7322 76.0049C76.5584 79.0733 78.5267 81.8349 79.9949 88.1994C80.3212 88.3034 80.7972 88.4741 81.2037 88.3578C80.5164 86.1109 80.7624 83.8269 79.9708 81.6716Z" fill="#FD4B1B"/>
<path d="M78.5 53.7211C77.9892 51.791 74.8656 47.9851 71.9318 48.6211C70.2283 48.8982 70.5653 51.1897 70.5653 55.6934C70.5653 56.0497 69.763 63.7678 69.656 64.4211C71.0279 65.2995 77.6468 65.203 79.1979 64.718C79.0829 59.029 77.5613 57.9229 78.5 53.7211Z" fill="url(#paint14_linear)"/>
<path d="M71.9318 48.6235C70.1561 49.0738 70.5653 51.1921 70.5653 55.6957C70.5653 56.0521 69.763 63.7702 69.656 64.4235C70.2444 64.7996 71.7232 65.0075 73.3439 65.0842C73.3439 63.305 71.9693 62.6517 71.9693 61.0903C71.9693 60.1252 73.2396 59.1106 73.1594 58.341C73.0123 56.9008 72.6245 53.2731 73.3439 51.1203C73.5819 50.4348 72.4827 48.4824 71.9318 48.6235Z" fill="#FFB725"/>
<path d="M70.3433 89.4536L70.7123 90.3147H72.1778C72.1057 90.1903 72.0715 90.05 72.0789 89.9089L70.3433 89.4536Z" fill="#FFB725"/>
<path fill-rule="evenodd" clip-rule="evenodd" d="M73.1781 50.3955C71.6858 52.6474 78.5641 54.5255 80.3292 54.9759L81.2491 53.2883C80.3987 52.9022 78.1095 51.2096 75.4539 49.8016C75.2628 49.7006 75.0518 49.6358 74.8334 49.611C74.6149 49.5862 74.3933 49.6019 74.1815 49.6572C73.9696 49.7125 73.7718 49.8062 73.5995 49.933C73.4273 50.0598 73.284 50.217 73.1781 50.3955Z" fill="url(#paint15_linear)"/>
<path fill-rule="evenodd" clip-rule="evenodd" d="M90.2536 51.0167C89.6385 51.1948 89.9861 50.5985 89.486 50.8088C88.9366 51.0167 88.4873 51.4017 88.2211 51.8926C88.0847 52.1401 83.2362 53.0186 81.0619 53.2314C80.3158 53.3031 80.043 54.58 80.5271 54.8646C81.7225 55.5822 86.7663 53.7486 88.2986 53.3254C89.4513 52.8602 91.219 52.6969 90.9917 52.0386C91.0405 52.0191 91.0845 51.9904 91.1209 51.9544C91.1572 51.9184 91.1852 51.8759 91.203 51.8294C91.2208 51.783 91.2281 51.7337 91.2244 51.6845C91.2207 51.6354 91.2061 51.5874 91.1815 51.5437C91.2271 51.5274 91.2674 51.5004 91.2983 51.4654C91.3293 51.4304 91.35 51.3885 91.3583 51.344C91.3667 51.2994 91.3624 51.2536 91.346 51.2109C91.3295 51.1683 91.3014 51.1304 91.2644 51.1008C91.6281 50.9647 91.9357 50.8286 91.7458 50.6059C91.6415 50.4921 90.6173 50.9103 90.2536 51.0167Z" fill="#FFCAB8"/>
<path fill-rule="evenodd" clip-rule="evenodd" d="M80.2676 52.9767C79.5215 53.0509 79.4065 54.6024 79.8798 54.8895C81.0645 55.5997 86.7234 53.9665 88.2852 53.5285C88.0177 53.1994 87.7503 52.3159 87.6942 51.9126C87.646 51.9299 82.4525 52.7638 80.2676 52.9767Z" fill="url(#paint16_linear)"/>
<path fill-rule="evenodd" clip-rule="evenodd" d="M87.9483 52.8996C85.6483 54.0355 82.0514 54.6863 79.6579 53.6791C77.1788 52.7858 74.2825 51.7589 72.8839 49.6382C72.817 49.7124 73.2262 50.3088 73.1754 50.3954C72.9717 50.7384 72.9227 51.1419 73.0389 51.5182C73.155 51.8944 73.4271 52.2131 73.7958 52.4047C79.5108 55.5697 81.7358 55.5721 88.2933 53.5282C88.1532 53.3301 88.0451 53.1142 87.9723 52.8873L87.9483 52.8996Z" fill="#FFB725"/>
<path fill-rule="evenodd" clip-rule="evenodd" d="M89.5127 50.4946L88.6355 51.3458C89.1704 51.3458 89.7052 51.2419 89.9245 50.6827C90.323 50.5292 90.4861 50.2645 90.3979 49.9873C90.126 50.1888 89.8288 50.3592 89.5127 50.4946Z" fill="#FFCAB8"/>
<path d="M181.838 48.6238C180.041 47.6983 172.336 46.4462 171.355 46.315C170.047 46.1393 169.817 48.1536 170.215 48.5792C170.833 49.5319 179.923 52.5756 181.084 51.0711C181.859 50.309 183.777 49.6309 181.838 48.6238Z" fill="#FFB725"/>
<path d="M176.856 49.2298C175.032 48.8166 174.315 47.4654 172.486 48.2103C171.587 48.5716 169.876 48.3315 170.215 48.7052C171.638 49.8138 179.332 52.2735 180.378 51.0709C181.089 50.5042 179.546 49.8435 176.856 49.2298Z" fill="url(#paint17_linear)"/>
<path fill-rule="evenodd" clip-rule="evenodd" d="M165.929 41.3309C165.891 40.8533 162.987 37.9976 163.503 39.611C163.337 39.6581 163.161 40.0243 163.313 40.1777C163.224 40.251 163.166 40.351 163.149 40.4601C163.131 40.5692 163.157 40.6804 163.219 40.7741C162.604 41.3779 164.693 42.4023 165.287 43.2486C165.683 42.7878 166.121 42.3583 166.594 41.9643C166.45 41.8307 166.06 41.6105 165.929 41.3309Z" fill="#FFCAB8"/>
<path fill-rule="evenodd" clip-rule="evenodd" d="M164.048 39.9628C164.048 40.3785 163.733 41.2001 163.364 41.3931C163.73 41.6975 164.228 42.279 164.827 41.9672C165.206 41.8756 165.854 41.7395 165.546 41.1927C165.19 40.5988 164.054 39.7327 164.048 39.9628Z" fill="#FFC3AB"/>
<path d="M166.338 41.4868C165.738 42.0289 165.177 42.6076 164.661 43.219C164.661 43.219 168.421 47.0768 169.809 48.3784C171.911 50.3581 173.138 48.1533 172.858 47.3119C172.601 46.5324 166.338 41.4868 166.338 41.4868Z" fill="#FFB725"/>
<path d="M165.351 42.4497C165.137 42.6724 164.904 42.9298 164.661 43.2143C164.661 43.2143 168.421 47.0722 169.809 48.3738C171.529 49.9896 172.914 49.178 172.898 48.0793C168.809 45.8225 168.787 46.4214 165.351 42.4497Z" fill="url(#paint18_linear)"/>
<path d="M189.527 90.9385C184.729 89.5577 190.658 92.7697 182.932 94.5761C183.651 95.6377 187.133 94.5761 188.502 94.7963C190.658 94.9473 189.361 92.1238 189.527 90.9385Z" fill="#FFCAB8"/>
<path d="M189.527 90.9383C189.199 90.7863 188.843 90.6923 188.478 90.6611C189.548 92.5616 187.676 94.1849 185.86 94.9297C190.607 94.7045 189.759 95.1302 189.527 90.9383Z" fill="#FFC3AB"/>
<path d="M189.676 93.1656C189.409 92.985 187.727 94.1777 185.793 94.1777C185.793 93.9426 185.55 93.5442 185.232 93.6457C184.381 93.9154 182.884 94.4054 182.718 94.4697C182.183 94.6776 182.386 95.5115 182.718 95.5115H185.721C186.291 95.5115 187.203 95.0166 188.128 95.0166C190.166 95.2714 190.717 94.096 189.676 93.1656Z" fill="#42445D"/>
<path d="M188.042 94.4772C186.12 94.4302 184.157 95.4349 182.565 94.5589C182.239 94.8558 182.437 95.5017 182.718 95.5017H185.721C186.291 95.5017 187.203 95.0068 188.128 95.0068C189.933 95.1553 190.551 94.5564 189.973 93.4429C189.771 93.7513 189.488 94.0077 189.151 94.1885C188.813 94.3692 188.432 94.4685 188.042 94.4772Z" fill="#333242"/>
<path d="M187.775 95.5016H189.647L190.123 94.3955L187.89 94.982C187.903 95.1617 187.864 95.3413 187.775 95.5016Z" fill="#333242"/>
<path d="M172.502 90.4607C172.2 90.9556 171.932 91.8069 171.232 91.9949C170.429 92.2127 167.843 92.2845 166.827 91.9949C166.827 92.8462 168.378 93.0936 169.108 93.4079C170.379 93.6306 171.678 94.8134 172.949 94.5214C173.633 93.5984 173.989 92.3735 174.494 91.3342C174.529 91.2377 172.855 89.8817 172.502 90.4607Z" fill="#FFCAB8"/>
<path d="M173.681 90.6685C173.756 92.8114 171.288 93.5266 169.301 93.4771C170.502 93.6924 171.745 94.8257 172.949 94.5213C173.633 93.5983 173.989 92.3734 174.494 91.3341C174.271 91.0666 173.995 90.8408 173.681 90.6685Z" fill="#FFC3AB"/>
<path d="M169.59 92.7772C169.699 92.5668 169.67 92.1115 169.322 92.0744C168.429 91.9804 166.848 91.8269 166.667 91.8269C166.081 91.7972 165.864 92.6336 166.166 92.7623L168.87 93.9526C169.384 94.1778 170.432 94.1085 171.261 94.4722C172.994 95.514 174.04 94.6702 173.556 93.4156C173.419 93.1409 171.336 93.5443 169.59 92.7772Z" fill="#42445D"/>
<path d="M171.462 93.9451C169.75 93.1384 167.506 93.2671 166.485 91.8442C166.052 91.9828 165.926 92.6411 166.18 92.7549L168.884 93.9451C169.397 94.1703 170.445 94.101 171.274 94.4648C172.831 95.316 173.681 95.0191 173.681 93.7892C173.354 93.9829 172.98 94.0985 172.593 94.1257C172.205 94.1529 171.817 94.0909 171.462 93.9451Z" fill="#333242"/>
<path d="M170.74 94.7615L172.443 95.5039L173.395 94.6947L171.103 94.3384C171.027 94.5079 170.901 94.6544 170.74 94.7615Z" fill="#333242"/>
<path d="M178.557 62.8916C177 68.2317 172.81 87.204 171.406 91.2598C171.94 92.2125 173.262 92.7272 174.494 92.5317C175.355 91.1039 183.271 70.1544 184.79 64.9702C184.849 64.7747 180.207 63.0524 178.557 62.8916Z" fill="white"/>
<path d="M182.124 63.8521C181.381 66.2944 182.105 69.2738 180.306 71.241C178.273 73.5473 179.985 77.1651 178.099 79.6347C176.123 81.8371 176.12 84.9476 175.273 87.6176C174.738 90.0575 173.002 89.6467 172.002 91.9307C172.347 92.189 172.748 92.3763 173.178 92.4799C173.608 92.5836 174.057 92.6014 174.494 92.5321C175.355 91.1042 183.271 70.1547 184.79 64.9705C184.833 64.8691 183.566 64.3494 182.124 63.8521Z" fill="url(#paint19_linear)"/>
<path d="M188.821 64.3739C187.526 64.1265 181.798 63.4633 181.172 64.6412C180.228 66.4179 186.055 90.4804 186.614 92.4081C187.738 92.851 189.198 92.5689 189.823 92.2621C188.707 83.0042 188.372 73.68 188.821 64.3739Z" fill="white"/>
<path d="M188.821 64.3743C188.395 64.2976 187.483 64.0897 186.398 63.8794C186.82 64.4659 186.794 67.7867 186.775 68.0985C186.633 70.4048 187.615 72.8595 187.545 73.3817C187.144 76.3041 187.786 78.207 187.77 79.0731C187.748 80.0506 187.278 81.8545 187.545 84.0915C188.347 88.0854 189.286 88.0038 188.615 92.5445C189.064 92.4703 189.481 92.3441 189.832 92.255C188.713 82.9998 188.375 73.6781 188.821 64.3743Z" fill="url(#paint20_linear)"/>
<path d="M184.526 47.2529C182.723 47.2529 178.396 47.4014 178.107 50.2471C177.987 51.4052 177.441 64.5797 177.613 64.9385C177.955 65.6512 189.174 65.5621 189.315 65.0425C189.481 64.4387 189.885 55.6021 190.118 52.885C190.35 50.3733 189.112 47.2529 184.526 47.2529Z" fill="#FFB725"/>
<path d="M179.394 58.0964C179.142 59.2842 180.947 59.3807 181.533 59.2001C183.138 59.2545 188.219 51.7913 188.029 52.0239L184.617 49.9478C184.617 49.9478 179.645 56.9062 179.394 58.0964Z" fill="#FFB725"/>
<path d="M179.666 58.9204C182.466 61.3776 187.834 52.0188 188.021 52.0287L187.687 50.2471C187.026 52.7241 182.833 57.2377 179.666 58.9204Z" fill="url(#paint21_linear)"/>
<path d="M184.526 47.253C184.001 47.2895 183.482 47.3724 182.974 47.5004C190.628 49.5741 188.925 51.4325 187.074 56.9186C186.989 58.4033 188.216 58.4033 187.532 59.2719C186.625 60.4151 186.39 60.034 186.021 60.863C185.569 61.885 187.681 62.1696 187.149 63.387C186.555 64.7406 185.25 64.3942 184.691 65.4384C187.098 65.4112 189.238 65.2702 189.307 65.0425C189.473 64.4387 189.877 55.6021 190.11 52.8851C190.35 50.3734 188.885 47.0624 184.526 47.253Z" fill="url(#paint22_linear)"/>
<path d="M183.67 45.3768C183.574 46.1687 182.378 46.4582 182.378 47.3862C182.378 48.1656 186.066 48.4477 186.122 47.3268C186.178 46.2058 186.272 44.1099 186.272 44.1099C186.272 44.1099 183.763 44.5874 183.67 45.3768Z" fill="#FFC3AB"/>
<path d="M185.697 40.3665C184.702 39.394 182.29 39.2332 181.389 40.3665C180.429 42.3585 179.319 47.268 183.151 46.8795C186.815 45.5655 186.986 42.4377 185.697 40.3665Z" fill="#FFCAB8"/>
<path d="M184.742 39.7872C183.694 39.6016 182.263 40.438 182.285 42.044C182.212 42.4028 181.445 43.0882 181.373 43.5287C181.236 44.3552 181.675 45.9513 182.274 46.4982C182.541 46.711 182.833 46.9386 183.151 46.8644C185.373 46.2037 186.299 44.2043 186.293 44.0063C186.317 42.5513 186.705 40.3365 184.742 39.7872Z" fill="#FFC3AB"/>
<path d="M184.234 39.0966C182.143 38.8343 181.292 40.0864 180.733 40.2126C182.284 41.2593 184.726 40.7223 184.686 41.0762C184.419 43.3429 185.298 43.4394 185.432 43.8279C185.63 44.2729 185.968 44.6523 186.403 44.9167C187.999 41.2494 186.705 39.4084 184.234 39.0966Z" fill="url(#paint23_linear)"/>
<path d="M185.248 39.3367C183.836 38.6587 181.704 39.3961 181.161 39.9949C181.191 40.0123 183.189 40.7373 185.127 40.423C185.259 40.4022 185.38 40.342 185.472 40.2515C185.563 40.1611 185.62 40.0454 185.634 39.9222C185.647 39.799 185.617 39.675 185.547 39.5693C185.478 39.4635 185.372 39.3818 185.248 39.3367Z" fill="white"/>
<path d="M185.05 42.5065C184.186 42.7688 183.298 43.8428 184.496 44.3377C186.063 45.0751 187.066 41.9993 185.05 42.5065Z" fill="#FFCAB8"/>
<path d="M184.606 43.2315C184.873 43.2612 185.175 43.7264 185.181 43.9293C186.317 43.2463 185.462 42.5163 184.606 43.2315Z" fill="#FFC3AB"/>
<path d="M183.041 44.575C183.122 43.6842 181.065 43.3378 180.522 43.5629C180.084 43.9935 180.343 44.3746 180.212 44.6839C178.586 46.765 181.303 48.8783 183.734 47.6534C186.293 46.0226 183.247 43.6941 185.51 42.0485L184.927 41.3062C184.927 41.3062 183.956 44.3672 183.041 44.575Z" fill="url(#paint24_linear)"/>
<path d="M183.638 44.3777C183.953 44.5955 184.528 42.5614 184.496 42.4624C184.271 43.0585 183.967 43.6263 183.59 44.1525C183.616 44.2268 183.571 44.3332 183.638 44.3777Z" fill="white"/>
<path d="M180.217 46.2258C180.051 44.4119 181.242 45.523 181.932 44.7609C181.843 44.3377 180.158 44.5802 181.009 43.4964C180.1 43.3528 180.311 44.3575 180.207 44.6841C178.639 46.696 181.11 48.7375 183.512 47.7575C182.004 48.0891 180.466 47.3864 180.217 46.2258Z" fill="white"/>
<path fill-rule="evenodd" clip-rule="evenodd" d="M181.645 46.3966C181.453 46.1763 181.025 46.3124 181.025 46.696C180.843 46.6168 180.49 46.7504 180.474 46.9905C180.336 46.9886 180.201 47.031 180.093 47.1103C179.985 47.1897 179.91 47.3012 179.88 47.426C178.955 47.5274 179.546 48.9478 179.514 50.2272C179.535 50.4251 179.431 52.2761 179.444 52.4543C180.18 52.308 180.926 52.2153 181.677 52.1771C181.357 50.4425 182.426 48.0595 181.645 46.3966Z" fill="#FFCAB8"/>
<path fill-rule="evenodd" clip-rule="evenodd" d="M181.645 46.3966C181.453 46.1763 181.025 46.3124 181.025 46.696C180.937 46.6715 180.843 46.6726 180.756 46.6992C180.669 46.7258 180.593 46.7765 180.538 46.8445C180.593 46.8555 180.644 46.8769 180.689 46.9074C180.735 46.9378 180.772 46.9765 180.801 47.0212C180.829 47.0659 180.847 47.1154 180.853 47.1668C180.859 47.2181 180.854 47.2702 180.838 47.3196C180.685 48.4999 181.442 50.7839 181.303 52.1969C181.427 52.1833 181.552 52.1783 181.677 52.1821C181.357 50.4425 182.426 48.057 181.645 46.3966Z" fill="#FFC3AB"/>
<path fill-rule="evenodd" clip-rule="evenodd" d="M181.517 46.2875C181.266 46.2875 179.912 45.4363 179.76 45.8743C179.658 46.3692 181.017 46.5622 181.314 46.728C181.372 46.7361 181.432 46.7261 181.484 46.6993C181.536 46.6726 181.576 46.6308 181.599 46.5805C181.623 46.5301 181.627 46.474 181.612 46.421C181.597 46.368 181.564 46.321 181.517 46.2875Z" fill="#FFC3AB"/>
<path fill-rule="evenodd" clip-rule="evenodd" d="M181.608 50.2939C180.61 50.1999 179.72 50.2618 179.468 50.4325C179.468 50.6503 179.337 51.0239 179.554 51.061C180.822 50.6453 182.159 51.5065 181.608 50.2939Z" fill="#333242"/>
<path fill-rule="evenodd" clip-rule="evenodd" d="M163.345 40.8982C163.185 40.7127 162.869 40.9453 163.037 41.1284C163.81 42.0885 164.661 42.2617 163.345 40.8982Z" fill="#FFCAB8"/>
<path fill-rule="evenodd" clip-rule="evenodd" d="M162.714 38.2525C161.815 38.198 163.57 39.6679 163.516 39.611C163.784 39.8436 164.166 39.4699 163.904 39.2447L162.714 38.2525Z" fill="#FFCAB8"/>
<path fill-rule="evenodd" clip-rule="evenodd" d="M163.706 39.8044C163.439 39.5867 163.067 39.9801 163.342 40.1905C163.278 40.136 165.027 41.601 164.891 40.7893L163.706 39.8044Z" fill="#FFCAB8"/>
<path fill-rule="evenodd" clip-rule="evenodd" d="M163.602 40.3583C163.356 40.1604 163.019 40.5167 163.27 40.7097C163.214 40.6602 164.805 41.9965 164.68 41.2566L163.602 40.3583Z" fill="#FFCAB8"/>
<path d="M179.42 51.5063C179.42 52.3155 178.524 56.9503 179.353 58.5439C179.656 59.3778 182.429 59.9866 182.295 57.2324C182.202 55.4136 181.76 51.4222 181.76 51.4222C180.98 51.3402 180.191 51.3686 179.42 51.5063Z" fill="#FFB725"/>
<path d="M181.742 51.4227C181.41 51.3955 181.113 51.3856 180.846 51.3881C181.488 53.6943 182.876 57.6214 180.014 59.1012C180.923 59.465 182.391 59.2571 182.29 57.2329C182.196 55.4141 181.742 51.4227 181.742 51.4227Z" fill="url(#paint25_linear)"/>
<path fill-rule="evenodd" clip-rule="evenodd" d="M180.747 49.9452C179.87 49.9724 179.945 51.2319 180.811 51.1824C181.678 51.1329 181.624 49.8981 180.747 49.9452Z" fill="#ADCDED"/>
<path fill-rule="evenodd" clip-rule="evenodd" d="M180.758 50.1084C180.633 50.1204 180.517 50.1762 180.435 50.2643C180.354 50.3525 180.311 50.4662 180.317 50.5823C180.323 50.6985 180.376 50.8081 180.467 50.8888C180.557 50.9696 180.677 51.0153 180.803 51.0166C180.928 51.0045 181.043 50.9487 181.125 50.8606C181.207 50.7725 181.249 50.6587 181.244 50.5426C181.238 50.4265 181.184 50.3169 181.094 50.2361C181.003 50.1554 180.883 50.1097 180.758 50.1084Z" fill="white"/>
<defs>
<linearGradient id="paint0_linear" x1="0.00890909" y1="88.6939" x2="224.001" y2="88.6939" gradientUnits="userSpaceOnUse">
<stop stop-color="#EFF6FF"/>
<stop offset="1" stop-color="#C4D8FB"/>
</linearGradient>
<linearGradient id="paint1_linear" x1="202.425" y1="81.4587" x2="204.386" y2="79.7711" gradientUnits="userSpaceOnUse">
<stop stop-color="#FB6B14"/>
<stop offset="1" stop-color="#FDB522"/>
</linearGradient>
<linearGradient id="paint2_linear" x1="9953.87" y1="5408.13" x2="10108.3" y2="5358.34" gradientUnits="userSpaceOnUse">
<stop stop-color="#FB6B14"/>
<stop offset="1" stop-color="#FDB522"/>
</linearGradient>
<linearGradient id="paint3_linear" x1="143.847" y1="80.7728" x2="176.915" y2="80.7728" gradientUnits="userSpaceOnUse">
<stop stop-color="#EFF6FF"/>
<stop offset="1" stop-color="#8AA8DA"/>
</linearGradient>
<linearGradient id="paint4_linear" x1="3591.55" y1="4543.09" x2="3508.5" y2="4498.28" gradientUnits="userSpaceOnUse">
<stop stop-color="#FB6B14"/>
<stop offset="1" stop-color="#FDB522"/>
</linearGradient>
<linearGradient id="paint5_linear" x1="10904.6" y1="5497.43" x2="11079.6" y2="5237.61" gradientUnits="userSpaceOnUse">
<stop stop-color="#EFF6FF"/>
<stop offset="1" stop-color="#8AA8DA"/>
</linearGradient>
<linearGradient id="paint6_linear" x1="14721.6" y1="10693.2" x2="13747" y2="9363.26" gradientUnits="userSpaceOnUse">
<stop stop-color="#FB6B14"/>
<stop offset="1" stop-color="#FDB522"/>
</linearGradient>
<linearGradient id="paint7_linear" x1="128.98" y1="73.5151" x2="130.857" y2="82.6755" gradientUnits="userSpaceOnUse">
<stop stop-color="#8AA8DA"/>
<stop offset="1" stop-color="#EFF6FF"/>
</linearGradient>
<linearGradient id="paint8_linear" x1="47701.6" y1="1190.14" x2="75975" y2="1190.14" gradientUnits="userSpaceOnUse">
<stop stop-color="#FB6B14"/>
<stop offset="1" stop-color="#FDB522"/>
</linearGradient>
<linearGradient id="paint9_linear" x1="30446" y1="7432.76" x2="41396.7" y2="7432.76" gradientUnits="userSpaceOnUse">
<stop stop-color="#FB6B14"/>
<stop offset="1" stop-color="#FDB522"/>
</linearGradient>
<linearGradient id="paint10_linear" x1="6926.22" y1="3213.19" x2="8246.29" y2="3213.19" gradientUnits="userSpaceOnUse">
<stop stop-color="#FB6B14"/>
<stop offset="1" stop-color="#FDB522"/>
</linearGradient>
<linearGradient id="paint11_linear" x1="6374.52" y1="4585.77" x2="7635.56" y2="4585.77" gradientUnits="userSpaceOnUse">
<stop stop-color="#FB6B14"/>
<stop offset="1" stop-color="#FDB522"/>
</linearGradient>
<linearGradient id="paint12_linear" x1="4515.17" y1="1329.76" x2="4652.33" y2="1186.88" gradientUnits="userSpaceOnUse">
<stop stop-color="#FB6B14"/>
<stop offset="1" stop-color="#FDB522"/>
</linearGradient>
<linearGradient id="paint13_linear" x1="3231.94" y1="2239.5" x2="3403.44" y2="2165.49" gradientUnits="userSpaceOnUse">
<stop stop-color="#FB6B14"/>
<stop offset="1" stop-color="#FDB522"/>
</linearGradient>
<linearGradient id="paint14_linear" x1="4681.47" y1="6845.58" x2="5021.92" y2="6845.58" gradientUnits="userSpaceOnUse">
<stop stop-color="#FB6B14"/>
<stop offset="1" stop-color="#FDB522"/>
</linearGradient>
<linearGradient id="paint15_linear" x1="4249.5" y1="2146.36" x2="4484.13" y2="2266.27" gradientUnits="userSpaceOnUse">
<stop stop-color="#FB6B14"/>
<stop offset="1" stop-color="#FDB522"/>
</linearGradient>
<linearGradient id="paint16_linear" x1="4469.86" y1="1272.59" x2="4638.83" y2="1427.06" gradientUnits="userSpaceOnUse">
<stop stop-color="#FB6B14"/>
<stop offset="1" stop-color="#FDB522"/>
</linearGradient>
<linearGradient id="paint17_linear" x1="9087.86" y1="1349.31" x2="9490.68" y2="1349.31" gradientUnits="userSpaceOnUse">
<stop stop-color="#FB6B14"/>
<stop offset="1" stop-color="#FDB522"/>
</linearGradient>
<linearGradient id="paint18_linear" x1="7071.97" y1="2549.95" x2="7325.67" y2="2549.95" gradientUnits="userSpaceOnUse">
<stop stop-color="#FB6B14"/>
<stop offset="1" stop-color="#FDB522"/>
</linearGradient>
<linearGradient id="paint19_linear" x1="11553.8" y1="16021.5" x2="11553.8" y2="12688.1" gradientUnits="userSpaceOnUse">
<stop stop-color="#EFF6FF"/>
<stop offset="1" stop-color="#8AA8DA"/>
</linearGradient>
<linearGradient id="paint20_linear" x1="3367.01" y1="15987.9" x2="3367.01" y2="12667.4" gradientUnits="userSpaceOnUse">
<stop stop-color="#EFF6FF"/>
<stop offset="1" stop-color="#8AA8DA"/>
</linearGradient>
<linearGradient id="paint21_linear" x1="7654.31" y1="3710.48" x2="7915.3" y2="3710.48" gradientUnits="userSpaceOnUse">
<stop stop-color="#FB6B14"/>
<stop offset="1" stop-color="#FDB522"/>
</linearGradient>
<linearGradient id="paint22_linear" x1="6677.58" y1="7491.77" x2="6869.54" y2="7491.77" gradientUnits="userSpaceOnUse">
<stop stop-color="#FB6B14"/>
<stop offset="1" stop-color="#FDB522"/>
</linearGradient>
<linearGradient id="paint23_linear" x1="5907.29" y1="2095.68" x2="6059.14" y2="2095.68" gradientUnits="userSpaceOnUse">
<stop stop-color="#EFF6FF"/>
<stop offset="1" stop-color="#C4D8FB"/>
</linearGradient>
<linearGradient id="paint24_linear" x1="5361.52" y1="2469.66" x2="5486.88" y2="2469.66" gradientUnits="userSpaceOnUse">
<stop stop-color="#EFF6FF"/>
<stop offset="1" stop-color="#C4D8FB"/>
</linearGradient>
<linearGradient id="paint25_linear" x1="2223.61" y1="3234.96" x2="2243.04" y2="3234.96" gradientUnits="userSpaceOnUse">
<stop stop-color="#FB6B14"/>
<stop offset="1" stop-color="#FDB522"/>
</linearGradient>
</defs>
</svg>
